<?xml version="1.0" encoding="UTF-8"?>
<svg version="1.1" xmlns="http://www.w3.org/2000/svg" width="250" height="250">
<path d="M0 0 C9.59760345 7.53070383 16.82114077 18.02326719 18.875 30.30078125 C20.20005722 44.97456305 17.65651171 56.38379471 8.22265625 67.9140625 C-3.0735293 80.01863797 -18.56717256 87.31651676 -32.95117188 95.03955078 C-38.04322801 97.78446107 -43.10988308 100.57275908 -48.1640625 103.38671875 C-49.5552832 104.14625854 -49.5552832 104.14625854 -50.97460938 104.92114258 C-58.2536109 108.99094532 -64.99975905 113.7224153 -70.9140625 119.63671875 C-71.9040625 119.63671875 -72.8940625 119.63671875 -73.9140625 119.63671875 C-70.45043831 107.20842017 -63.10468315 98.31335816 -54.34912109 89.1484375 C-52.02278803 86.69783282 -49.75192074 84.19706376 -47.4765625 81.69921875 C-44.60569148 78.5480357 -41.716573 75.42028948 -38.765625 72.34375 C-28.58525632 61.66959828 -21.30802583 52.06827187 -21.59765625 36.640625 C-22.34224092 29.57166685 -25.40078651 24.12426897 -30.9140625 19.63671875 C-38.53655523 14.40882206 -46.71673522 12.5164428 -55.9140625 13.63671875 C-59.65361169 15.37754337 -61.37770586 16.29582715 -62.9140625 20.13671875 C-62.9140625 22.99841232 -62.46375888 24.25182774 -60.9140625 26.63671875 C-54.94608959 29.53869289 -49.01477324 28.51164167 -42.9140625 26.63671875 C-43.29693692 29.20031272 -43.6911647 30.41435293 -45.55078125 32.26953125 C-52.15415141 37.07426916 -57.56969028 39.4185338 -65.9140625 38.63671875 C-68.94779042 38.08942102 -71.93047827 37.41024059 -74.9140625 36.63671875 C-74.9140625 35.97671875 -74.9140625 35.31671875 -74.9140625 34.63671875 C-75.9659375 34.35828125 -75.9659375 34.35828125 -77.0390625 34.07421875 C-81.81763674 31.68493163 -85.22577215 27.70158981 -86.9140625 22.63671875 C-88.03416755 13.91590085 -85.61703577 7.58042852 -80.41015625 0.62890625 C-61.3883726 -20.5471517 -20.73820197 -14.86113029 0 0 Z " fill="#000000" transform="translate(228.9140625,81.36328125)"/>
<path d="M0 0 C6.15186646 4.90918944 10.2892184 10.65298389 11.34375 18.5859375 C11.56040451 24.59810029 10.71695062 28.91924117 6.62890625 33.5546875 C1.07049992 38.91315116 -6.4539049 42.08735691 -14.1875 42.4375 C-22.21113416 41.5167551 -27.2286427 38.57296689 -33 33 C-32.67 32.01 -32.34 31.02 -32 30 C-31.45472656 30.17917969 -30.90945312 30.35835937 -30.34765625 30.54296875 C-24.02923104 32.32508868 -19.96379048 31.62237596 -14 29 C-12.99704099 25.80876679 -12.81270763 24.4238722 -14.1875 21.3125 C-16.58251189 18.25679517 -18.56366603 17.20020214 -22.41015625 16.6640625 C-31.80633571 16.52567989 -40.64881789 18.90389776 -48 25 C-53.8645915 32.49364469 -54.90889984 39.70391054 -54 49 C-50.646066 63.94207724 -38.27915718 74.4570372 -28.05078125 85.125 C-2 112.35768082 -2 112.35768082 -2 123 C-5.46983722 122.41340724 -7.1353778 121.21330911 -9.6484375 118.79296875 C-13.9626619 114.88587812 -18.54153177 112.10915517 -23.625 109.3125 C-24.53016357 108.80412598 -25.43532715 108.29575195 -26.36791992 107.77197266 C-32.05539158 104.59004037 -37.78417072 101.48535286 -43.51757812 98.38720703 C-86.22445955 75.2804265 -86.22445955 75.2804265 -94 54 C-97.16035421 40.85027445 -94.66086044 27.20768979 -87.83203125 15.66015625 C-78.7417291 2.46080494 -64.54497396 -4.97597773 -49 -8 C-48.0821875 -8.18046875 -47.164375 -8.3609375 -46.21875 -8.546875 C-30.92287361 -10.70017799 -12.80635807 -9.49893088 0 0 Z " fill="#000000" transform="translate(97,78)"/>
<path d="M0 0 C9.24 0 18.48 0 28 0 C27 5 27 5 25.9375 8.125 C23.79211299 16.99259965 24.62101219 23.48908055 28.80859375 31.58984375 C31.24838128 36.52541394 32.06571351 41.74196155 30.31640625 47.08984375 C28.09719963 52.03471494 25.73811895 54.41557148 21 57 C21.44472656 57.72445312 21.88945312 58.44890625 22.34765625 59.1953125 C22.91355469 60.16210938 23.47945312 61.12890625 24.0625 62.125 C24.63097656 63.07632813 25.19945312 64.02765625 25.78515625 65.0078125 C27.22093639 68.5441713 26.98457895 70.36066629 26 74 C25.67 74.66 25.34 75.32 25 76 C26.16471381 78.4374475 26.16471381 78.4374475 27.8125 81.125 C30.47054202 85.8149402 31.91411096 89.75153628 33 95 C33.37125 95.825 33.7425 96.65 34.125 97.5 C35.37820274 101.08057925 35.12822643 104.21732041 35 108 C35.66 107.67 36.32 107.34 37 107 C37.51274696 104.70301218 37.9342414 102.38542551 38.3125 100.0625 C40.38564315 88.85932436 44.65220938 82.09756509 52.48828125 73.79296875 C57.90825243 67.76609567 62.90426323 61.30562965 63.203125 52.9375 C62.76116682 48.72189894 60.87361356 46.70833532 57.6875 44.125 C54.25036823 42.68620065 52.60363814 43.14199092 49 44 C45.98516797 45.37209279 45.98516797 45.37209279 43.125 47.0625 C41.43375 48.031875 39.7425 49.00125 38 50 C38 44.72 38 39.44 38 34 C49.8123264 34.99263247 57.0578298 35.91289882 65.5625 44.625 C68.05854847 50.4852877 68.30264885 56.48613209 66.0703125 62.5078125 C62.6771183 68.59146837 57.91032082 73.61668134 53.33740234 78.82104492 C47.19386402 85.91442568 43.80257477 92.62387634 42.45703125 101.96875 C42.23080078 103.46921875 42.23080078 103.46921875 42 105 C41.90638184 105.75249023 41.81276367 106.50498047 41.71630859 107.28027344 C40.67904248 114.02056559 38.34154801 118.07637883 34 123.25 C32.8248828 124.71459129 31.651733 126.18076311 30.48046875 127.6484375 C29.89571777 128.37256836 29.3109668 129.09669922 28.70849609 129.84277344 C26.12543762 133.1042631 23.71054151 136.476272 21.3125 139.875 C20.69858398 140.7397998 20.69858398 140.7397998 20.07226562 141.62207031 C18.34689535 144.06022132 16.65694868 146.51457697 15 149 C11.73705243 147.91235081 11.37830082 147.51148783 9.5390625 144.81640625 C9.0735498 144.14536865 8.60803711 143.47433105 8.12841797 142.78295898 C7.63229004 142.05020752 7.13616211 141.31745605 6.625 140.5625 C3.33602792 135.74259581 0.03980906 130.98624688 -3.609375 126.4296875 C-10.45187744 117.77015915 -14.1664429 111.65024508 -14.78125 100.55078125 C-15.42053931 90.17374589 -21.42260493 83.55861302 -28 76 C-39.69364076 61.97976982 -39.69364076 61.97976982 -39.3359375 50.8359375 C-38.65711293 45.10539516 -35.56631074 42.1997474 -31.25 38.75 C-24.77004697 34.58976125 -17.50253274 34.63046494 -10 34 C-10 39.28 -10 44.56 -10 50 C-16.625 46.4375 -16.625 46.4375 -18.67431641 45.30249023 C-22.88030769 43.12357859 -25.46646505 42.63400039 -30 44 C-32.5625949 45.66222372 -33.66999339 47.01400464 -34.640625 49.9140625 C-35.68588506 55.39199946 -34.65378859 59.30584104 -31.9921875 64.1328125 C-29.41944822 67.83553923 -26.49853664 71.13879119 -23.5 74.5 C-15.18281014 83.83717894 -11.67257944 91.71011032 -9.67578125 103.97265625 C-9.45277344 104.97167969 -9.22976562 105.97070312 -9 107 C-8.34 107.33 -7.68 107.66 -7 108 C-7.05220703 107.00419922 -7.05220703 107.00419922 -7.10546875 105.98828125 C-7.27102341 100.58804594 -7.11067955 97.5463778 -4 93 C-3.54729869 91.09218735 -3.0964544 89.18379871 -2.671875 87.26953125 C-1.38503732 82.92271327 0.86275659 78.98081978 3 75 C2.34 74.01 1.68 73.02 1 72 C1.1372913 66.23376558 4.10535597 61.80660447 7 57 C5.906875 56.319375 4.81375 55.63875 3.6875 54.9375 C-0.16123703 52.17170719 -1.64826553 49.61179994 -3 45 C-3.93968743 38.01946482 -1.25636319 31.06937081 2.11328125 24.9921875 C4.57303957 19.46585824 3.41228915 12.53748185 1.5 7 C1.2215625 6.29875 0.943125 5.5975 0.65625 4.875 C0 3 0 3 0 0 Z " fill="#000000" transform="translate(111,90)"/>
<path d="M0 0 C0.66 0 1.32 0 2 0 C3.60505107 4.27949941 5.18908418 8.56600136 6.75463867 12.86010742 C7.28937731 14.31791258 7.82966893 15.77369389 8.37573242 17.22729492 C9.16254899 19.32475388 9.92869048 21.4288321 10.69140625 23.53515625 C10.93717911 24.17711441 11.18295197 24.81907257 11.43617249 25.48048401 C13.73896798 31.96242882 12.53494887 37.13708658 10.15234375 43.390625 C9.61577148 44.82535156 9.61577148 44.82535156 9.06835938 46.2890625 C8.69517578 47.26617187 8.32199219 48.24328125 7.9375 49.25 C7.19223852 51.21188491 6.45115156 53.1753622 5.71484375 55.140625 C5.38605225 56.00204102 5.05726074 56.86345703 4.71850586 57.75097656 C3.84783915 60.08278338 3.84783915 60.08278338 4 63 C5.98 63.495 5.98 63.495 8 64 C17.86972291 54.1029464 17.86972291 54.1029464 26.12695312 43.01049805 C28.78517331 40.15720774 31.751835 39.77628038 35.44140625 39.078125 C36.52662819 38.85355621 36.52662819 38.85355621 37.6337738 38.62445068 C39.94056451 38.15111128 42.25116824 37.70058106 44.5625 37.25 C46.12203823 36.93242719 47.68128764 36.61343255 49.24023438 36.29296875 C60.50766267 34 60.50766267 34 63 34 C60.68930965 39.15736558 56.95858416 43.13482813 53.30957031 47.39111328 C51.98416891 49.01944946 50.80475181 50.7029063 49.6171875 52.43359375 C42.53683895 62.07081039 34.87925421 63.97250047 23.28125 65.88427734 C20.52380763 66.29264856 17.76751067 66.66770609 15 67 C16.98 67.99 18.96 68.98 21 70 C19.98321659 74.53733336 18.83651086 78.13111307 15 81 C10.15865182 82.09783777 5.44529041 82.02209685 0.5 81.9375 C-1.47806641 81.99067383 -1.47806641 81.99067383 -3.49609375 82.04492188 C-12.81754069 82.00233658 -12.81754069 82.00233658 -16.0546875 79.25830078 C-17.4545525 77.15028584 -18.40500446 75.45913568 -19 73 C-17.75453595 69.26360784 -16.36595047 68.81243487 -13 67 C-13.68924561 66.92185059 -14.37849121 66.84370117 -15.08862305 66.76318359 C-38.72613377 63.81367712 -38.72613377 63.81367712 -46.98608398 53.52368164 C-47.91092677 52.29661316 -48.81793228 51.05586248 -49.70507812 49.80126953 C-50.97370459 48.03657759 -52.31699432 46.39275659 -53.734375 44.74609375 C-59.76037257 37.7188823 -59.76037257 37.7188823 -61 34 C-59.29427083 34.34114583 -57.58854167 34.68229167 -55.8828125 35.0234375 C-54.8 35.24 -53.7171875 35.4565625 -52.6015625 35.6796875 C-50.88066406 36.02386719 -50.88066406 36.02386719 -49.125 36.375 C-47.46210937 36.70757812 -47.46210937 36.70757812 -45.765625 37.046875 C-43.55990394 37.48801921 -41.35505472 37.93354627 -39.15112305 38.38354492 C-37.14363471 38.77627042 -35.12938801 39.13680731 -33.10864258 39.4543457 C-27.84532526 40.31512093 -24.8872851 41.08171073 -21.4375 45.4375 C-20.71046875 46.32308594 -19.9834375 47.20867188 -19.234375 48.12109375 C-18.49703125 49.07113281 -17.7596875 50.02117188 -17 51 C-15.40089026 53.00404559 -13.79681185 55.00413776 -12.1875 57 C-11.47980469 57.9075 -10.77210937 58.815 -10.04296875 59.75 C-8.07903419 61.91295661 -6.75471177 63.07598767 -4 64 C-3.34 63.67 -2.68 63.34 -2 63 C-2.7320222 55.9985619 -5.7004245 49.62393874 -8.29296875 43.14257812 C-8.83244141 41.7281543 -8.83244141 41.7281543 -9.3828125 40.28515625 C-9.88385498 39.01490601 -9.88385498 39.01490601 -10.39501953 37.71899414 C-11.68450208 31.92360788 -9.69213112 26.62268928 -7.71484375 21.19140625 C-7.26689453 19.95068359 -6.81894531 18.70996094 -6.35742188 17.43164062 C-5.88426148 16.14187318 -5.41095236 14.85216029 -4.9375 13.5625 C-4.459668 12.24566696 -3.98244877 10.9286114 -3.50585938 9.61132812 C-2.34323922 6.40531497 -1.17445227 3.20169356 0 0 Z " fill="#030303" transform="translate(124,8)"/>
<path d="M0 0 C3.63 0 7.26 0 11 0 C10.67515625 1.17755859 10.67515625 1.17755859 10.34375 2.37890625 C7.08938028 14.65812532 8.33312882 21.66625764 14 33 C14.40045268 37.78232917 14.6379928 42.36957396 12.875 46.875 C10.46338777 49.60816053 7.87833147 51.76129775 5 54 C5.39798117 57.38283998 5.94205678 58.92842308 8.125 61.625 C10.23599055 65.42478299 10.04369792 66.15710755 9.375 70.25 C8.55587583 76.11111177 10.22325905 78.88089335 13.5 83.63671875 C15.63778063 87.00483668 16.23579711 90.10951254 17 94 C17.495 94.99 17.495 94.99 18 96 C18.30869938 98.29809536 18.50883648 100.59720129 18.71875 102.90625 C18.892155 105.05443933 18.892155 105.05443933 20 107 C22.52733235 107.65555119 22.52733235 107.65555119 25 108 C20.7238002 117.25775215 13.6285863 125.59462664 7.5625 133.75 C7.04252441 134.45350586 6.52254883 135.15701172 5.98681641 135.88183594 C5.49745605 136.53442383 5.0080957 137.18701172 4.50390625 137.859375 C3.85143921 138.73287598 3.85143921 138.73287598 3.18579102 139.62402344 C2 141 2 141 0 142 C0 95.14 0 48.28 0 0 Z " fill="#F8F8F8" transform="translate(125,92)"/>
<path d="M0 0 C-1.31731577 2.94645992 -2.6996069 4.87836004 -5.0625 7.0625 C-7.35252444 9.19985614 -9.05510267 11.08821425 -10.72265625 13.7578125 C-14.10498945 18.96674453 -16.98032041 21.98472628 -23.03515625 23.59375 C-30.28271573 25.13361944 -37.57423444 26.25860875 -45 26 C-43.71653398 24.18175647 -42.41021154 22.37806727 -41.0390625 20.625 C-39.5544574 18.71378424 -38.1412231 16.74648705 -36.7734375 14.75 C-29.13413575 4.46152637 -20.46693325 2.56667695 -8.12109375 0.63671875 C-5.35174747 0.25247409 -2.79937091 0 0 0 Z " fill="#F4F4F4" transform="translate(181,46)"/>
<path d="M0 0 C2 2 2 2 2.01953125 5.08984375 C1.95121094 6.35957031 1.88289062 7.62929687 1.8125 8.9375 C1.60902766 15.3720226 2.74999584 20.05768459 5.80859375 25.73046875 C8.10513853 30.10519831 8.40981181 34.08225824 8 39 C6.06821852 44.90573196 3.41263913 48.04765138 -2 51 C-1.55527344 51.72445312 -1.11054688 52.44890625 -0.65234375 53.1953125 C0.19650391 54.64550781 0.19650391 54.64550781 1.0625 56.125 C1.63097656 57.07632813 2.19945312 58.02765625 2.78515625 59.0078125 C4.22093639 62.5441713 3.98457895 64.36066629 3 68 C2.505 68.99 2.505 68.99 2 70 C3.16471381 72.4374475 3.16471381 72.4374475 4.8125 75.125 C7.47054202 79.8149402 8.91411096 83.75153628 10 89 C10.63028587 90.68076231 11.28050817 92.35544725 12 94 C11.34 94 10.68 94 10 94 C10 96.31 10 98.62 10 101 C9.67 101 9.34 101 9 101 C8.95101562 100.39671875 8.90203125 99.7934375 8.8515625 99.171875 C8.77679688 98.37265625 8.70203125 97.5734375 8.625 96.75 C8.55539063 95.96109375 8.48578125 95.1721875 8.4140625 94.359375 C7.98127556 91.893306 7.15165707 90.20548998 6 88 C5.5978125 86.14375 5.5978125 86.14375 5.1875 84.25 C4.44813939 80.95923927 3.31760752 78.8849789 1.3125 76.1875 C-1.66545151 71.82784765 -0.84084624 68.63778418 -0.0625 63.61328125 C0.02750366 59.85000323 -1.54621304 58.25293346 -3.890625 55.48046875 C-5 54 -5 54 -5.25 51.4375 C-3.62213728 48.2631677 -1.41172295 46.56626535 1.40625 44.4296875 C3.6052162 42.45708547 3.93389882 40.5590271 4.2734375 37.6875 C4.56507512 29.97031986 2.49299962 24.77985499 -1 18 C-3.09107044 11.72678869 -1.7291857 6.16022407 0 0 Z " fill="#111111" transform="translate(134,96)"/>
<path d="M0 0 C3.32173857 3.32173857 4.169349 7.85346061 5.625 12.25 C5.94984375 13.19230469 6.2746875 14.13460938 6.609375 15.10546875 C6.91617188 16.02457031 7.22296875 16.94367187 7.5390625 17.890625 C7.81959473 18.72625977 8.10012695 19.56189453 8.38916016 20.42285156 C9.59848141 25.52500791 9.08012261 29.53717432 7.25 34.3984375 C6.8890625 35.37167969 6.528125 36.34492187 6.15625 37.34765625 C5.7746875 38.34667969 5.393125 39.34570312 5 40.375 C4.6184375 41.39722656 4.236875 42.41945312 3.84375 43.47265625 C2.90449139 45.98517303 1.95637743 48.49396047 1 51 C0.67 51 0.34 51 0 51 C0 34.17 0 17.34 0 0 Z " fill="#EFEFEF" transform="translate(125,15)"/>
<path d="M0 0 C-2.30149477 5.13684142 -6.01698819 9.13581369 -9.64648438 13.38232422 C-11.05014558 15.05993229 -12.39036942 16.77827532 -13.734375 18.50390625 C-19.92441506 26.15267128 -24.65128634 29.49010972 -34.45703125 30.8984375 C-38.10070007 31.00288666 -41.41569182 30.63333486 -45 30 C-41.81312117 27.97500408 -38.91749344 27.77121844 -35.2121582 27.46972656 C-28.21341717 26.77456412 -23.58461332 25.48496413 -18.81445312 20.12792969 C-16.91329648 17.75086582 -15.09898199 15.3301516 -13.34619141 12.84179688 C-11.08015771 9.74151429 -8.53854573 6.87822969 -6 4 C-26.83217495 6.7717662 -26.83217495 6.7717662 -42.74682617 19.32470703 C-43.88107749 20.84723307 -44.94935735 22.41862034 -46 24 C-46.66 23.34 -47.32 22.68 -48 22 C-47.22914063 21.16855469 -46.45828125 20.33710937 -45.6640625 19.48046875 C-44.6509335 18.38291233 -43.63791863 17.28525056 -42.625 16.1875 C-42.11710938 15.64029297 -41.60921875 15.09308594 -41.0859375 14.52929688 C-38.84783697 12.09977985 -36.83620888 9.75431332 -35 7 C-32.52313904 6.24482745 -30.1861067 5.66950214 -27.65625 5.17578125 C-26.93135376 5.02465378 -26.20645752 4.87352631 -25.45959473 4.71781921 C-23.14193718 4.23780116 -20.8211614 3.77524343 -18.5 3.3125 C-16.93597353 2.99001865 -15.37216802 2.66646366 -13.80859375 2.34179688 C-2.42857407 0 -2.42857407 0 0 0 Z " fill="#0C0C0C" transform="translate(187,42)"/>
<path d="M0 0 C0.33 0 0.66 0 1 0 C1.33 46.2 1.66 92.4 2 140 C9.44167387 130.08832727 9.44167387 130.08832727 16.8125 120.125 C17.26302734 119.51398438 17.71355469 118.90296875 18.17773438 118.2734375 C20.88962991 114.57862786 23.48608373 110.83240382 26 107 C26.66 107.33 27.32 107.66 28 108 C26.71353076 111.53934223 25.20647899 114.3514961 22.953125 117.36328125 C22.0559375 118.57081055 22.0559375 118.57081055 21.140625 119.80273438 C20.51671875 120.63095703 19.8928125 121.45917969 19.25 122.3125 C18.6415625 123.12912109 18.033125 123.94574219 17.40625 124.78710938 C16.19591162 126.40994556 14.98176583 128.02994965 13.76367188 129.64697266 C12.60285262 131.19569579 11.45276346 132.75252951 10.31445312 134.31787109 C9.79302734 135.03152832 9.27160156 135.74518555 8.734375 136.48046875 C8.27772461 137.11235107 7.82107422 137.7442334 7.35058594 138.39526367 C6 140 6 140 3 142 C2.01 142 1.02 142 0 142 C0 95.14 0 48.28 0 0 Z " fill="#1C1C1C" transform="translate(124,93)"/>
<path d="M0 0 C4.95 1.98 9.9 3.96 15 6 C15 10 15 10 13 13 C8.64352194 13.41996896 4.38442431 13.12895366 0 13 C0 8.71 0 4.42 0 0 Z " fill="#F8F8F8" transform="translate(125,73)"/>
<path d="M0 0 C0.66 0.33 1.32 0.66 2 1 C0.71353076 4.53934223 -0.79352101 7.3514961 -3.046875 10.36328125 C-3.645 11.16830078 -4.243125 11.97332031 -4.859375 12.80273438 C-5.48328125 13.63095703 -6.1071875 14.45917969 -6.75 15.3125 C-7.3584375 16.12912109 -7.966875 16.94574219 -8.59375 17.78710938 C-9.80455542 19.41057177 -11.01999868 21.03058632 -12.24023438 22.64697266 C-13.39479003 24.19075837 -14.53224893 25.74751055 -15.65039062 27.31787109 C-16.41899414 28.38835693 -16.41899414 28.38835693 -17.203125 29.48046875 C-17.64817383 30.11235107 -18.09322266 30.7442334 -18.55175781 31.39526367 C-20.19865745 33.22012397 -21.75508376 34.04059559 -24 35 C-22.325838 31.2826403 -20.01282726 28.09285106 -17.625 24.8125 C-16.73385719 23.5771963 -15.84325808 22.34150024 -14.953125 21.10546875 C-14.47939453 20.44853027 -14.00566406 19.7915918 -13.51757812 19.11474609 C-10.78069325 15.30089526 -8.07906528 11.46215507 -5.375 7.625 C-4.84213379 6.86936768 -4.30926758 6.11373535 -3.76025391 5.33520508 C-2.50647281 3.55705937 -1.25318057 1.77856899 0 0 Z " fill="#151515" transform="translate(150,200)"/>
<path d="M0 0 C0 0.99 0 1.98 0 3 C0.90533682 4.92170551 1.87259923 6.8145933 2.875 8.6875 C5.35335853 13.50459123 6.88951636 17.72520273 8 23 C8.63028587 24.68076231 9.28050817 26.35544725 10 28 C9.34 28 8.68 28 8 28 C8 30.31 8 32.62 8 35 C7.67 35 7.34 35 7 35 C6.92652344 34.09507812 6.92652344 34.09507812 6.8515625 33.171875 C6.77679688 32.37265625 6.70203125 31.5734375 6.625 30.75 C6.55539063 29.96109375 6.48578125 29.1721875 6.4140625 28.359375 C5.98127556 25.893306 5.15165707 24.20548998 4 22 C3.731875 20.7625 3.46375 19.525 3.1875 18.25 C2.25316123 14.17840991 0.43713495 11.23576103 -1.9765625 7.859375 C-3 6 -3 6 -3 2 C-2.01 1.34 -1.02 0.68 0 0 Z " fill="#0E0E0E" transform="translate(136,162)"/>
<path d="M0 0 C0.99 0 1.98 0 3 0 C4.59712267 6.52232778 3.08268648 11.10672184 0.8125 17.3125 C0.50763672 18.21806641 0.20277344 19.12363281 -0.11132812 20.05664062 C-2.46781117 26.68147032 -2.46781117 26.68147032 -5.12231445 28.27026367 C-5.74195068 28.51107666 -6.36158691 28.75188965 -7 29 C-6.5875 27.7625 -6.175 26.525 -5.75 25.25 C-5.48058594 24.43144531 -5.21117188 23.61289062 -4.93359375 22.76953125 C-4.28375838 20.84177694 -3.60718147 18.92291694 -2.91015625 17.01171875 C-0.78822187 11.06879222 0.48567399 6.31376184 0 0 Z " fill="#171717" transform="translate(133,36)"/>
<path d="M0 0 C-2 3 -2 3 -4.35546875 3.765625 C-9.90326416 4.71448932 -14.48555956 5.22543121 -20 4 C-16.89234404 2.25971266 -14.0636951 1.48685934 -10.5625 0.875 C-9.17224609 0.62363281 -9.17224609 0.62363281 -7.75390625 0.3671875 C-5.12946175 0.01726157 -2.64357647 -0.06716891 0 0 Z " fill="#131313" transform="translate(162,68)"/>
<path d="M0 0 C0 3.99947122 -1.92167271 6.01523779 -4.25 9.0625 C-4.64574219 9.60455078 -5.04148438 10.14660156 -5.44921875 10.70507812 C-7.67067302 13.65123632 -9.50047552 15.7077444 -13 17 C-11.396395 13.49367197 -9.320147 10.49450479 -7.0625 7.375 C-6.37285156 6.41335937 -5.68320313 5.45171875 -4.97265625 4.4609375 C-3 2 -3 2 0 0 Z " fill="#0F0F0F" transform="translate(139,218)"/>
<path d="M0 0 C0.66 0.66 1.32 1.32 2 2 C1.58279051 6.48500198 0.28941817 10.70193944 -1 15 C-1.33 15 -1.66 15 -2 15 C-2.22577402 9.5814234 -1.46670113 5.22512279 0 0 Z " fill="#393939" transform="translate(134,96)"/>
<path d="M0 0 C-0.99 1.485 -0.99 1.485 -2 3 C-4.97 2.67 -7.94 2.34 -11 2 C-11 1.67 -11 1.34 -11 1 C-7.27569643 0.30710631 -3.78916254 -0.11144596 0 0 Z " fill="#1F1F1F" transform="translate(162,68)"/>
<path d="M0 0 C1 3 1 3 0 6 C-2.0625 7.1875 -2.0625 7.1875 -4 8 C-3.40138258 5.64828869 -2.73075648 3.3140622 -2 1 C-1.34 0.67 -0.68 0.34 0 0 Z " fill="#1E1E1E" transform="translate(130,57)"/>
<path d="M0 0 C0 0.33 0 0.66 0 1 C-4.455 1.495 -4.455 1.495 -9 2 C-9 1.34 -9 0.68 -9 0 C-5.93109813 -1.53445094 -3.29905734 -0.54984289 0 0 Z " fill="#181818" transform="translate(164,49)"/>
<path d="M0 0 C0 3 0 3 -2 5.1875 C-2.66 5.785625 -3.32 6.38375 -4 7 C-4.99 6.67 -5.98 6.34 -7 6 C-4.69 4.02 -2.38 2.04 0 0 Z " fill="#010101" transform="translate(168,63)"/>
</svg>
