<?xml version="1.0" encoding="UTF-8"?>
<svg version="1.1" xmlns="http://www.w3.org/2000/svg" width="500" height="500">
<path d="M0 0 C0.80151966 2.57141925 1.47906407 5.09643051 2.10375977 7.7121582 C2.30417374 8.52254547 2.50458771 9.33293274 2.71107483 10.1678772 C3.37899402 12.87699203 4.03512639 15.58882533 4.69140625 18.30078125 C5.1594913 20.20869336 5.62833068 22.11642055 6.09788513 24.02397156 C7.34286307 29.08999489 8.57804409 34.15835757 9.81109619 39.22729492 C11.03085199 44.2355165 12.25865568 49.24176109 13.48632812 54.24804688 C14.92984147 60.1355576 16.37265329 66.0232314 17.81045532 71.91213989 C20.08930769 81.24125581 22.38280529 90.56622372 24.72216797 99.88037109 C24.93566234 100.73075423 25.1491567 101.58113737 25.3691206 102.4572897 C26.36959598 106.43907764 27.37346465 110.41997382 28.38197327 114.3997345 C28.73247004 115.79016173 29.08293109 117.18059797 29.43334961 118.57104492 C29.73760361 119.77162033 30.0418576 120.97219574 30.35533142 122.20915222 C31 125 31 125 31 127 C32.08474609 127.38478516 32.08474609 127.38478516 33.19140625 127.77734375 C36.15695086 129.06832492 38.36890904 130.6034052 40.9375 132.5625 C45.37857542 135.86607927 49.9024733 138.95659954 54.5625 141.9375 C55.4740686 142.52156616 55.4740686 142.52156616 56.40405273 143.11743164 C58.56920191 144.49497524 60.70300006 145.85150003 63 147 C63 147.66 63 148.32 63 149 C64.65 149.66 66.3 150.32 68 151 C67.59687369 156.96322688 65.90998027 160.29941415 62.3125 165 C61.86277832 165.6079541 61.41305664 166.2159082 60.94970703 166.84228516 C57.80727223 171.05213229 54.52551204 175.10338143 51 179 C46.82134559 178.44584153 44.27193488 177.08699868 40.875 174.625 C40.02679688 174.01914063 39.17859375 173.41328125 38.3046875 172.7890625 C37.54414063 172.19867188 36.78359375 171.60828125 36 171 C35.39800781 170.54367188 34.79601562 170.08734375 34.17578125 169.6171875 C32.43885804 167.22819678 33.05727196 165.39512408 33.3125 162.5 C33.15056553 159.09937613 32.82685409 156.89573652 30.47607422 154.34912109 C28.47194446 152.65732324 26.4228387 151.15608234 24.25 149.6875 C23.53368408 149.20152344 22.81736816 148.71554688 22.0793457 148.21484375 C17.96197341 145.54157605 17.96197341 145.54157605 13.22265625 145.359375 C12.48917969 145.57078125 11.75570312 145.7821875 11 146 C8.98046875 145.00390625 8.98046875 145.00390625 7.1875 143.5625 C6.28064453 142.85287109 6.28064453 142.85287109 5.35546875 142.12890625 C4.90816406 141.75636719 4.46085937 141.38382813 4 141 C2.515 143.475 2.515 143.475 1 146 C4.96 148.475 4.96 148.475 9 151 C8.67 152.65 8.34 154.3 8 156 C5 157 5 157 2.95703125 156.00390625 C2.24933594 155.52824219 1.54164063 155.05257812 0.8125 154.5625 C0.09707031 154.08941406 -0.61835938 153.61632812 -1.35546875 153.12890625 C-1.89816406 152.75636719 -2.44085938 152.38382813 -3 152 C-4.54166642 153.37485532 -4.54166642 153.37485532 -6 155 C-6 155.66 -6 156.32 -6 157 C-4.21034453 158.36277086 -4.21034453 158.36277086 -2 159.625 C-0.88625 160.29402344 -0.88625 160.29402344 0.25 160.9765625 C0.8275 161.31429687 1.405 161.65203125 2 162 C1.67 163.65 1.34 165.3 1 167 C2.08087891 167.38478516 2.08087891 167.38478516 3.18359375 167.77734375 C7.07517597 169.46675462 10.20296423 171.92546347 13.59765625 174.44140625 C15.85830152 175.90806879 17.3468961 176.67874734 20 177 C22.00431449 176.34641919 24.0040278 175.67863055 26 175 C31.067953 174.29772651 33.56513661 175.65243619 37.50390625 178.5546875 C38.12136719 179.03164062 38.73882812 179.50859375 39.375 180 C40.33599609 180.71542969 40.33599609 180.71542969 41.31640625 181.4453125 C42.88715731 182.61751478 44.44493174 183.80707092 46 185 C45.23053126 188.43788925 44.08591686 190.57419283 42 193.4375 C41.37996094 194.29988281 40.75992188 195.16226563 40.12109375 196.05078125 C39.42113281 197.02402344 38.72117187 197.99726563 38 199 C36.34467833 201.3684655 34.70322389 203.74640684 33.0625 206.125 C32.28265584 207.25267593 31.50271661 208.38028612 30.72265625 209.5078125 C30.15417969 210.33023438 29.58570313 211.15265625 29 212 C23.8542473 211.51040411 20.3409211 208.89636531 16.1875 206.0625 C15.49462891 205.60681641 14.80175781 205.15113281 14.08789062 204.68164062 C12.35109013 203.51293645 10.66992279 202.26241962 9 201 C9 200.34 9 199.68 9 199 C7.99259766 198.6596875 7.99259766 198.6596875 6.96484375 198.3125 C3.16065189 196.62843088 -0.04348873 194.3875878 -3.4375 192 C-4.13399658 191.51523193 -4.83049316 191.03046387 -5.5480957 190.53100586 C-7.70337581 189.02716875 -9.85261138 187.5150801 -12 186 C-12.66966797 185.52836426 -13.33933594 185.05672852 -14.02929688 184.57080078 C-15.91793679 183.23828136 -17.80370654 181.90186064 -19.6875 180.5625 C-20.25073975 180.16224609 -20.81397949 179.76199219 -21.39428711 179.34960938 C-22.93770377 178.24440656 -24.46918752 177.12259582 -26 176 C-27.31238899 175.26012848 -27.31238899 175.26012848 -28.65129089 174.50531006 C-32.29019791 170.62377772 -31.66125346 166.8597944 -31.56762695 161.72363281 C-31.56835709 160.67941666 -31.56908722 159.6352005 -31.56983948 158.55934143 C-31.56635515 155.10674148 -31.52745184 151.65548937 -31.48828125 148.203125 C-31.47895619 145.80988299 -31.47183863 143.41663143 -31.46684265 141.02337646 C-31.44774901 134.72338524 -31.39862667 128.4239701 -31.34332275 122.12420654 C-31.29218197 115.69616489 -31.26933959 109.26803018 -31.24414062 102.83984375 C-31.19051119 90.22631667 -31.10612953 77.61318897 -31 65 C-29.72458824 64.51356329 -28.44839451 64.02917654 -27.171875 63.5456543 C-26.4612793 63.27569138 -25.75068359 63.00572845 -25.01855469 62.72758484 C-22.70570344 61.89392127 -20.40843349 61.30171305 -18 60.8125 C-17.236875 60.65394531 -16.47375 60.49539062 -15.6875 60.33203125 C-15.130625 60.22246094 -14.57375 60.11289063 -14 60 C-15.84078125 59.36191406 -15.84078125 59.36191406 -17.71875 58.7109375 C-23.3887041 56.1544939 -27.89094235 53.54844412 -31 48 C-33.89538934 35.95143266 -31.99969824 22.22074555 -31 10 C-25.76326115 7.95073778 -20.52431107 5.90760202 -15.27880859 3.88085938 C-13.32678515 3.12631678 -11.37614238 2.36820403 -9.42578125 1.609375 C-8.46027344 1.24328125 -7.49476563 0.8771875 -6.5 0.5 C-5.6646875 0.1803125 -4.829375 -0.139375 -3.96875 -0.46875 C-2 -1 -2 -1 0 0 Z " fill="#000100" transform="translate(285,70)"/>
<path d="M0 0 C3.12635949 1.07943591 6.25081434 2.16429009 9.375 3.25 C10.68017578 3.70052734 10.68017578 3.70052734 12.01171875 4.16015625 C18.07978875 6.27274358 24.05446277 8.56417021 30 11 C32.71253404 44.15919444 32.71253404 44.15919444 28.33154297 51.97753906 C23.98728945 56.52923444 18.88435884 58.96025377 13 61 C14.14339844 61.27714844 15.28679687 61.55429688 16.46484375 61.83984375 C17.95577465 62.20554378 19.44665761 62.57143929 20.9375 62.9375 C21.69224609 63.11990234 22.44699219 63.30230469 23.22460938 63.49023438 C28.88671875 64.88671875 28.88671875 64.88671875 30 66 C30.11481875 67.37495947 30.16174822 68.75567097 30.18081665 70.13528442 C30.19519775 71.02685745 30.20957886 71.91843048 30.22439575 72.83702087 C30.23493988 73.82295731 30.24548401 74.80889374 30.25634766 75.82470703 C30.27095032 76.85724106 30.28555298 77.88977509 30.30059814 78.95359802 C30.42671198 88.49277937 30.49535663 98.03280807 30.54844093 107.572649 C30.58421495 113.9862245 30.63753847 120.39854702 30.73388672 126.81152344 C30.82666684 133.00494127 30.87535663 139.19724965 30.89283371 145.39132309 C30.90693771 147.75252462 30.93659892 150.1136866 30.98213577 152.47449112 C31.04284619 155.78395488 31.04686539 159.08901929 31.03759766 162.39892578 C31.06838409 163.37271683 31.09917053 164.34650787 31.13088989 165.34980774 C31.06731937 169.52963933 30.92502949 171.99916271 28.01836681 175.14403152 C25.7488962 176.9267996 23.45815101 178.49169749 21 180 C20.13963135 180.61939453 19.2792627 181.23878906 18.39282227 181.87695312 C17.70760498 182.34037109 17.0223877 182.80378906 16.31640625 183.28125 C15.53837646 183.81016846 14.76034668 184.33908691 13.95874023 184.8840332 C13.16798096 185.41730225 12.37722168 185.95057129 11.5625 186.5 C9.89806981 187.62836407 8.2340039 188.75726568 6.5703125 189.88671875 C5.78301758 190.42087402 4.99572266 190.9550293 4.18457031 191.50537109 C0.65330679 193.92137414 -2.82250824 196.41247083 -6.28515625 198.92578125 C-8 200 -8 200 -10 200 C-10 200.66 -10 201.32 -10 202 C-12.56490299 204.14620307 -15.44367254 205.87365421 -18.25 207.6875 C-19.02730469 208.21150391 -19.80460937 208.73550781 -20.60546875 209.27539062 C-21.35957031 209.76587891 -22.11367187 210.25636719 -22.890625 210.76171875 C-23.58188477 211.21506592 -24.27314453 211.66841309 -24.98535156 212.13549805 C-27 213 -27 213 -29.07714844 212.88110352 C-31.58356177 211.73259593 -32.3998306 210.45859952 -33.875 208.140625 C-34.38546875 207.35429687 -34.8959375 206.56796875 -35.421875 205.7578125 C-36.20304687 204.51644531 -36.20304687 204.51644531 -37 203.25 C-38.03958202 201.62886962 -39.08119973 200.00904259 -40.125 198.390625 C-40.61355469 197.62427734 -41.10210937 196.85792969 -41.60546875 196.06835938 C-43.07643251 193.7989805 -43.07643251 193.7989805 -45.4375 191.171875 C-47 189 -47 189 -47.125 186.98828125 C-45.39845511 183.93685295 -42.82732982 182.14433482 -40 180.1875 C-39.41347656 179.78096191 -38.82695312 179.37442383 -38.22265625 178.95556641 C-34.7235271 176.69204331 -32.18319072 175.38743216 -28 175.875 C-25.82476156 176.41031259 -23.73333698 177.08787264 -21.60546875 177.7890625 C-17.87434152 178.09113277 -16.32166703 176.6534226 -13.3125 174.5 C-12.27222656 173.7678125 -11.23195312 173.035625 -10.16015625 172.28125 C-9.11730469 171.5284375 -8.07445312 170.775625 -7 170 C-5.08455258 168.66491571 -3.16800032 167.33141416 -1.25 166 C0.16765436 165.0014007 1.5847231 164.00196594 3 163 C-1.47024329 155.85304569 -6.10293639 148.86184293 -11 142 C-13.62660807 143.62575354 -16.23388577 145.27381877 -18.82421875 146.95703125 C-20.90138934 148.29326768 -23.00814803 149.58485109 -25.14453125 150.82421875 C-30.92046399 154.28352676 -30.92046399 154.28352676 -33.8046875 160.0703125 C-34.05276252 163.27957895 -34.05276252 163.27957895 -33.875 166.36328125 C-34 169 -34 169 -35.12890625 170.58984375 C-37.70247361 172.52942166 -40.28075303 174.42410221 -42.9375 176.25 C-43.97777344 176.97703125 -45.01804688 177.7040625 -46.08984375 178.453125 C-49 180 -49 180 -51.109375 180.0390625 C-58.58854531 175.92860939 -65.34004376 164.55527945 -69 157 C-69.18359375 154.1796875 -69.18359375 154.1796875 -69 152 C-66.525 151.01 -66.525 151.01 -64 150 C-64 149.34 -64 148.68 -64 148 C-62.35577896 146.9497806 -60.65501349 145.98801122 -58.9375 145.0625 C-52.9860819 141.71217675 -47.58192808 137.88698152 -42.16577148 133.73266602 C-41.56579346 133.27819092 -40.96581543 132.82371582 -40.34765625 132.35546875 C-39.82179932 131.94965576 -39.29594238 131.54384277 -38.75415039 131.12573242 C-37 130 -37 130 -34.51426697 129.38508606 C-31.67450072 128.17701981 -31.67450072 128.17701981 -30.8223877 124.83850098 C-30.53332787 123.46751678 -30.26671844 122.09168805 -30.01757812 120.71289062 C-29.69401457 119.15431316 -29.36848442 117.59614301 -29.04125977 116.03833008 C-28.87413483 115.21382355 -28.70700989 114.38931702 -28.53482056 113.53982544 C-27.63496101 109.26645537 -26.56085114 105.03796304 -25.49804688 100.80273438 C-25.04588413 98.97881337 -24.5941112 97.15479568 -24.1427002 95.33068848 C-23.91075455 94.39622391 -23.6788089 93.46175934 -23.43983459 92.49897766 C-22.69814798 89.51074508 -21.95775335 86.52219476 -21.21765137 83.53356934 C-19.3809746 76.11791935 -17.54217463 68.7027962 -15.70343018 61.28765869 C-14.14269375 54.99329176 -12.58279126 48.69871923 -11.02394104 42.40388489 C-10.30253485 39.49215949 -9.57994946 36.58072852 -8.8572998 33.66931152 C-8.40532044 31.84534506 -7.95353319 30.02133098 -7.50195312 28.19726562 C-7.28745262 27.33165764 -7.07295212 26.46604965 -6.8519516 25.57421112 C-5.81317526 21.36437667 -4.79574552 17.15099697 -3.81811523 12.92651367 C-3.63409904 12.13187462 -3.45008286 11.33723557 -3.26049042 10.51851654 C-2.91715862 9.0270979 -2.5771553 7.53490776 -2.24103546 6.04184723 C-1.10862006 1.10862006 -1.10862006 1.10862006 0 0 Z " fill="#000100" transform="translate(216,69)"/>
<path d="M0 0 C0.92941406 0.47824219 1.85882813 0.95648438 2.81640625 1.44921875 C14.87686911 8.08167036 25.96456724 16.75344861 35.984375 26.16015625 C37.97302337 28.04834855 37.97302337 28.04834855 40.265625 29.62109375 C40.83796875 30.07613281 41.4103125 30.53117187 42 31 C42 31.66 42 32.32 42 33 C35.90144119 33.79546419 32.92379232 31.96637686 27.84375 28.71484375 C17.40478229 22.41991679 5.66164762 19.19071715 -6 16 C-5.2059375 16.97582031 -4.411875 17.95164062 -3.59375 18.95703125 C-2.56211855 20.24188132 -1.53088935 21.52705444 -0.5 22.8125 C0.02464844 23.45509766 0.54929687 24.09769531 1.08984375 24.75976562 C1.83427734 25.69272461 1.83427734 25.69272461 2.59375 26.64453125 C3.05458984 27.21534424 3.51542969 27.78615723 3.99023438 28.37426758 C5 30 5 30 5 33 C5.66 33 6.32 33 7 33 C9.58108869 36.49910478 11.73666073 40.28945219 14 44 C14.52207031 44.80179688 15.04414063 45.60359375 15.58203125 46.4296875 C27.30792507 64.80747359 32.37252583 87.61905976 35 109 C35.19722656 110.58748047 35.19722656 110.58748047 35.3984375 112.20703125 C37.79035565 134.80096079 34.20203934 157.59206192 27 179 C26.76941895 179.7130127 26.53883789 180.42602539 26.30126953 181.16064453 C21.2135436 196.76374302 13.14666171 211.12154476 3 224 C2.34257812 224.85980469 1.68515625 225.71960938 1.0078125 226.60546875 C-3.29807829 232.14281079 -7.92115069 237.16428709 -13 242 C-12.58402437 243.39603943 -12.16715317 244.79181199 -11.75 246.1875 C-11.34394531 247.55455078 -11.34394531 247.55455078 -10.9296875 248.94921875 C-10.29179164 251.04248205 -9.62895291 253.12825801 -8.9453125 255.20703125 C-6.78253246 261.86113188 -5.27702675 268.00507465 -5 275 C-4.9484375 275.73992187 -4.896875 276.47984375 -4.84375 277.2421875 C-4.01602188 297.72845853 -11.70785007 317.9663444 -24.71484375 333.5546875 C-34.11366095 343.61222522 -46.73772248 353.34351095 -61.04296875 354.109375 C-62.695662 354.12257016 -64.34868689 354.06880471 -66 354 C-63.27727243 350.42642006 -60.75133534 347.70222853 -57.0625 345.125 C-52.7320765 341.99702055 -49.96385062 338.40135855 -47 334 C-46.49597656 333.28714844 -45.99195313 332.57429688 -45.47265625 331.83984375 C-32.70507654 313.41944249 -26.7461577 291.04466758 -30.2109375 268.80078125 C-32.50831198 257.73471508 -36.17689287 245.64565365 -43.7421875 237.01171875 C-45 235 -45 235 -45.1484375 232.60546875 C-43.36956086 228.56971802 -40.18424123 226.77299617 -36.625 224.3125 C-35.14963006 223.243318 -33.67698098 222.17037175 -32.20703125 221.09375 C-31.48467285 220.56652344 -30.76231445 220.03929687 -30.01806641 219.49609375 C-16.31783917 209.3394288 -5.4064074 195.32276416 2 180 C2.42410156 179.19691406 2.84820312 178.39382812 3.28515625 177.56640625 C9.08622938 166.47872825 12.79560595 155.35116178 14.68701172 143.00878906 C14.98396022 141.10294486 15.32094544 139.20346515 15.66015625 137.3046875 C20.50076575 106.59406566 14.51764326 73.0964864 -3.296875 47.33203125 C-3.85890625 46.56246094 -4.4209375 45.79289062 -5 45 C-5.62390625 44.09636719 -6.2478125 43.19273438 -6.890625 42.26171875 C-20.12808386 23.42179206 -38.29107041 8.14410321 -59 -2 C-58.875 -3.8125 -58.875 -3.8125 -58 -6 C-41.73860829 -15.75683503 -15.59827158 -8.13924848 0 0 Z " fill="#000100" transform="translate(364,61)"/>
<path d="M0 0 C0.99 0.99 0.99 0.99 2 2 C1.88671875 3.9921875 1.88671875 3.9921875 1 6 C-0.79296875 7.1328125 -0.79296875 7.1328125 -3.1875 8.125 C-13.5684073 12.96645319 -22.57640473 20.27417922 -30.90234375 28.05859375 C-33 30 -33 30 -36.0625 32.375 C-59.22538645 53.07374959 -71.69657986 85.53518221 -73.70922852 115.88525391 C-74.71553479 135.17254391 -72.7619515 153.86180934 -66 172 C-65.69320312 172.90363281 -65.38640625 173.80726563 -65.0703125 174.73828125 C-62.843316 180.91671845 -59.51472105 186.31187305 -56 191.82421875 C-54.64645116 193.97350627 -53.36085241 196.16684717 -52.140625 198.39453125 C-49.75931275 202.59838293 -46.8027845 206.26802457 -43.75 210 C-43.21503906 210.67289063 -42.68007812 211.34578125 -42.12890625 212.0390625 C-35.75152865 219.88581213 -28.0343383 225.87345436 -20 231.9375 C-19.22527344 232.52595703 -18.45054687 233.11441406 -17.65234375 233.72070312 C-15.77018556 235.14974916 -13.88607452 236.57612937 -12 238 C-12.57092449 242.51702024 -14.3674235 245.53242361 -16.75 249.375 C-26.93871004 266.56987406 -30.54145182 286.52716669 -25.8359375 306.0546875 C-20.13506484 328.02361331 -9.95882027 343.43051814 7.20703125 358.328125 C7.79871094 358.87984375 8.39039063 359.4315625 9 360 C9 360.33 9 360.66 9 361 C-3.85520662 362.19583317 -15.09889902 355.44420188 -24.8125 347.78125 C-41.78283873 333.26218242 -49.71807274 313.99207401 -52 292 C-52.90874876 279.67509492 -50.49090679 268.04727801 -45.85693359 256.68530273 C-44.27074175 252.81026562 -44.27074175 252.81026562 -44.578125 248.75 C-46.25371061 246.68774078 -48.04126755 244.92283657 -50 243.125 C-55.89642606 237.36129093 -60.41614077 230.814539 -65 224 C-65.6290625 223.07058594 -66.258125 222.14117187 -66.90625 221.18359375 C-68.67152932 218.49154279 -70.34820595 215.76306968 -72 213 C-72.63550781 211.96488281 -73.27101563 210.92976562 -73.92578125 209.86328125 C-94.33898642 175.15236638 -97.20891832 130.3500981 -87.875 91.875 C-83.2807436 74.23505917 -76.3748825 57.98376225 -66 43 C-65.34 42.01 -64.68 41.02 -64 40 C-63.34 40 -62.68 40 -62 40 C-61.91621094 39.44441406 -61.83242187 38.88882813 -61.74609375 38.31640625 C-60.76490149 35.27008683 -59.10756914 33.38936409 -57.0625 30.9375 C-54.90342927 28.33172498 -52.8787808 25.8181712 -51 23 C-71.700466 28.40259936 -71.700466 28.40259936 -90.234375 38.7265625 C-93.00992339 40.72839608 -95.69491179 40.19067817 -99 40 C-97.48318506 36.18653872 -95.25546974 34.32747903 -92.0625 31.8125 C-88.21871055 28.76242811 -84.43132938 25.67170115 -80.6875 22.5 C-61.07540656 6.55475689 -25.34067215 -12.64134217 0 0 Z " fill="#000100" transform="translate(193,54)"/>
<path d="M0 0 C0.73347656 0.36996094 1.46695313 0.73992187 2.22265625 1.12109375 C10.46510474 5.43318087 17.75206852 11.11125504 24 18 C24 18.66 24 19.32 24 20 C24.66 20 25.32 20 26 20 C37.65275102 39.62044402 43.565226 58.94082479 38.9375 81.9375 C33.63077635 101.21192079 20.01952749 117.13708032 3.28125 127.71875 C-10.00221834 134.61270192 -23.27837353 135.35823193 -38 135 C-39.28197266 134.97486328 -39.28197266 134.97486328 -40.58984375 134.94921875 C-53.40360315 134.20299316 -64.28961662 129.16235125 -74 121 C-74.72832031 120.40960938 -75.45664063 119.81921875 -76.20703125 119.2109375 C-84.1798136 112.53392284 -89.97226967 105.07622249 -95 96 C-95.3815625 95.35417969 -95.763125 94.70835937 -96.15625 94.04296875 C-101.35685097 84.68582685 -102.26461883 74.74242189 -102.3125 64.25 C-102.31797852 63.37512939 -102.32345703 62.50025879 -102.32910156 61.59887695 C-102.16614876 46.73505266 -96.62803596 32.06186388 -88 20 C-87.34 20 -86.68 20 -86 20 C-85.73058594 19.40832031 -85.46117187 18.81664062 -85.18359375 18.20703125 C-79.02905926 6.73075406 -63.46143026 -0.57664368 -51.47265625 -4.33984375 C-34.65882924 -8.82884338 -15.56128579 -8.46315543 0 0 Z M-62.046875 14.29296875 C-68.65917694 23.18001559 -72.99793876 33.85892063 -71.62890625 45.02734375 C-70.06521669 53.19543641 -66.99852575 60.3152246 -62 67 C-61.34 67 -60.68 67 -60 67 C-60 67.66 -60 68.32 -60 69 C-59.34 69 -58.68 69 -58 69 C-58 69.66 -58 70.32 -58 71 C-49.6223708 78.11009192 -39.86823288 81 -29 81 C-19.84472038 80.12153239 -11.27906169 76.59927822 -4 71 C-4 70.34 -4 69.68 -4 69 C-3.34 69 -2.68 69 -2 69 C-2 68.34 -2 67.68 -2 67 C-1.34 67 -0.68 67 0 67 C7.00133778 57.63676513 10.90509579 47.15724242 9.5625 35.4375 C7.35823105 24.25387777 1.77278362 13.68447752 -7.8125 7.25 C-15.03504197 2.72196044 -22.62361112 1.50901923 -31 1.625 C-31.83789062 1.61339844 -32.67578125 1.60179687 -33.5390625 1.58984375 C-44.78862978 1.64208632 -54.48672032 5.82386418 -62.046875 14.29296875 Z M-77.69921875 20.6953125 C-90.99132033 36.93831286 -95.4369798 53.36813403 -94 74 C-92.63628714 84.89741721 -87.40974625 96.85992969 -80 105 C-79.34 105 -78.68 105 -78 105 C-77.77828125 105.73347656 -77.5565625 106.46695313 -77.328125 107.22265625 C-73.28126164 115.68536168 -61.73052969 120.38977945 -53.51953125 123.80859375 C-36.44109441 129.5898626 -18.0110668 128.61214707 -1.8125 120.75 C8.3177666 115.81263256 8.3177666 115.81263256 15.046875 107.3515625 C15.51867187 106.18753906 15.51867187 106.18753906 16 105 C16.99 104.67 17.98 104.34 19 104 C30.68382799 89.74129997 33.52980074 71.81629477 32 54 C29.82190139 40.88411883 23.26089827 28.476268 14 19 C13.34 19 12.68 19 12 19 C12.28875 20.03898437 12.5775 21.07796875 12.875 22.1484375 C16.84829746 36.86572935 17.48853145 49.62173615 10.375 63.75 C3.30885162 75.60734167 -6.58872153 81.81316844 -19.44921875 86.16796875 C-32.54957283 89.23768868 -44.65237435 86.70095895 -56.25 80.25 C-67.34767132 73.07646526 -74.51661015 62.69995918 -77.4375 49.75 C-78.83614677 40.2081209 -77.61576563 32.24327543 -75 23 C-74.66146295 21.6679784 -74.32588362 20.33517368 -74 19 C-76.16407627 18.76456913 -76.16407627 18.76456913 -77.69921875 20.6953125 Z " fill="#000100" transform="translate(281,279)"/>
<path d="M0 0 C4.63741957 0.51911413 7.79554446 2.59413744 11.5 5.25 C12.05558594 5.63285156 12.61117188 6.01570313 13.18359375 6.41015625 C16.83531631 8.97925048 19.89048546 11.81063388 23 15 C24.24094062 16.14635049 25.4889477 17.28507729 26.7421875 18.41796875 C39.13650215 29.68200768 51.71926477 42.73039993 53.20483398 60.44213867 C53.30457539 63.21484826 53.327617 65.97555834 53.3125 68.75 C53.31121094 69.72340332 53.30992187 70.69680664 53.30859375 71.69970703 C53.21790523 78.47300555 52.5489688 84.65792287 50 91 C48.68 91.33 47.36 91.66 46 92 C45.401875 91.195625 44.80375 90.39125 44.1875 89.5625 C40.87070853 85.55785121 36.82008695 82.52985499 32.7734375 79.296875 C29.59958434 76.66838816 26.74960053 73.840555 23.8828125 70.88671875 C22.05269135 69.05280067 20.15882814 67.36751852 18.1875 65.6875 C14.84553846 62.82202907 11.76722514 59.77034429 8.6875 56.625 C3.45667683 51.30887195 -2.14631034 46.61250618 -8 42 C-9.89637861 40.47984664 -11.79223951 38.95904715 -13.6875 37.4375 C-15.12449468 36.29103301 -16.56179506 35.1449484 -18 34 C-17.36535639 30.56038831 -16.02407658 28.31294049 -14.0625 25.4375 C-8.74787881 17.31055843 -4.43532963 8.62775618 0 0 Z " fill="#000100" transform="translate(392,255)"/>
<path d="M0 0 C0.46148437 0.98097656 0.92296875 1.96195312 1.3984375 2.97265625 C5.33306508 11.16289688 9.55616964 18.7841699 14.93701172 26.12524414 C17.95224936 30.36875978 17.95224936 30.36875978 18.16015625 33.1171875 C16.33605773 36.077509 13.64294548 37.86306215 10.875 39.875 C0.37187722 47.80623574 -9.03096847 56.91971156 -18.2578125 66.28515625 C-20.67417344 68.66359225 -23.2230218 70.868072 -25.79296875 73.078125 C-28.44269945 75.38550112 -31.0325176 77.7535276 -33.625 80.125 C-36.57427483 82.8203095 -39.52406986 85.48049426 -42.625 88 C-45.05363734 89.77719875 -45.05363734 89.77719875 -46 92 C-47.32 91.67 -48.64 91.34 -50 91 C-54.97813699 78.61392105 -55.41506754 61.05467486 -50.3203125 48.65625 C-43.97915026 35.89888218 -36.08184357 26.44382782 -25.359375 17.10546875 C-22.94603649 15.00288144 -22.94603649 15.00288144 -20.64453125 12.5703125 C-17.59967153 9.61090674 -14.38363101 7.15424277 -10.9375 4.6875 C-10.32583984 4.23310547 -9.71417969 3.77871094 -9.08398438 3.31054688 C-5.69296892 0.87268171 -4.29510581 0 0 0 Z " fill="#000100" transform="translate(108,255)"/>
<path d="M0 0 C4.49401638 0.88082235 7.25711644 3.42439653 10.625 6.375 C11.24383057 6.91302246 11.86266113 7.45104492 12.50024414 8.00537109 C18.12012595 12.96995155 23.21379991 18.21524018 28 24 C28.63421875 24.763125 29.2684375 25.52625 29.921875 26.3125 C42.36014743 42.60333469 46.0689378 62.78721981 43.4296875 82.76953125 C43.19262915 84.30631775 42.94551648 85.84159304 42.6875 87.375 C42.56995361 88.09437744 42.45240723 88.81375488 42.33129883 89.55493164 C41.64401291 93.20830643 41.07978274 95.73976729 38 98 C33.10586258 96.81354244 30.97244083 93.86116231 27.8984375 90.15625 C25.99666544 87.99621259 24.00608703 86.17174849 21.8125 84.3125 C18.80284037 81.76007712 16.40101576 79.14615858 14 76 C12.33909033 74.32759615 10.67142175 72.66189798 9 71 C7.08059455 69.02154105 5.19265106 67.01572658 3.3125 65 C2.58450195 64.23816406 2.58450195 64.23816406 1.84179688 63.4609375 C-1.55330261 59.80827875 -4.02744142 56.76243626 -3.9765625 51.640625 C-3.86054688 50.85171875 -3.74453125 50.0628125 -3.625 49.25 C-2.31119819 38.38710209 -2.95914105 28.36524742 -8.25 18.5 C-10 15 -10 15 -9.89453125 13.140625 C-8.59883261 10.04000117 -6.60073263 7.80931748 -4.4375 5.25 C-3.19806641 3.77273438 -3.19806641 3.77273438 -1.93359375 2.265625 C-1.29550781 1.51796875 -0.65742188 0.7703125 0 0 Z " fill="#000100" transform="translate(369,293)"/>
<path d="M0 0 C2.85721944 1.69100742 4.62756945 3.88515135 6.7265625 6.4453125 C7.94279297 7.89357422 7.94279297 7.89357422 9.18359375 9.37109375 C10.9140625 12.1328125 10.9140625 12.1328125 10.83203125 14.08984375 C10.52910156 14.76402344 10.22617188 15.43820312 9.9140625 16.1328125 C9.34171875 17.62941406 9.34171875 17.62941406 8.7578125 19.15625 C7.86377788 21.38613867 6.96795121 23.61530971 6.0703125 25.84375 C4.50886385 30.2854384 3.77062541 34.55635438 3.7890625 39.2578125 C3.78777344 40.02222656 3.78648437 40.78664063 3.78515625 41.57421875 C3.87202121 44.21091041 3.87202121 44.21091041 4.38671875 47.09765625 C5.56376468 54.94133209 5.56376468 54.94133209 3.73828125 58.2890625 C2.0390625 60.1953125 2.0390625 60.1953125 0.0859375 62.05859375 C-2.45450103 64.48480393 -4.53868597 67.12376148 -6.7109375 69.8828125 C-9.57649112 73.50354812 -12.44888957 76.29867136 -16.0859375 79.1328125 C-17.27622506 80.58045954 -18.4654913 82.02907687 -19.63671875 83.4921875 C-21.91767382 86.07440079 -24.53759454 88.23148857 -27.1640625 90.453125 C-28.84179004 91.91943159 -30.33407257 93.429386 -31.8359375 95.0703125 C-34.0859375 97.1328125 -34.0859375 97.1328125 -38.0859375 97.1328125 C-43.78612147 91.43262853 -43.40858224 77.156238 -43.4609375 69.3828125 C-43.23300734 50.96438308 -36.46442575 34.60228616 -24.0859375 21.1328125 C-23.03792969 19.89144531 -23.03792969 19.89144531 -21.96875 18.625 C-17.73496253 13.6778271 -13.16925875 9.2247041 -8.2734375 4.9453125 C-7.72204102 4.45095703 -7.17064453 3.95660156 -6.60253906 3.44726562 C-2.74882074 0.17501855 -2.74882074 0.17501855 0 0 Z " fill="#000100" transform="translate(130.0859375,292.8671875)"/>
<path d="M0 0 C18.22834532 1.59747627 36.39743709 14.75496902 48 28 C57.51747181 39.44974471 59.86315843 54.48689427 59 69 C58 72.75 58 72.75 57 75 C44.47711998 70.58015999 33.02223227 59.66072647 22.73828125 51.37890625 C21.6178282 50.48097078 20.49672537 49.58384555 19.375 48.6875 C18.81603027 48.23955078 18.25706055 47.79160156 17.68115234 47.33007812 C14.19549335 44.58479588 10.62365598 42.04291666 6.92578125 39.58984375 C6.05840332 39.01339111 5.19102539 38.43693848 4.29736328 37.84301758 C2.58476722 36.71565196 0.8632626 35.60168092 -0.86767578 34.50268555 C-2.04112549 33.73178589 -2.04112549 33.73178589 -3.23828125 32.9453125 C-3.93993408 32.49687988 -4.64158691 32.04844727 -5.36450195 31.58642578 C-7.57641201 29.44088293 -7.79712241 28.05460541 -8 25 C-7.48681641 22.24511719 -7.48681641 22.24511719 -6.6015625 19.296875 C-6.28703125 18.2346875 -5.9725 17.1725 -5.6484375 16.078125 C-5.31070312 14.97984375 -4.97296875 13.8815625 -4.625 12.75 C-4.295 11.63625 -3.965 10.5225 -3.625 9.375 C-1.16071429 1.16071429 -1.16071429 1.16071429 0 0 Z " fill="#000100" transform="translate(404,220)"/>
<path d="M0 0 C1.20613503 3.89031093 2.38658951 7.78795683 3.5625 11.6875 C4.07586914 13.34168945 4.07586914 13.34168945 4.59960938 15.02929688 C5.07817383 16.6293457 5.07817383 16.6293457 5.56640625 18.26171875 C5.86490479 19.24100342 6.16340332 20.22028809 6.47094727 21.22924805 C7.05417411 24.28372032 7.0441085 26.07373645 6 29 C4.31689453 30.61816406 4.31689453 30.61816406 2.1328125 32.015625 C1.33528564 32.53970947 0.53775879 33.06379395 -0.28393555 33.60375977 C-1.13898682 34.14701904 -1.99403809 34.69027832 -2.875 35.25 C-4.63140413 36.40637113 -6.38532862 37.5665176 -8.13671875 38.73046875 C-9.40588135 39.57230713 -9.40588135 39.57230713 -10.70068359 40.43115234 C-14.39821665 42.95401786 -17.78163661 45.79632583 -21.1953125 48.68359375 C-30.3914442 56.27872759 -40.15280419 63.27919525 -50 70 C-50.92425781 70.64775391 -50.92425781 70.64775391 -51.8671875 71.30859375 C-55.7599481 74 -55.7599481 74 -58 74 C-62.78148478 63.24165925 -59.89042631 49.26983082 -56.15625 38.5859375 C-47.96082223 20.85272742 -31.22873322 9.84834368 -13.9375 2.375 C-13.12821045 2.01986328 -12.3189209 1.66472656 -11.48510742 1.29882812 C-10.71529541 0.98107422 -9.9454834 0.66332031 -9.15234375 0.3359375 C-8.47163818 0.05282715 -7.79093262 -0.2302832 -7.08959961 -0.52197266 C-4.47070625 -1.12108391 -2.57474239 -0.67054967 0 0 Z " fill="#000100" transform="translate(97,221)"/>
<path d="M0 0 C15.23082836 1.30945563 28.71789123 4.22987747 42 12 C42.70511719 12.38800781 43.41023438 12.77601563 44.13671875 13.17578125 C53.16213435 18.75328527 60.28915086 30.93267032 62.74609375 41.08203125 C65.04104223 53.91791553 65.04104223 53.91791553 63 58 C58.76804266 57.44842688 55.45602156 56.47205145 51.6484375 54.55859375 C50.64200195 54.06109619 49.63556641 53.56359863 48.59863281 53.05102539 C47.53483398 52.51856201 46.47103516 51.98609863 45.375 51.4375 C33.13136182 45.43083324 20.72601432 40.16184378 7.91015625 35.5078125 C6.72292969 35.07210937 5.53570312 34.63640625 4.3125 34.1875 C3.29800781 33.83042969 2.28351563 33.47335938 1.23828125 33.10546875 C0.49964844 32.74066406 -0.23898437 32.37585938 -1 32 C-2.20909947 28.3727016 -1.63555354 26.7800897 -1 23 C-0.73004456 19.04504303 -0.58628692 15.08614693 -0.4375 11.125 C-0.39431641 10.05507812 -0.35113281 8.98515625 -0.30664062 7.8828125 C-0.20107183 5.25532246 -0.09896209 2.62774578 0 0 Z " fill="#000100" transform="translate(406,182)"/>
<path d="M0 0 C0.02505615 0.65484375 0.0501123 1.3096875 0.07592773 1.984375 C0.19292655 4.98973236 0.31517635 7.99485485 0.4375 11 C0.47681641 12.02996094 0.51613281 13.05992187 0.55664062 14.12109375 C0.79185439 19.80241075 1.19481377 25.37046268 2 31 C-4.04045404 34.1862512 -10.11850663 36.57365204 -16.5625 38.8125 C-24.98979487 41.81110928 -33.06389812 45.11936468 -41.09033203 49.06298828 C-44.79717911 50.88181711 -48.5231443 52.66014318 -52.25 54.4375 C-52.97807861 54.79199219 -53.70615723 55.14648438 -54.45629883 55.51171875 C-59.66181776 58 -59.66181776 58 -63 58 C-65.74247938 52.51504124 -63.56692516 43.05669035 -61.875 37.3125 C-58.10692349 27.381855 -51.42142804 18.07507379 -42.4375 12.4375 C-41.81327148 12.04473877 -41.18904297 11.65197754 -40.54589844 11.24731445 C-29.14161335 4.2632836 -13.50633036 -0.60123569 0 0 Z " fill="#000100" transform="translate(94,182)"/>
<path d="M0 0 C16.13002343 -1.04064667 33.06195694 3.8939427 45.9375 13.75 C53.04833686 20.52051973 58.32708276 30.63086821 61 40 C60.546875 42.16430664 60.546875 42.16430664 60 44 C52.14087611 43.31253884 44.57926354 41.72823293 36.875 40.0625 C27.75430258 38.11946704 18.7405368 36.32969161 9.45703125 35.421875 C7 35 7 35 5 33 C4.52929688 30.8203125 4.52929688 30.8203125 4.21875 28.125 C4.09886719 27.13886719 3.97898437 26.15273437 3.85546875 25.13671875 C3.73816406 24.10160156 3.62085938 23.06648438 3.5 22 C2.63371544 14.58422335 1.59046058 7.29835719 0 0 Z " fill="#000100" transform="translate(400,142)"/>
<path d="M0 0 C-0.12697266 0.58265625 -0.25394531 1.1653125 -0.38476562 1.765625 C-2.01021997 9.50936254 -2.96504194 17.27943605 -3.85546875 25.13671875 C-3.97535156 26.12285156 -4.09523437 27.10898438 -4.21875 28.125 C-4.32123047 29.01445312 -4.42371094 29.90390625 -4.52929688 30.8203125 C-5 33 -5 33 -7 35 C-9.88193373 35.52261482 -12.72258764 35.94488143 -15.625 36.3125 C-24.74528083 37.56033513 -33.70004421 39.30522638 -42.68798828 41.28637695 C-48.46062316 42.54178588 -54.11599777 43.45462389 -60 44 C-61.77221263 38.05122021 -58.62311008 33.35605481 -56 28 C-49.03281487 15.23783387 -39.72585834 7.65617534 -25.76220703 3.30224609 C-17.20293201 0.96298705 -8.90140198 -0.574284 0 0 Z " fill="#000100" transform="translate(100,142)"/>
<path d="M0 0 C20.13317181 1.88887373 38.02954964 14.48367805 50.98046875 29.44140625 C54.05628014 33.33822725 57.13301093 37.37311404 59 42 C58.6484375 44.2890625 58.6484375 44.2890625 58 46 C42.82134793 44.18934861 42.82134793 44.18934861 35.875 42.9375 C29.28703763 41.7850603 22.67116071 41.37500608 16 41 C15.64808594 39.93523437 15.29617188 38.87046875 14.93359375 37.7734375 C9.62988879 21.62351171 9.62988879 21.62351171 0.7734375 7.28515625 C-1 5 -1 5 -0.75 2.1875 C-0.5025 1.465625 -0.255 0.74375 0 0 Z " fill="#000100" transform="translate(382,95)"/>
<path d="M0 0 C-0.57039114 3.83655948 -1.66260658 6.43267263 -3.75 9.6875 C-9.73751379 19.40470615 -13.60317962 29.1590839 -17 40 C-17.58265625 40.04487549 -18.1653125 40.08975098 -18.765625 40.13598633 C-29.92999497 41.01697975 -40.84119498 42.08865912 -51.78515625 44.51171875 C-54.91489646 44.98707419 -56.97909903 44.85087759 -60 44 C-58.78843794 33.63441345 -48.3329682 23.04060787 -40.46386719 16.77734375 C-33.11054607 11.08499811 -25.74756151 6.29908034 -17 3 C-15.95328125 2.5978125 -14.9065625 2.195625 -13.828125 1.78125 C-5.00856164 -1.40239726 -5.00856164 -1.40239726 0 0 Z " fill="#000100" transform="translate(119,96)"/>
</svg>
