<?xml version="1.0" encoding="UTF-8"?>
<svg xmlns="http://www.w3.org/2000/svg" xmlns:xlink="http://www.w3.org/1999/xlink" width="250px" height="250px" viewBox="0 0 250 250" version="1.1">
<g id="surface1">
<path style=" stroke:none;fill-rule:nonzero;fill:rgb(0%,0.392157%,0%);fill-opacity:1;" d="M 142.5 35 C 142.902344 36.285156 143.238281 37.546875 143.550781 38.855469 C 143.652344 39.261719 143.753906 39.667969 143.855469 40.082031 C 144.191406 41.4375 144.515625 42.792969 144.84375 44.148438 C 145.078125 45.105469 145.3125 46.058594 145.550781 47.011719 C 146.171875 49.546875 146.789062 52.078125 147.40625 54.613281 C 148.015625 57.117188 148.628906 59.621094 149.242188 62.125 C 149.964844 65.066406 150.6875 68.011719 151.40625 70.957031 C 152.542969 75.621094 153.691406 80.28125 154.859375 84.941406 C 154.96875 85.367188 155.074219 85.789062 155.183594 86.230469 C 155.683594 88.21875 156.1875 90.210938 156.691406 92.199219 C 156.867188 92.894531 157.042969 93.589844 157.214844 94.285156 C 157.367188 94.886719 157.519531 95.484375 157.675781 96.105469 C 158 97.5 158 97.5 158 98.5 C 158.542969 98.691406 158.542969 98.691406 159.09375 98.890625 C 160.578125 99.535156 161.683594 100.300781 162.96875 101.28125 C 165.1875 102.933594 167.453125 104.476562 169.78125 105.96875 C 170.238281 106.261719 170.238281 106.261719 170.703125 106.558594 C 171.785156 107.246094 172.851562 107.925781 174 108.5 C 174 108.828125 174 109.160156 174 109.5 C 174.824219 109.828125 175.648438 110.160156 176.5 110.5 C 176.296875 113.480469 175.453125 115.148438 173.65625 117.5 C 173.429688 117.804688 173.207031 118.109375 172.976562 118.421875 C 171.402344 120.527344 169.761719 122.550781 168 124.5 C 165.910156 124.222656 164.636719 123.542969 162.9375 122.3125 C 162.511719 122.007812 162.089844 121.707031 161.652344 121.394531 C 161.273438 121.097656 160.890625 120.804688 160.5 120.5 C 160.199219 120.273438 159.898438 120.042969 159.585938 119.808594 C 158.71875 118.613281 159.027344 117.699219 159.15625 116.25 C 159.074219 114.550781 158.914062 113.449219 157.738281 112.175781 C 156.734375 111.328125 155.710938 110.578125 154.625 109.84375 C 154.265625 109.601562 153.910156 109.359375 153.539062 109.105469 C 151.480469 107.769531 151.480469 107.769531 149.109375 107.679688 C 148.746094 107.785156 148.378906 107.890625 148 108 C 146.992188 107.5 146.992188 107.5 146.09375 106.78125 C 145.640625 106.425781 145.640625 106.425781 145.179688 106.066406 C 144.953125 105.878906 144.730469 105.691406 144.5 105.5 C 143.757812 106.738281 143.757812 106.738281 143 108 C 144.980469 109.238281 144.980469 109.238281 147 110.5 C 146.835938 111.324219 146.671875 112.148438 146.5 113 C 145 113.5 145 113.5 143.976562 113 C 143.625 112.765625 143.269531 112.527344 142.90625 112.28125 C 142.546875 112.042969 142.191406 111.808594 141.820312 111.566406 C 141.550781 111.378906 141.28125 111.191406 141 111 C 140.230469 111.6875 140.230469 111.6875 139.5 112.5 C 139.5 112.828125 139.5 113.160156 139.5 113.5 C 140.394531 114.179688 140.394531 114.179688 141.5 114.8125 C 142.058594 115.148438 142.058594 115.148438 142.625 115.488281 C 142.914062 115.65625 143.203125 115.824219 143.5 116 C 143.335938 116.824219 143.171875 117.648438 143 118.5 C 143.539062 118.691406 143.539062 118.691406 144.09375 118.890625 C 146.039062 119.734375 147.601562 120.960938 149.296875 122.222656 C 150.429688 122.953125 151.171875 123.339844 152.5 123.5 C 153.503906 123.171875 154.503906 122.839844 155.5 122.5 C 158.035156 122.148438 159.28125 122.828125 161.25 124.277344 C 161.5625 124.515625 161.871094 124.753906 162.1875 125 C 162.667969 125.359375 162.667969 125.359375 163.15625 125.722656 C 163.945312 126.308594 164.722656 126.902344 165.5 127.5 C 165.117188 129.21875 164.542969 130.285156 163.5 131.71875 C 163.191406 132.148438 162.878906 132.582031 162.5625 133.023438 C 162.210938 133.511719 161.859375 134 161.5 134.5 C 160.671875 135.683594 159.851562 136.875 159.03125 138.0625 C 158.640625 138.625 158.25 139.191406 157.859375 139.753906 C 157.578125 140.164062 157.292969 140.578125 157 141 C 154.425781 140.753906 152.671875 139.449219 150.59375 138.03125 C 150.246094 137.804688 149.902344 137.574219 149.542969 137.339844 C 148.675781 136.757812 147.835938 136.132812 147 135.5 C 147 135.171875 147 134.839844 147 134.5 C 146.496094 134.328125 146.496094 134.328125 145.984375 134.15625 C 144.082031 133.3125 142.476562 132.195312 140.78125 131 C 140.433594 130.757812 140.085938 130.515625 139.726562 130.265625 C 138.648438 129.511719 137.574219 128.757812 136.5 128 C 136.164062 127.765625 135.832031 127.527344 135.484375 127.285156 C 134.542969 126.621094 133.597656 125.949219 132.65625 125.28125 C 132.375 125.082031 132.09375 124.882812 131.804688 124.675781 C 131.03125 124.121094 130.265625 123.5625 129.5 123 C 128.84375 122.628906 128.84375 122.628906 128.175781 122.253906 C 126.355469 120.3125 126.667969 118.429688 126.714844 115.863281 C 126.714844 115.339844 126.714844 114.816406 126.714844 114.28125 C 126.71875 112.554688 126.734375 110.828125 126.757812 109.101562 C 126.761719 107.90625 126.765625 106.707031 126.765625 105.511719 C 126.777344 102.363281 126.800781 99.210938 126.828125 96.0625 C 126.855469 92.847656 126.867188 89.632812 126.878906 86.421875 C 126.90625 80.113281 126.945312 73.804688 127 67.5 C 127.636719 67.257812 128.277344 67.015625 128.914062 66.773438 C 129.269531 66.636719 129.625 66.503906 129.992188 66.363281 C 131.148438 65.945312 132.296875 65.652344 133.5 65.40625 C 133.882812 65.328125 134.261719 65.246094 134.65625 65.164062 C 134.933594 65.109375 135.214844 65.054688 135.5 65 C 134.578125 64.679688 134.578125 64.679688 133.640625 64.355469 C 130.804688 63.078125 128.554688 61.773438 127 59 C 125.550781 52.976562 126.5 46.109375 127 40 C 129.617188 38.976562 132.238281 37.953125 134.859375 36.941406 C 135.835938 36.5625 136.8125 36.183594 137.789062 35.804688 C 138.269531 35.621094 138.753906 35.4375 139.25 35.25 C 139.667969 35.089844 140.085938 34.929688 140.515625 34.765625 C 141.5 34.5 141.5 34.5 142.5 35 Z M 142.5 35 "/>
<path style=" stroke:none;fill-rule:nonzero;fill:rgb(0%,0.392157%,0%);fill-opacity:1;" d="M 108 34.5 C 109.5625 35.039062 111.125 35.582031 112.6875 36.125 C 113.339844 36.351562 113.339844 36.351562 114.007812 36.578125 C 117.039062 37.636719 120.027344 38.78125 123 40 C 124.355469 56.578125 124.355469 56.578125 122.164062 60.488281 C 119.992188 62.765625 117.441406 63.980469 114.5 65 C 115.070312 65.136719 115.644531 65.277344 116.234375 65.421875 C 116.976562 65.601562 117.722656 65.785156 118.46875 65.96875 C 118.847656 66.058594 119.222656 66.152344 119.613281 66.246094 C 122.445312 66.945312 122.445312 66.945312 123 67.5 C 123.058594 68.1875 123.082031 68.878906 123.089844 69.566406 C 123.097656 70.011719 123.105469 70.460938 123.113281 70.917969 C 123.117188 71.410156 123.121094 71.90625 123.128906 72.414062 C 123.136719 72.929688 123.144531 73.445312 123.148438 73.976562 C 123.214844 78.746094 123.246094 83.515625 123.273438 88.285156 C 123.292969 91.492188 123.320312 94.699219 123.367188 97.90625 C 123.414062 101.003906 123.4375 104.097656 123.445312 107.195312 C 123.453125 108.375 123.46875 109.558594 123.492188 110.738281 C 123.519531 112.390625 123.523438 114.042969 123.519531 115.699219 C 123.535156 116.1875 123.550781 116.671875 123.566406 117.175781 C 123.535156 119.265625 123.460938 120.5 122.007812 122.070312 C 120.875 122.964844 119.730469 123.746094 118.5 124.5 C 118.070312 124.808594 117.640625 125.121094 117.195312 125.4375 C 116.855469 125.671875 116.511719 125.902344 116.15625 126.140625 C 115.769531 126.40625 115.378906 126.667969 114.980469 126.941406 C 114.585938 127.207031 114.1875 127.476562 113.78125 127.75 C 112.949219 128.3125 112.117188 128.878906 111.285156 129.445312 C 110.890625 129.710938 110.496094 129.976562 110.09375 130.253906 C 108.328125 131.460938 106.589844 132.707031 104.859375 133.960938 C 104 134.5 104 134.5 103 134.5 C 103 134.828125 103 135.160156 103 135.5 C 101.71875 136.574219 100.277344 137.4375 98.875 138.34375 C 98.488281 138.605469 98.097656 138.867188 97.695312 139.136719 C 97.320312 139.382812 96.941406 139.628906 96.554688 139.882812 C 96.210938 140.109375 95.863281 140.335938 95.507812 140.566406 C 94.5 141 94.5 141 93.460938 140.941406 C 92.207031 140.367188 91.800781 139.730469 91.0625 138.570312 C 90.808594 138.175781 90.550781 137.785156 90.289062 137.378906 C 89.898438 136.757812 89.898438 136.757812 89.5 136.125 C 88.980469 135.3125 88.460938 134.503906 87.9375 133.695312 C 87.691406 133.3125 87.449219 132.929688 87.195312 132.535156 C 86.460938 131.398438 86.460938 131.398438 85.28125 130.085938 C 84.5 129 84.5 129 84.4375 127.996094 C 85.300781 126.46875 86.585938 125.570312 88 124.59375 C 88.292969 124.390625 88.585938 124.1875 88.890625 123.976562 C 90.636719 122.847656 91.910156 122.195312 94 122.4375 C 95.085938 122.707031 96.132812 123.042969 97.195312 123.394531 C 99.0625 123.546875 99.839844 122.828125 101.34375 121.75 C 101.863281 121.382812 102.382812 121.019531 102.921875 120.640625 C 103.441406 120.265625 103.960938 119.886719 104.5 119.5 C 105.457031 118.832031 106.414062 118.164062 107.375 117.5 C 108.082031 117 108.792969 116.5 109.5 116 C 107.265625 112.425781 104.949219 108.929688 102.5 105.5 C 101.1875 106.3125 99.882812 107.136719 98.585938 107.980469 C 97.550781 108.648438 96.496094 109.292969 95.429688 109.914062 C 92.539062 111.640625 92.539062 111.640625 91.097656 114.535156 C 90.972656 116.140625 90.972656 116.140625 91.0625 117.679688 C 91 119 91 119 90.4375 119.796875 C 89.148438 120.765625 87.859375 121.710938 86.53125 122.625 C 86.011719 122.988281 85.492188 123.351562 84.953125 123.726562 C 83.5 124.5 83.5 124.5 82.445312 124.519531 C 78.707031 122.464844 75.328125 116.777344 73.5 113 C 73.40625 111.589844 73.40625 111.589844 73.5 110.5 C 74.738281 110.003906 74.738281 110.003906 76 109.5 C 76 109.171875 76 108.839844 76 108.5 C 76.820312 107.976562 77.671875 107.492188 78.53125 107.03125 C 81.507812 105.355469 84.210938 103.445312 86.917969 101.367188 C 87.21875 101.140625 87.515625 100.910156 87.828125 100.679688 C 88.089844 100.476562 88.351562 100.273438 88.621094 100.0625 C 89.5 99.5 89.5 99.5 90.742188 99.191406 C 92.164062 98.589844 92.164062 98.589844 92.589844 96.917969 C 92.734375 96.234375 92.867188 95.546875 92.992188 94.855469 C 93.152344 94.078125 93.316406 93.296875 93.480469 92.519531 C 93.5625 92.105469 93.648438 91.695312 93.734375 91.269531 C 94.183594 89.132812 94.71875 87.019531 95.25 84.902344 C 95.476562 83.988281 95.703125 83.078125 95.929688 82.164062 C 96.042969 81.699219 96.160156 81.230469 96.28125 80.75 C 96.652344 79.253906 97.019531 77.761719 97.390625 76.265625 C 98.308594 72.558594 99.230469 68.851562 100.148438 65.144531 C 100.929688 61.996094 101.707031 58.847656 102.488281 55.703125 C 102.847656 54.246094 103.210938 52.789062 103.570312 51.335938 C 103.796875 50.421875 104.023438 49.511719 104.25 48.597656 C 104.355469 48.164062 104.464844 47.734375 104.574219 47.285156 C 105.09375 45.183594 105.601562 43.074219 106.089844 40.964844 C 106.183594 40.566406 106.273438 40.167969 106.371094 39.757812 C 106.542969 39.011719 106.710938 38.265625 106.878906 37.519531 C 107.445312 35.054688 107.445312 35.054688 108 34.5 Z M 108 34.5 "/>
<path style=" stroke:none;fill-rule:nonzero;fill:rgb(0%,0.392157%,0%);fill-opacity:1;" d="M 182 30.5 C 182.464844 30.738281 182.929688 30.976562 183.40625 31.226562 C 189.4375 34.539062 194.980469 38.875 199.992188 43.578125 C 200.988281 44.523438 200.988281 44.523438 202.132812 45.3125 C 202.417969 45.539062 202.707031 45.765625 203 46 C 203 46.328125 203 46.660156 203 47 C 199.949219 47.398438 198.460938 46.484375 195.921875 44.859375 C 190.703125 41.710938 184.832031 40.09375 179 38.5 C 179.398438 38.988281 179.792969 39.476562 180.203125 39.976562 C 180.71875 40.621094 181.234375 41.261719 181.75 41.90625 C 182.011719 42.226562 182.273438 42.550781 182.546875 42.878906 C 182.917969 43.347656 182.917969 43.347656 183.296875 43.820312 C 183.527344 44.109375 183.757812 44.394531 183.996094 44.6875 C 184.5 45.5 184.5 45.5 184.5 47 C 184.828125 47 185.160156 47 185.5 47 C 186.789062 48.75 187.867188 50.644531 189 52.5 C 189.261719 52.902344 189.523438 53.300781 189.789062 53.714844 C 195.652344 62.902344 198.1875 74.308594 199.5 85 C 199.597656 85.792969 199.597656 85.792969 199.699219 86.601562 C 200.894531 97.902344 199.101562 109.296875 195.5 120 C 195.382812 120.355469 195.269531 120.714844 195.152344 121.082031 C 192.605469 128.882812 188.574219 136.0625 183.5 142.5 C 183.171875 142.929688 182.84375 143.359375 182.503906 143.804688 C 180.351562 146.570312 178.039062 149.082031 175.5 151.5 C 175.707031 152.199219 175.917969 152.894531 176.125 153.59375 C 176.328125 154.277344 176.328125 154.277344 176.535156 154.976562 C 176.855469 156.019531 177.183594 157.0625 177.527344 158.101562 C 178.609375 161.429688 179.363281 164.503906 179.5 168 C 179.527344 168.371094 179.550781 168.738281 179.578125 169.121094 C 179.992188 179.363281 176.144531 189.484375 169.640625 197.277344 C 164.941406 202.304688 158.632812 207.171875 151.476562 207.554688 C 150.652344 207.5625 149.824219 207.535156 149 207.5 C 150.363281 205.714844 151.625 204.351562 153.46875 203.0625 C 155.632812 201.5 157.019531 199.699219 158.5 197.5 C 158.753906 197.144531 159.003906 196.789062 159.265625 196.421875 C 165.648438 187.210938 168.625 176.023438 166.894531 164.898438 C 165.746094 159.367188 163.910156 153.324219 160.128906 149.007812 C 159.5 148 159.5 148 159.425781 146.804688 C 160.316406 144.785156 161.90625 143.886719 163.6875 142.65625 C 164.425781 142.121094 165.160156 141.585938 165.898438 141.046875 C 166.257812 140.785156 166.617188 140.519531 166.992188 140.25 C 173.839844 135.167969 179.296875 128.160156 183 120.5 C 183.210938 120.097656 183.425781 119.695312 183.640625 119.285156 C 186.542969 113.738281 188.398438 108.175781 189.34375 102.003906 C 189.492188 101.050781 189.660156 100.101562 189.828125 99.152344 C 192.25 83.796875 189.257812 67.046875 180.351562 54.164062 C 180.070312 53.78125 179.789062 53.394531 179.5 53 C 179.1875 52.546875 178.875 52.097656 178.554688 51.632812 C 171.9375 42.210938 162.855469 34.570312 152.5 29.5 C 152.5625 28.59375 152.5625 28.59375 153 27.5 C 161.128906 22.621094 174.199219 26.429688 182 30.5 Z M 182 30.5 "/>
<path style=" stroke:none;fill-rule:nonzero;fill:rgb(0%,0.392157%,0%);fill-opacity:1;" d="M 96.5 27 C 96.996094 27.496094 96.996094 27.496094 97.5 28 C 97.445312 28.996094 97.445312 28.996094 97 30 C 96.101562 30.566406 96.101562 30.566406 94.90625 31.0625 C 89.714844 33.484375 85.210938 37.136719 81.046875 41.03125 C 80 42 80 42 78.46875 43.1875 C 66.886719 53.535156 60.652344 69.769531 59.644531 84.941406 C 59.140625 94.585938 60.117188 103.929688 63.5 113 C 63.652344 113.453125 63.808594 113.902344 63.964844 114.367188 C 65.078125 117.457031 66.742188 120.15625 68.5 122.914062 C 69.175781 123.988281 69.820312 125.082031 70.429688 126.195312 C 71.621094 128.300781 73.097656 130.132812 74.625 132 C 74.890625 132.335938 75.160156 132.671875 75.4375 133.019531 C 78.625 136.941406 82.484375 139.9375 86.5 142.96875 C 86.886719 143.261719 87.273438 143.558594 87.671875 143.859375 C 88.613281 144.574219 89.558594 145.289062 90.5 146 C 90.214844 148.257812 89.316406 149.765625 88.125 151.6875 C 83.03125 160.285156 81.230469 170.261719 83.582031 180.027344 C 86.433594 191.011719 91.519531 198.714844 100.101562 206.164062 C 100.398438 206.441406 100.695312 206.714844 101 207 C 101 207.164062 101 207.328125 101 207.5 C 94.574219 208.097656 88.949219 204.722656 84.09375 200.890625 C 75.609375 193.632812 71.640625 183.996094 70.5 173 C 70.046875 166.835938 71.253906 161.023438 73.570312 155.34375 C 74.363281 153.40625 74.363281 153.40625 74.210938 151.375 C 73.375 150.34375 72.480469 149.460938 71.5 148.5625 C 68.550781 145.679688 66.292969 142.40625 64 139 C 63.683594 138.535156 63.371094 138.070312 63.046875 137.59375 C 62.164062 136.246094 61.324219 134.882812 60.5 133.5 C 60.183594 132.984375 59.863281 132.464844 59.539062 131.929688 C 49.332031 114.578125 47.894531 92.175781 52.5625 72.9375 C 54.859375 64.117188 58.3125 55.992188 63.5 48.5 C 63.828125 48.003906 64.160156 47.511719 64.5 47 C 64.828125 47 65.160156 47 65.5 47 C 65.542969 46.722656 65.582031 46.445312 65.625 46.15625 C 66.117188 44.636719 66.945312 43.695312 67.96875 42.46875 C 69.046875 41.164062 70.0625 39.910156 71 38.5 C 60.648438 41.203125 60.648438 41.203125 51.382812 46.363281 C 49.996094 47.363281 48.652344 47.09375 47 47 C 47.757812 45.09375 48.871094 44.164062 50.46875 42.90625 C 52.390625 41.382812 54.285156 39.835938 56.15625 38.25 C 65.960938 30.277344 83.828125 20.679688 96.5 27 Z M 96.5 27 "/>
<path style=" stroke:none;fill-rule:nonzero;fill:rgb(0%,0.392157%,0%);fill-opacity:1;" d="M 140.5 139.5 C 140.867188 139.683594 141.234375 139.871094 141.609375 140.0625 C 145.734375 142.214844 149.375 145.054688 152.5 148.5 C 152.5 148.828125 152.5 149.160156 152.5 149.5 C 152.828125 149.5 153.160156 149.5 153.5 149.5 C 159.328125 159.308594 162.28125 168.96875 159.96875 180.46875 C 157.316406 190.105469 150.507812 198.070312 142.140625 203.359375 C 135.5 206.804688 128.859375 207.179688 121.5 207 C 120.859375 206.988281 120.859375 206.988281 120.203125 206.976562 C 113.796875 206.601562 108.355469 204.082031 103.5 200 C 103.136719 199.703125 102.773438 199.410156 102.398438 199.105469 C 98.410156 195.765625 95.515625 192.039062 93 187.5 C 92.808594 187.175781 92.617188 186.855469 92.421875 186.523438 C 89.820312 181.84375 89.367188 176.871094 89.34375 171.625 C 89.339844 171.1875 89.339844 170.75 89.335938 170.300781 C 89.417969 162.867188 92.1875 155.53125 96.5 149.5 C 96.828125 149.5 97.160156 149.5 97.5 149.5 C 97.632812 149.203125 97.769531 148.910156 97.90625 148.601562 C 100.984375 142.867188 108.769531 139.210938 114.765625 137.328125 C 123.171875 135.085938 132.71875 135.269531 140.5 139.5 Z M 109.476562 146.648438 C 106.171875 151.089844 104 156.429688 104.6875 162.015625 C 105.46875 166.097656 107 169.65625 109.5 173 C 109.828125 173 110.160156 173 110.5 173 C 110.5 173.328125 110.5 173.660156 110.5 174 C 110.828125 174 111.160156 174 111.5 174 C 111.5 174.328125 111.5 174.660156 111.5 175 C 115.6875 178.554688 120.566406 180 126 180 C 130.578125 179.5625 134.859375 177.800781 138.5 175 C 138.5 174.671875 138.5 174.339844 138.5 174 C 138.828125 174 139.160156 174 139.5 174 C 139.5 173.671875 139.5 173.339844 139.5 173 C 139.828125 173 140.160156 173 140.5 173 C 144 168.320312 145.953125 163.078125 145.28125 157.21875 C 144.179688 151.625 141.386719 146.34375 136.59375 143.125 C 132.984375 140.859375 129.1875 140.253906 125 140.3125 C 124.582031 140.308594 124.164062 140.300781 123.730469 140.296875 C 118.105469 140.320312 113.257812 142.410156 109.476562 146.648438 Z M 101.648438 149.847656 C 95.003906 157.96875 92.78125 166.183594 93.5 176.5 C 94.183594 181.949219 96.796875 187.929688 100.5 192 C 100.828125 192 101.160156 192 101.5 192 C 101.609375 192.367188 101.722656 192.734375 101.835938 193.109375 C 103.859375 197.34375 109.632812 199.695312 113.742188 201.40625 C 122.28125 204.296875 131.496094 203.804688 139.59375 199.875 C 144.660156 197.40625 144.660156 197.40625 148.023438 193.175781 C 148.257812 192.59375 148.257812 192.59375 148.5 192 C 148.996094 191.835938 149.488281 191.671875 150 191.5 C 155.84375 184.371094 157.265625 175.40625 156.5 166.5 C 155.410156 159.941406 152.128906 153.738281 147.5 149 C 147.171875 149 146.839844 149 146.5 149 C 146.644531 149.519531 146.789062 150.039062 146.9375 150.574219 C 148.925781 157.933594 149.246094 164.3125 145.6875 171.375 C 142.15625 177.304688 137.207031 180.40625 130.773438 182.585938 C 124.226562 184.117188 118.171875 182.851562 112.375 179.625 C 106.824219 176.039062 103.242188 170.851562 101.78125 164.375 C 101.082031 159.605469 101.691406 155.621094 103 151 C 103.167969 150.335938 103.335938 149.667969 103.5 149 C 102.417969 148.882812 102.417969 148.882812 101.648438 149.847656 Z M 101.648438 149.847656 "/>
<path style=" stroke:none;fill-rule:nonzero;fill:rgb(0%,0.392157%,0%);fill-opacity:1;" d="M 196 127.5 C 198.320312 127.757812 199.898438 128.796875 201.75 130.125 C 202.027344 130.316406 202.304688 130.507812 202.59375 130.703125 C 204.417969 131.988281 205.945312 133.40625 207.5 135 C 208.121094 135.574219 208.746094 136.140625 209.371094 136.710938 C 215.566406 142.339844 221.859375 148.863281 222.601562 157.722656 C 222.652344 159.109375 222.664062 160.488281 222.65625 161.875 C 222.65625 162.363281 222.65625 162.847656 222.65625 163.351562 C 222.609375 166.738281 222.273438 169.828125 221 173 C 220.339844 173.164062 219.679688 173.328125 219 173.5 C 218.699219 173.097656 218.402344 172.695312 218.09375 172.28125 C 216.433594 170.277344 214.410156 168.765625 212.386719 167.148438 C 210.800781 165.835938 209.375 164.421875 207.941406 162.945312 C 207.027344 162.027344 206.078125 161.183594 205.09375 160.34375 C 203.421875 158.910156 201.882812 157.386719 200.34375 155.8125 C 197.726562 153.15625 194.925781 150.804688 192 148.5 C 191.050781 147.738281 190.105469 146.980469 189.15625 146.21875 C 188.4375 145.644531 187.71875 145.074219 187 144.5 C 187.316406 142.78125 187.988281 141.65625 188.96875 140.21875 C 191.625 136.15625 193.78125 131.8125 196 127.5 Z M 196 127.5 "/>
<path style=" stroke:none;fill-rule:nonzero;fill:rgb(0%,0.392157%,0%);fill-opacity:1;" d="M 54 127.5 C 54.230469 127.992188 54.460938 128.480469 54.699219 128.984375 C 56.667969 133.082031 58.777344 136.890625 61.46875 140.5625 C 62.976562 142.683594 62.976562 142.683594 63.078125 144.058594 C 62.167969 145.539062 60.820312 146.429688 59.4375 147.4375 C 54.1875 151.402344 49.484375 155.960938 44.871094 160.640625 C 43.664062 161.832031 42.386719 162.933594 41.101562 164.039062 C 39.777344 165.191406 38.484375 166.375 37.1875 167.5625 C 35.710938 168.910156 34.238281 170.242188 32.6875 171.5 C 31.472656 172.386719 31.472656 172.386719 31 173.5 C 30.339844 173.335938 29.679688 173.171875 29 173 C 26.511719 166.808594 26.292969 158.027344 28.839844 151.828125 C 32.011719 145.449219 35.960938 140.722656 41.320312 136.054688 C 42.527344 135 42.527344 135 43.679688 133.785156 C 45.199219 132.304688 46.808594 131.078125 48.53125 129.84375 C 48.835938 129.617188 49.144531 129.390625 49.457031 129.15625 C 51.152344 127.9375 51.851562 127.5 54 127.5 Z M 54 127.5 "/>
<path style=" stroke:none;fill-rule:nonzero;fill:rgb(0%,0.392157%,0%);fill-opacity:1;" d="M 184.5 146.5 C 186.746094 146.941406 188.128906 148.210938 189.8125 149.6875 C 190.121094 149.957031 190.429688 150.226562 190.75 150.503906 C 193.558594 152.984375 196.105469 155.609375 198.5 158.5 C 198.816406 158.882812 199.132812 159.261719 199.460938 159.65625 C 205.679688 167.800781 207.535156 177.894531 206.214844 187.882812 C 206.097656 188.652344 205.972656 189.421875 205.84375 190.1875 C 205.785156 190.546875 205.726562 190.90625 205.664062 191.277344 C 205.320312 193.105469 205.039062 194.371094 203.5 195.5 C 201.054688 194.90625 199.984375 193.429688 198.449219 191.578125 C 197.5 190.5 196.503906 189.585938 195.40625 188.65625 C 193.902344 187.378906 192.699219 186.074219 191.5 184.5 C 190.667969 183.664062 189.835938 182.832031 189 182 C 188.039062 181.011719 187.097656 180.007812 186.15625 179 C 185.792969 178.617188 185.792969 178.617188 185.421875 178.230469 C 183.722656 176.402344 182.484375 174.882812 182.511719 172.320312 C 182.570312 171.925781 182.628906 171.53125 182.6875 171.125 C 183.34375 165.695312 183.019531 160.683594 180.375 155.75 C 179.5 154 179.5 154 179.554688 153.070312 C 180.199219 151.519531 181.199219 150.40625 182.28125 149.125 C 182.902344 148.386719 182.902344 148.386719 183.53125 147.632812 C 183.851562 147.257812 184.171875 146.886719 184.5 146.5 Z M 184.5 146.5 "/>
<path style=" stroke:none;fill-rule:nonzero;fill:rgb(0%,0.392157%,0%);fill-opacity:1;" d="M 65.042969 146.433594 C 66.472656 147.277344 67.355469 148.375 68.40625 149.65625 C 69.015625 150.378906 69.015625 150.378906 69.632812 151.117188 C 70.5 152.5 70.5 152.5 70.460938 153.476562 C 70.308594 153.816406 70.15625 154.152344 70 154.5 C 69.714844 155.25 69.714844 155.25 69.421875 156.011719 C 68.976562 157.125 68.527344 158.242188 68.078125 159.355469 C 67.296875 161.578125 66.929688 163.710938 66.9375 166.0625 C 66.9375 166.445312 66.9375 166.828125 66.9375 167.21875 C 66.980469 168.539062 66.980469 168.539062 67.234375 169.984375 C 67.824219 173.902344 67.824219 173.902344 66.914062 175.578125 C 66.0625 176.53125 66.0625 176.53125 65.085938 177.460938 C 63.816406 178.675781 62.773438 179.996094 61.6875 181.375 C 60.253906 183.183594 58.820312 184.582031 57 186 C 56.40625 186.722656 55.808594 187.449219 55.226562 188.179688 C 54.085938 189.472656 52.773438 190.550781 51.460938 191.660156 C 50.621094 192.394531 49.875 193.148438 49.125 193.96875 C 48 195 48 195 46 195 C 43.148438 192.148438 43.339844 185.011719 43.3125 181.125 C 43.425781 171.914062 46.8125 163.734375 53 157 C 53.523438 156.378906 53.523438 156.378906 54.058594 155.746094 C 56.175781 153.273438 58.457031 151.046875 60.90625 148.90625 C 61.183594 148.660156 61.457031 148.410156 61.742188 148.15625 C 63.667969 146.519531 63.667969 146.519531 65.042969 146.433594 Z M 65.042969 146.433594 "/>
<path style=" stroke:none;fill-rule:nonzero;fill:rgb(0%,0.392157%,0%);fill-opacity:1;" d="M 202 110 C 211.113281 110.796875 220.199219 117.378906 226 124 C 230.757812 129.726562 231.929688 137.242188 231.5 144.5 C 231 146.375 231 146.375 230.5 147.5 C 224.238281 145.289062 218.511719 139.832031 213.367188 135.6875 C 212.808594 135.242188 212.25 134.792969 211.6875 134.34375 C 211.40625 134.121094 211.128906 133.894531 210.839844 133.664062 C 209.097656 132.292969 207.3125 131.019531 205.460938 129.796875 C 205.027344 129.507812 204.59375 129.21875 204.148438 128.921875 C 203.292969 128.359375 202.429688 127.800781 201.566406 127.25 C 200.980469 126.867188 200.980469 126.867188 200.382812 126.472656 C 200.03125 126.25 199.679688 126.023438 199.316406 125.792969 C 198.210938 124.71875 198.101562 124.027344 198 122.5 C 198.257812 121.121094 198.257812 121.121094 198.699219 119.648438 C 198.855469 119.117188 199.015625 118.585938 199.175781 118.039062 C 199.34375 117.488281 199.511719 116.941406 199.6875 116.375 C 199.851562 115.816406 200.015625 115.261719 200.1875 114.6875 C 201.417969 110.582031 201.417969 110.582031 202 110 Z M 202 110 "/>
<path style=" stroke:none;fill-rule:nonzero;fill:rgb(0%,0.392157%,0%);fill-opacity:1;" d="M 48.5 110.5 C 49.101562 112.445312 49.691406 114.394531 50.28125 116.34375 C 50.539062 117.171875 50.539062 117.171875 50.800781 118.015625 C 51.039062 118.816406 51.039062 118.816406 51.28125 119.632812 C 51.433594 120.121094 51.582031 120.609375 51.734375 121.113281 C 52.027344 122.640625 52.023438 123.535156 51.5 125 C 50.660156 125.808594 50.660156 125.808594 49.566406 126.507812 C 49.167969 126.769531 48.769531 127.03125 48.359375 127.300781 C 47.929688 127.574219 47.503906 127.84375 47.0625 128.125 C 46.183594 128.703125 45.308594 129.285156 44.429688 129.867188 C 43.796875 130.285156 43.796875 130.285156 43.148438 130.714844 C 41.300781 131.976562 39.609375 133.398438 37.902344 134.84375 C 33.304688 138.640625 28.421875 142.140625 23.5 145.5 C 23.039062 145.824219 23.039062 145.824219 22.566406 146.15625 C 20.621094 147.5 20.621094 147.5 19.5 147.5 C 17.109375 142.121094 18.554688 135.136719 20.421875 129.792969 C 24.519531 120.925781 32.886719 115.425781 41.53125 111.6875 C 41.9375 111.511719 42.339844 111.332031 42.757812 111.148438 C 43.140625 110.992188 43.527344 110.832031 43.921875 110.667969 C 44.265625 110.527344 44.605469 110.386719 44.957031 110.238281 C 46.265625 109.941406 47.210938 110.164062 48.5 110.5 Z M 48.5 110.5 "/>
<path style=" stroke:none;fill-rule:nonzero;fill:rgb(0%,0.392157%,0%);fill-opacity:1;" d="M 203 91 C 210.617188 91.65625 217.359375 93.113281 224 97 C 224.351562 97.195312 224.707031 97.386719 225.070312 97.585938 C 229.582031 100.375 233.144531 106.464844 234.375 111.539062 C 235.519531 117.957031 235.519531 117.957031 234.5 120 C 232.382812 119.722656 230.726562 119.234375 228.824219 118.28125 C 228.320312 118.03125 227.816406 117.78125 227.300781 117.527344 C 226.765625 117.257812 226.234375 116.992188 225.6875 116.71875 C 219.566406 113.714844 213.363281 111.082031 206.953125 108.753906 C 206.363281 108.535156 205.769531 108.316406 205.15625 108.09375 C 204.648438 107.914062 204.140625 107.738281 203.617188 107.554688 C 203.25 107.371094 202.878906 107.1875 202.5 107 C 201.894531 105.1875 202.183594 104.390625 202.5 102.5 C 202.636719 100.523438 202.707031 98.542969 202.78125 96.5625 C 202.804688 96.027344 202.824219 95.492188 202.847656 94.941406 C 202.898438 93.628906 202.949219 92.3125 203 91 Z M 203 91 "/>
<path style=" stroke:none;fill-rule:nonzero;fill:rgb(0%,0.392157%,0%);fill-opacity:1;" d="M 47 91 C 47.011719 91.328125 47.023438 91.65625 47.039062 91.992188 C 47.097656 93.496094 47.15625 94.996094 47.21875 96.5 C 47.238281 97.015625 47.257812 97.53125 47.277344 98.0625 C 47.394531 100.902344 47.597656 103.683594 48 106.5 C 44.980469 108.09375 41.941406 109.285156 38.71875 110.40625 C 34.503906 111.90625 30.46875 113.558594 26.453125 115.53125 C 24.601562 116.441406 22.738281 117.328125 20.875 118.21875 C 20.511719 118.394531 20.148438 118.574219 19.773438 118.757812 C 17.167969 120 17.167969 120 15.5 120 C 14.128906 117.257812 15.214844 112.527344 16.0625 109.65625 C 17.945312 104.691406 21.289062 100.039062 25.78125 97.21875 C 26.09375 97.023438 26.40625 96.824219 26.726562 96.625 C 32.429688 93.132812 40.246094 90.699219 47 91 Z M 47 91 "/>
<path style=" stroke:none;fill-rule:nonzero;fill:rgb(0%,0.392157%,0%);fill-opacity:1;" d="M 200 71 C 208.066406 70.480469 216.53125 72.945312 222.96875 77.875 C 226.523438 81.261719 229.164062 86.316406 230.5 91 C 230.273438 92.082031 230.273438 92.082031 230 93 C 226.070312 92.65625 222.289062 91.863281 218.4375 91.03125 C 213.878906 90.058594 209.371094 89.164062 204.726562 88.710938 C 203.5 88.5 203.5 88.5 202.5 87.5 C 202.265625 86.410156 202.265625 86.410156 202.109375 85.0625 C 202.050781 84.570312 201.988281 84.078125 201.929688 83.570312 C 201.867188 83.050781 201.808594 82.535156 201.75 82 C 201.316406 78.292969 200.796875 74.648438 200 71 Z M 200 71 "/>
<path style=" stroke:none;fill-rule:nonzero;fill:rgb(0%,0.392157%,0%);fill-opacity:1;" d="M 50 71 C 49.9375 71.292969 49.871094 71.582031 49.808594 71.882812 C 48.996094 75.753906 48.515625 79.640625 48.070312 83.570312 C 48.011719 84.0625 47.953125 84.554688 47.890625 85.0625 C 47.839844 85.507812 47.789062 85.953125 47.734375 86.410156 C 47.5 87.5 47.5 87.5 46.5 88.5 C 45.058594 88.761719 43.640625 88.972656 42.1875 89.15625 C 37.628906 89.78125 33.148438 90.652344 28.65625 91.644531 C 25.769531 92.269531 22.941406 92.726562 20 93 C 19.113281 90.027344 20.6875 87.679688 22 85 C 25.484375 78.617188 30.136719 74.828125 37.117188 72.652344 C 41.398438 71.480469 45.550781 70.710938 50 71 Z M 50 71 "/>
<path style=" stroke:none;fill-rule:nonzero;fill:rgb(0%,0.392157%,0%);fill-opacity:1;" d="M 191 47.5 C 201.066406 48.445312 210.015625 54.742188 216.492188 62.21875 C 218.027344 64.167969 219.566406 66.1875 220.5 68.5 C 220.324219 69.644531 220.324219 69.644531 220 70.5 C 212.410156 69.59375 212.410156 69.59375 208.9375 68.96875 C 205.644531 68.390625 202.335938 68.1875 199 68 C 198.824219 67.46875 198.648438 66.933594 198.46875 66.386719 C 195.816406 58.3125 195.816406 58.3125 191.386719 51.140625 C 190.5 50 190.5 50 190.625 48.59375 C 190.75 48.234375 190.871094 47.871094 191 47.5 Z M 191 47.5 "/>
<path style=" stroke:none;fill-rule:nonzero;fill:rgb(0%,0.392157%,0%);fill-opacity:1;" d="M 59.5 48 C 59.214844 49.917969 58.667969 51.214844 57.625 52.84375 C 54.632812 57.703125 52.699219 62.578125 51 68 C 50.707031 68.023438 50.417969 68.042969 50.117188 68.066406 C 44.535156 68.507812 39.078125 69.042969 33.609375 70.257812 C 32.042969 70.492188 31.011719 70.425781 29.5 70 C 30.105469 64.816406 35.332031 59.519531 39.269531 56.390625 C 42.945312 53.542969 46.625 51.148438 51 49.5 C 51.523438 49.300781 52.046875 49.097656 52.585938 48.890625 C 56.996094 47.296875 56.996094 47.296875 59.5 48 Z M 59.5 48 "/>
</g>
</svg>
