<?xml version="1.0" encoding="UTF-8"?>
<svg version="1.1" xmlns="http://www.w3.org/2000/svg" width="1000" height="1000">
<path d="M0 0 C6.35823697 1.74240148 12.51705879 3.88783418 18.67626953 6.23364258 C23.6490627 8.12453606 28.63626191 9.97364745 33.6328125 11.80078125 C34.30699219 12.04734467 34.98117187 12.29390808 35.67578125 12.54794312 C38.43025281 13.55478965 41.18497423 14.56094382 43.94030762 15.56542969 C45.89545912 16.27832014 47.85010135 16.99259248 49.8046875 17.70703125 C51.52147705 18.33315308 51.52147705 18.33315308 53.27294922 18.97192383 C56 20 56 20 58 21 C58.13899556 30.7095176 58.24561821 40.41879873 58.31087303 50.12910843 C58.34219191 54.63802468 58.38467363 59.14626054 58.45263672 63.65478516 C58.51781136 68.00553829 58.55370185 72.35563692 58.56926346 76.70684052 C58.58035341 78.36712705 58.60201035 80.02737757 58.63438034 81.68738556 C58.677923 84.01275617 58.68393569 86.33542039 58.68115234 88.66113281 C58.702724 89.3480571 58.72429565 90.03498138 58.746521 90.74272156 C58.7215271 92.67169189 58.7215271 92.67169189 58 96 C55.12539673 98.32196045 55.12539673 98.32196045 52 100 C50.6696875 101.0828125 50.6696875 101.0828125 49.3125 102.1875 C47 104 47 104 44 105 C43.34 105.66 42.68 106.32 42 107 C40.34017793 108.01132016 38.67233931 109.00951577 37 110 C35.08637698 111.26516155 33.19076087 112.5579112 31.3125 113.875 C30.35988281 114.53242188 29.40726563 115.18984375 28.42578125 115.8671875 C25.83896467 118.14158662 24.97186121 119.73772905 24 123 C24.69480469 123.09796875 25.38960937 123.1959375 26.10546875 123.296875 C33.43938546 124.37511877 40.7100025 125.67627571 47.98828125 127.078125 C48.95463501 127.2632666 49.92098877 127.4484082 50.91662598 127.63916016 C53.27795535 128.09171787 55.63907199 128.54535394 58 129 C58.25696537 157.02448228 58.45093969 185.04878802 58.56993389 213.07421112 C58.62665389 226.08698406 58.70398137 239.09902502 58.82983398 252.11132812 C58.93947577 263.45294827 59.01044068 274.79403834 59.03497344 286.13617373 C59.04931459 292.1420634 59.08301176 298.14643664 59.16303062 304.15184021 C59.23775732 309.80593313 59.26071658 315.45788693 59.24418449 321.11242676 C59.24720818 323.18615857 59.26905857 325.25996265 59.31126022 327.33326721 C59.61392111 342.97099452 59.61392111 342.97099452 55.57264137 348.051651 C51.78597787 350.91973299 48.82587217 353 44 353 C44 353.66 44 354.32 44 355 C43.01 355 42.02 355 41 355 C40.67 355.66 40.34 356.32 40 357 C38.26340794 358.21704964 36.48563488 359.375868 34.6875 360.5 C33.72199219 361.1084375 32.75648438 361.716875 31.76171875 362.34375 C29.54019278 363.67603715 27.33742953 364.88958217 25 366 C25 366.66 25 367.32 25 368 C22.78382286 369.67141852 20.56205615 371.2202144 18.25 372.75 C16.77145092 373.74638085 15.29361881 374.74382623 13.81640625 375.7421875 C13.03023926 376.27166992 12.24407227 376.80115234 11.43408203 377.34667969 C7.31866281 380.14202763 3.25591341 383.01188041 -0.8125 385.875 C-14.85860085 395.72982756 -28.99599299 405.4563041 -43.33056641 414.88769531 C-44.97781014 415.98521542 -46.60438049 417.11356034 -48.23046875 418.2421875 C-49.20628906 418.90476562 -50.18210937 419.56734375 -51.1875 420.25 C-52.44626953 421.12398437 -52.44626953 421.12398437 -53.73046875 422.015625 C-56 423 -56 423 -58.09375 422.453125 C-60.39262357 420.70070498 -61.71459833 418.91020014 -63.3125 416.5 C-63.91191406 415.61054687 -64.51132812 414.72109375 -65.12890625 413.8046875 C-66.05509766 412.41636719 -66.05509766 412.41636719 -67 411 C-68.24523607 409.20501906 -69.49506619 407.41321435 -70.75 405.625 C-71.30171875 404.83351563 -71.8534375 404.04203125 -72.421875 403.2265625 C-73.4783977 401.73592403 -74.57316767 400.27170897 -75.703125 398.8359375 C-77 397 -77 397 -77 395 C-77.66 395 -78.32 395 -79 395 C-80.32196759 393.04682267 -81.55702562 391.03452995 -82.75 389 C-85.54235372 384.28694243 -88.44217948 379.89484418 -91.96875 375.68359375 C-93 374 -93 374 -93 370 C-91.57421875 368.515625 -91.57421875 368.515625 -89.6875 367.25 C-88.76517578 366.60804688 -88.76517578 366.60804688 -87.82421875 365.953125 C-86 365 -86 365 -83 365 C-83 364.34 -83 363.68 -83 363 C-82.01 363 -81.02 363 -80 363 C-79.67 362.34 -79.34 361.68 -79 361 C-77.26066174 359.8069002 -75.48342137 358.66859727 -73.6875 357.5625 C-69.73151593 355.16449656 -69.73151593 355.16449656 -66.14453125 352.27734375 C-62.8559126 350.31854903 -59.67565121 350.48611763 -56 351 C-53.30653021 351.80049287 -50.79905877 352.8870138 -48.25 354.0625 C-43.74309265 356.27343001 -43.74309265 356.27343001 -38.859375 356.87109375 C-30.4705057 352.94101422 -23.05978279 346.92446141 -15.74072266 341.32568359 C-12.34285077 338.73796349 -8.91890742 336.18481922 -5.5 333.625 C-4.15615487 332.61731436 -2.81239968 331.60950874 -1.46875 330.6015625 C-0.8603125 330.14813477 -0.251875 329.69470703 0.375 329.22753906 C1.69793021 328.22818613 2.99394029 327.19327449 4.28125 326.1484375 C6 325 6 325 9 325 C6.29940089 320.02155912 3.32879244 315.68971564 -0.25 311.3125 C-6.93473607 302.96273014 -12.95709747 294.29384147 -17.9921875 284.83984375 C-18.90471308 283.17395403 -19.94637746 281.58043381 -21 280 C-25.37372557 281.52380269 -29.01443152 283.84333055 -32.8125 286.4375 C-33.45614502 286.87271973 -34.09979004 287.30793945 -34.76293945 287.75634766 C-36.13289878 288.68440059 -37.50126773 289.61480484 -38.86816406 290.54736328 C-41.04000032 292.02725629 -43.21880433 293.49646438 -45.3984375 294.96484375 C-46.82850032 295.93434245 -48.25819779 296.90438031 -49.6875 297.875 C-50.35821533 298.32673584 -51.02893066 298.77847168 -51.7199707 299.24389648 C-54.34907432 301.04184035 -56.72808667 302.72103104 -58.95703125 305.0078125 C-61 307 -61 307 -62.99194336 307.93481445 C-65.40175974 309.09143053 -67.12505752 310.08333192 -69 312 C-70.04979385 316.02344904 -69.89248439 319.92799595 -69.75 324.0625 C-69.70657356 326.21977219 -69.67984187 328.37746172 -69.671875 330.53515625 C-69.6419043 331.487854 -69.61193359 332.44055176 -69.58105469 333.42211914 C-70.29562607 337.81906506 -73.25576266 339.44608445 -76.68554688 341.9987793 C-82.62692518 346.06410906 -82.62692518 346.06410906 -84.76318359 347.51000977 C-86.49972408 348.68731294 -88.22852294 349.87539837 -89.95703125 351.06445312 C-91.06465311 351.81837144 -92.17271144 352.57164898 -93.28125 353.32421875 C-94.28220703 354.00572998 -95.28316406 354.68724121 -96.31445312 355.3894043 C-98.64995516 356.79006856 -100.34303513 357.56283292 -103 358 C-105.80811532 354.35515506 -108.61287075 350.70775067 -111.41601562 347.05908203 C-113.09245049 344.87982006 -114.77280496 342.70361109 -116.453125 340.52734375 C-117.61469824 339.01831761 -118.77615801 337.50920412 -119.9375 336 C-120.49268311 335.28271729 -121.04786621 334.56543457 -121.61987305 333.82641602 C-129 324.21858198 -129 324.21858198 -129 321 C-129.66 321 -130.32 321 -131 321 C-132.40568804 319.05017465 -133.7295036 317.04049422 -135 315 C-135.5775 314.175 -136.155 313.35 -136.75 312.5 C-138.2552742 309.48945159 -138.23181538 307.32268715 -138 304 C-137.01 303.67 -136.02 303.34 -135 303 C-135 302.34 -135 301.68 -135 301 C-132.36710113 299.24473409 -129.71985957 297.61312992 -127 296 C-119.63163027 291.57708398 -112.48356917 287.05650075 -105.6328125 281.859375 C-103.10741334 280.07585868 -100.50820964 278.54943551 -97.81201172 277.04052734 C-94.78790346 275.3039672 -91.89673018 273.37698188 -89 271.4375 C-88.36352539 271.01275391 -87.72705078 270.58800781 -87.07128906 270.15039062 C-80.93701851 266.0208033 -74.98078601 261.66075509 -69.046875 257.25 C-67.06501384 255.78647176 -65.04990051 254.36660034 -63 253 C-62.07032778 250.99857093 -62.07032778 250.99857093 -61.46484375 248.6328125 C-61.21283203 247.7459375 -60.96082031 246.8590625 -60.70117188 245.9453125 C-60.44916016 245.01460937 -60.19714844 244.08390625 -59.9375 243.125 C-59.68162109 242.23296875 -59.42574219 241.3409375 -59.16210938 240.421875 C-57.88878363 235.85230496 -56.85600438 231.34362621 -56.16455078 226.64990234 C-54.90622652 218.94508837 -52.93541366 211.45083873 -50.96484375 203.90625 C-50.56278941 202.3506715 -50.16123578 200.79496351 -49.76014709 199.23913574 C-48.70438782 195.14854278 -47.64277609 191.05949326 -46.57958984 186.9708252 C-44.90939418 180.54374717 -43.24803561 174.11437472 -41.58627319 167.685112 C-41.17114661 166.07928688 -40.75580149 164.47351824 -40.34024048 162.86780548 C-36.87280266 149.46669889 -33.49364557 136.04488496 -30.15022278 122.61236572 C-28.00259528 113.98748949 -25.82690107 105.37086757 -23.6015625 96.765625 C-23.34897171 95.78698486 -23.09638092 94.80834473 -22.83613586 93.80004883 C-21.84685674 89.96922929 -20.85658338 86.13869567 -19.85888672 82.31005859 C-17.16955837 71.97791521 -14.68552345 61.72691044 -12.82275391 51.21240234 C-11.12252713 42.11261647 -8.65050151 33.15612981 -6.375 24.1875 C-5.86677458 22.1661194 -5.35895955 20.14463557 -4.8515625 18.12304688 C-4.36755777 16.20042758 -3.88319636 14.27789804 -3.3984375 12.35546875 C-3.17239838 11.45869919 -2.94635925 10.56192963 -2.71347046 9.63798523 C-2.50300079 8.8089418 -2.29253113 7.97989838 -2.07568359 7.12573242 C-1.891539 6.39899826 -1.70739441 5.6722641 -1.51766968 4.92350769 C-1.07135793 3.26514499 -0.5430802 1.6292406 0 0 Z " fill="#000100" transform="translate(432,140)"/>
<path d="M0 0 C2.50535167 9.66158537 4.99987662 19.32590473 7.48394775 28.99298096 C7.96164534 30.85083192 8.44048946 32.70838797 8.91943359 34.56591797 C9.72275014 37.68837446 10.51887473 40.81256823 11.3125 43.9375 C11.54211426 44.82630859 11.77172852 45.71511719 12.00830078 46.63085938 C13.33995399 51.91071336 14.42128601 57.2041337 15.3828125 62.5625 C16.85140759 70.65223291 18.81618378 78.57240355 20.89797974 86.52355957 C22.11008594 91.15466807 23.30315965 95.79070888 24.5 100.42578125 C24.90134911 101.97699173 24.90134911 101.97699173 25.31080627 103.55953979 C27.69265211 112.77634993 30.03796038 122.00222112 32.375 131.23046875 C32.56534254 131.98202555 32.75568508 132.73358234 32.95179558 133.50791359 C34.12542095 138.14256598 35.29833395 142.77739846 36.47101974 147.41228867 C38.22060491 154.32718573 39.97089774 161.24190317 41.72265625 168.15625 C41.9096364 168.8943157 42.09661655 169.6323814 42.28926277 170.39281273 C44.60937795 179.54824478 46.94432101 188.69959925 49.30859375 197.84375 C49.54723648 198.76786682 49.78587921 199.69198364 50.03175354 200.644104 C51.07703931 204.68962742 52.12628676 208.73403292 53.18383789 212.77636719 C55.29991847 220.91202542 57.12044531 229.02027572 58.34423828 237.34033203 C59.70938578 246.18595019 61.49014592 252.6799804 68.92138672 258.17919922 C71.88839345 260.15400719 74.90087786 262.02096989 77.98242188 263.81152344 C80.57347118 265.3378095 83.00147566 267.05142508 85.4375 268.8125 C86.19804688 269.34230469 86.95859375 269.87210937 87.7421875 270.41796875 C89.33758536 271.53585133 90.9254432 272.66453164 92.5078125 273.80078125 C97.15997447 277.12273788 101.81950608 280.0590304 106.85546875 282.7578125 C109.73328455 284.42474406 112.2779928 286.42615247 114.90234375 288.4609375 C118.74233518 291.27836138 122.89327413 293.59685284 127 296 C128.54654699 296.90840867 130.08867665 297.8244059 131.625 298.75 C132.27726563 299.13671875 132.92953125 299.5234375 133.6015625 299.921875 C134.29378906 300.45554687 134.29378906 300.45554687 135 301 C135 301.66 135 302.32 135 303 C135.99 303.33 136.98 303.66 138 304 C138.51019363 309.35703314 137.16874015 311.74483466 134 316 C133.46375 316.94875 132.9275 317.8975 132.375 318.875 C131.694375 319.926875 131.694375 319.926875 131 321 C130.34 321 129.68 321 129 321 C128.76539063 321.68707031 128.53078125 322.37414062 128.2890625 323.08203125 C126.73045404 326.61015404 124.63920552 329.5905908 122.375 332.6875 C121.70839355 333.61006592 121.70839355 333.61006592 121.02832031 334.55126953 C117.75441007 339.04967376 114.34207872 343.42049686 110.828125 347.734375 C108.12393255 351.08572462 105.55549101 354.53459931 103 358 C99.70060866 357.37390928 97.51293222 356.18520051 94.76953125 354.26953125 C93.96580078 353.71330078 93.16207031 353.15707031 92.33398438 352.58398438 C91.50189453 351.99939453 90.66980469 351.41480469 89.8125 350.8125 C88.17354872 349.67264253 86.53422698 348.53331755 84.89453125 347.39453125 C84.08967285 346.8320166 83.28481445 346.26950195 82.45556641 345.68994141 C79.25213302 343.48531167 75.99326941 341.36981392 72.72143555 339.26831055 C71 338 71 338 70 336 C69.97701148 334.26692107 70.00952447 332.53294633 70.0703125 330.80078125 C70.78330091 319.22381294 70.78330091 319.22381294 66.62890625 308.99609375 C63.8048044 307.31963488 61.05104539 306.19107288 58 305 C56.65617186 303.67724474 55.32391411 302.34268648 54 301 C50.94090085 298.66734438 47.74433487 296.53642839 44.5625 294.375 C43.71623047 293.78976562 42.86996094 293.20453125 41.99804688 292.6015625 C41.17498047 292.03953125 40.35191406 291.4775 39.50390625 290.8984375 C38.75955322 290.38974121 38.0152002 289.88104492 37.24829102 289.35693359 C34.90266879 287.94125672 32.5665201 286.94729926 30 286 C29.34 287.32 28.68 288.64 28 290 C24.28080205 289.352422 21.69484147 287.68426471 18.5625 285.625 C15.07787048 283.3471476 11.58326772 281.12004587 8 279 C7.7525 279.70125 7.505 280.4025 7.25 281.125 C6 284 6 284 3.8125 287.125 C3.214375 288.07375 2.61625 289.0225 2 290 C3.31748079 293.95244236 5.02577298 294.47117866 8.5625 296.5625 C10.40742759 297.65535519 12.22985153 298.78976669 14 300 C14 300.66 14 301.32 14 302 C15.65 302.66 17.3 303.32 19 304 C18.35455571 307.48539917 16.89865603 310.02819057 15 313 C10.61824086 311.49838591 7.09703811 309.12705494 3.375 306.4375 C-1.0343775 303.22115276 -1.0343775 303.22115276 -6 301 C-6.226875 301.70125 -6.45375 302.4025 -6.6875 303.125 C-7.86057702 305.69459729 -8.84286021 307.07540023 -10.6875 309.125 C-11.450625 310.07375 -12.21375 311.0225 -13 312 C-11.76884358 315.69346926 -10.87119351 315.86090074 -7.5 317.5625 C-3.10180276 319.79639449 -3.10180276 319.79639449 -2 322 C-1.01 322 -0.02 322 1 322 C1 322.66 1 323.32 1 324 C2.32 324.33 3.64 324.66 5 325 C4.33333333 327.66666667 3.66666667 330.33333333 3 333 C3.7940625 333.48210937 4.588125 333.96421875 5.40625 334.4609375 C6.4271875 335.09257812 7.448125 335.72421875 8.5 336.375 C9.5209375 337.00148438 10.541875 337.62796875 11.59375 338.2734375 C12.3878125 338.84320313 13.181875 339.41296875 14 340 C14 340.66 14 341.32 14 342 C14.55300781 342.26296875 15.10601563 342.5259375 15.67578125 342.796875 C18.28232541 344.14614492 20.71609497 345.66658899 23.1875 347.25 C24.15300781 347.86359375 25.11851562 348.4771875 26.11328125 349.109375 C27.94841657 350.31127688 29.76177774 351.54763745 31.54296875 352.828125 C32.31253906 353.37984375 33.08210937 353.9315625 33.875 354.5 C34.55304688 355.0053125 35.23109375 355.510625 35.9296875 356.03125 C38.74843544 357.3502113 40.04856573 356.9138515 43 356 C46.21109983 354.74598534 49.37917252 353.40910989 52.55078125 352.05859375 C57.21848256 350.62603763 61.43743606 349.73228089 65.91430664 351.94702148 C67.8161568 353.21600384 69.59518525 354.56529094 71.375 356 C75.28411121 359.53219267 75.28411121 359.53219267 80 361 C80 361.66 80 362.32 80 363 C80.99 363 81.98 363 83 363 C83 363.66 83 364.32 83 365 C83.53625 365.0825 84.0725 365.165 84.625 365.25 C87.8352431 366.26376098 90.26292392 368.07160549 93 370 C92.49063021 374.64476185 90.38657012 377.70656446 87.6875 381.375 C84.52293533 385.79714005 81.56636814 390.20200739 79 395 C78.34 395 77.68 395 77 395 C76.73960937 395.54785156 76.47921875 396.09570312 76.2109375 396.66015625 C74.81779278 399.35207137 73.25023723 401.87899335 71.625 404.4375 C71.03976562 405.36433594 70.45453125 406.29117187 69.8515625 407.24609375 C68.02733463 409.95934407 66.06634131 412.46811935 64 415 C62.91002336 416.4324693 61.82608587 417.86956668 60.75 419.3125 C59.96882812 420.35857422 59.96882812 420.35857422 59.171875 421.42578125 C58.78515625 421.94527344 58.3984375 422.46476562 58 423 C52.73360474 421.75269586 49.04543814 419.08266491 44.73828125 415.96875 C42.05192843 414.03733513 39.32355959 412.19768549 36.5625 410.375 C23.67937843 401.81915937 10.96242127 393.01805175 -1.68457031 384.11767578 C-5.70575174 381.290755 -9.73935676 378.4880749 -13.81640625 375.7421875 C-14.56575439 375.23574707 -15.31510254 374.72930664 -16.0871582 374.20751953 C-17.49714087 373.25734496 -18.91088515 372.31272144 -20.32885742 371.37451172 C-21.92094707 370.29984602 -23.46641167 369.1566169 -25 368 C-25 367.34 -25 366.68 -25 366 C-25.54269531 365.7421875 -26.08539062 365.484375 -26.64453125 365.21875 C-29.4222487 363.78152306 -32.04159305 362.16738062 -34.6875 360.5 C-35.66074219 359.8915625 -36.63398437 359.283125 -37.63671875 358.65625 C-40 357 -40 357 -41 355 C-41.99 355 -42.98 355 -44 355 C-44 354.34 -44 353.68 -44 353 C-44.55318216 352.88189248 -45.10636433 352.76378496 -45.67630959 352.64209843 C-50.89110214 351.20111039 -54.63067932 349.34225981 -58 345 C-59.95960874 338.4301731 -59.26033516 331.14926772 -59.13525391 324.37719727 C-59.1324321 322.24811436 -59.13401859 320.11902171 -59.13967896 317.98994446 C-59.14254705 312.21696148 -59.083778 306.44605824 -59.01393938 300.67355847 C-58.95140496 294.63851306 -58.94555047 288.60341938 -58.9336853 282.56809998 C-58.90261001 271.1426824 -58.82055713 259.71822224 -58.72019041 248.29322618 C-58.60839698 235.2849825 -58.55342916 222.27669297 -58.50323606 209.26808846 C-58.39872384 182.51152827 -58.22284386 155.75581779 -58 129 C-53.64075122 128.1419191 -49.28080184 127.28752041 -44.92016602 126.43652344 C-43.43689499 126.14651922 -41.95381999 125.85551054 -40.47094727 125.56347656 C-38.33921256 125.14383813 -36.20679854 124.72781954 -34.07421875 124.3125 C-32.79119873 124.06113281 -31.50817871 123.80976563 -30.1862793 123.55078125 C-27 123 -27 123 -24 123 C-25.36538725 118.19554361 -28.06701741 115.97490865 -32 113.1875 C-32.5465625 112.78080078 -33.093125 112.37410156 -33.65625 111.95507812 C-36.5320215 109.69042277 -36.5320215 109.69042277 -40 109 C-40.66 108.34 -41.32 107.68 -42 107 C-43.42358265 106.02111213 -44.86312027 105.06526987 -46.3125 104.125 C-49.69162502 101.90303516 -52.86792008 99.56261085 -56 97 C-56.66 96.67 -57.32 96.34 -58 96 C-58 71.25 -58 46.5 -58 21 C-50.08 18.03 -42.16 15.06 -34 12 C-26.19722137 8.87019964 -26.19722137 8.87019964 -18.3984375 5.73046875 C-4.0054878 0 -4.0054878 0 0 0 Z " fill="#000100" transform="translate(568,140)"/>
<path d="M0 0 C0.79575439 0.16990448 1.59150879 0.33980896 2.41137695 0.51486206 C16.05404537 3.47097315 29.4697355 7.0872048 42 13.375 C46.49195858 15.5694089 50.92070296 17.66434653 55.625 19.375 C61.11083231 21.51804634 65.48201173 24.81838581 70.1875 28.3125 C71.5777545 29.3122259 72.96983596 30.30941384 74.36328125 31.3046875 C90.29751047 42.69893007 105.58932422 54.63430604 120.265625 67.6171875 C121.72471142 68.9042678 123.1956197 70.17796125 124.671875 71.4453125 C125.50203125 72.16460937 126.3321875 72.88390625 127.1875 73.625 C127.950625 74.28113281 128.71375 74.93726563 129.5 75.61328125 C131.1875 77.3125 131.1875 77.3125 131.1875 79.3125 C126.57790567 79.94347109 122.07927004 80.54043073 118.0390625 77.91796875 C117.34554687 77.28503906 116.65203125 76.65210938 115.9375 76 C104.16747631 65.4163947 87.13225502 59.79592651 72.1875 55.3125 C70.28271139 54.67822503 68.37794135 54.04382595 66.47680664 53.39868164 C63.38650016 52.35150088 60.28593008 51.33534723 57.1875 50.3125 C56.01574219 49.91546875 54.84398437 49.5184375 53.63671875 49.109375 C47.58393475 47.12668682 42.56319055 45.81244584 36.1875 46.3125 C35.6925 47.3025 35.6925 47.3025 35.1875 48.3125 C35.62320313 48.7971875 36.05890625 49.281875 36.5078125 49.78125 C39.59577416 53.25687784 42.56672251 56.74600734 45.3125 60.5 C47.69224532 63.74050427 50.30301431 66.50392183 53.1875 69.3125 C55.4058289 71.85705374 57.06921199 74.06012885 58.50390625 77.12109375 C60.31523052 80.55462491 62.41230232 83.05168046 65 85.9375 C69.18469666 90.75901476 72.07998018 95.56669859 74.765625 101.390625 C76.19010336 104.31784976 77.81687631 106.92081501 79.625 109.625 C92.89901799 130.15779471 102.36342475 156.61372456 108.375 180.1875 C108.67792969 181.36054688 108.98085938 182.53359375 109.29296875 183.7421875 C109.58816406 184.92039062 109.88335938 186.09859375 110.1875 187.3125 C110.52523437 188.58222656 110.86296875 189.85195313 111.2109375 191.16015625 C112.33851914 195.69008347 112.99843341 200.25285966 113.625 204.875 C113.81231689 206.22779053 113.81231689 206.22779053 114.00341797 207.60791016 C114.2671628 209.52392907 114.52850346 211.44028026 114.78759766 213.35693359 C115.18968453 216.32864525 115.60070471 219.29904282 116.01171875 222.26953125 C119.61429375 248.63994619 120.00926266 274.16907399 117 300.625 C116.88568634 301.65008667 116.77137268 302.67517334 116.65359497 303.73132324 C112.22313002 343.22316784 101.91770847 379.30023849 83.47045898 414.58007812 C82.4834011 416.46926966 81.50591536 418.36320656 80.52929688 420.2578125 C77.65076023 425.80378078 74.6952343 431.1313884 71.1875 436.3125 C70.589375 437.385 69.99125 438.4575 69.375 439.5625 C67.17306465 443.48280843 64.58576763 447.09864666 61.984375 450.76171875 C60.3022575 453.14959425 58.67302598 455.56345684 57.0625 458 C55.26742762 460.69975077 53.47224412 463.39809494 51.625 466.0625 C51.27308594 466.57296875 50.92117188 467.0834375 50.55859375 467.609375 C48.61181719 470.02759318 46.39206479 472.12620508 44.1875 474.3125 C41.60556757 477.00261891 39.05232488 479.71931114 36.5 482.4375 C35.82388672 483.15292969 35.14777344 483.86835937 34.45117188 484.60546875 C33.80341797 485.29511719 33.15566406 485.98476563 32.48828125 486.6953125 C31.90216064 487.31809082 31.31604004 487.94086914 30.7121582 488.58251953 C29.00336332 490.44355046 29.00336332 490.44355046 27.1875 493.3125 C26.5275 493.3125 25.8675 493.3125 25.1875 493.3125 C25.1875 493.9725 25.1875 494.6325 25.1875 495.3125 C24.506875 495.910625 23.82625 496.50875 23.125 497.125 C22.485625 497.846875 21.84625 498.56875 21.1875 499.3125 C21.57010137 502.93810348 22.80257818 505.89767035 24.3125 509.1875 C31.81584178 527.05156082 35.80900891 545.01031897 37.1875 564.3125 C37.2508252 565.1257373 37.31415039 565.93897461 37.37939453 566.77685547 C39.13099194 592.43583567 34.05051101 627.85928599 19.1875 649.3125 C18.3149578 650.86481345 17.4596573 652.42699201 16.625 654 C14.0646309 658.62357915 11.21598318 662.98309794 8.1875 667.3125 C7.59839844 668.18261719 7.00929688 669.05273438 6.40234375 669.94921875 C-12.18322216 696.1981972 -38.98938373 714.98214763 -70.453125 721.796875 C-73.95761184 722.33477298 -77.27258319 722.4023456 -80.8125 722.3125 C-79.39682401 719.00925603 -77.72255516 717.07692573 -75 714.75 C-74.33355469 714.17121094 -73.66710937 713.59242188 -72.98046875 712.99609375 C-70.8125 711.3125 -70.8125 711.3125 -68.390625 709.8828125 C-60.441952 705.04134804 -54.25466134 698.49977262 -50.03125 690.24609375 C-48.8125 688.3125 -48.8125 688.3125 -45.8125 687.3125 C-45.11597994 685.99451592 -44.45608251 684.65712775 -43.8125 683.3125 C-42.33238007 681.4424254 -40.82912765 679.59059083 -39.3125 677.75 C-14.45997405 646.30775466 -5.02527992 601.45598826 -8.3515625 562.21484375 C-11.66901402 534.12896178 -20.55877862 507.60098049 -37.87890625 484.96484375 C-39.8125 482.3125 -39.8125 482.3125 -40.8125 479.3125 C-37.50473006 475.74901717 -33.84333185 473.07235145 -29.875 470.3125 C-25.74739376 467.42361334 -21.7433358 464.46814479 -17.8125 461.3125 C-16.389375 460.44625 -16.389375 460.44625 -14.9375 459.5625 C-12.29048698 457.65665062 -10.68232306 456.13271929 -8.625 453.6875 C-3.71389172 447.85760978 1.99280582 441.70566942 8.65234375 437.90625 C12.04169075 435.77550489 14.46146447 433.08763782 17.125 430.125 C17.65279053 429.54419678 18.18058105 428.96339355 18.72436523 428.36499023 C25.40797424 420.96781665 25.40797424 420.96781665 30.5546875 412.48828125 C32.33644878 409.02279819 34.41431528 406.05431157 36.75 402.9375 C37.53503906 401.87789063 38.32007813 400.81828125 39.12890625 399.7265625 C39.80824219 398.92992187 40.48757813 398.13328125 41.1875 397.3125 C41.8475 397.3125 42.5075 397.3125 43.1875 397.3125 C43.43371094 396.46300781 43.67992187 395.61351562 43.93359375 394.73828125 C45.29737322 391.01231677 47.14899836 387.83685859 49.25 384.5 C68.91404081 352.37553732 77.92693766 319.36468395 83.1875 282.3125 C83.32027344 281.41756836 83.45304688 280.52263672 83.58984375 279.60058594 C85.22951866 268.47751034 85.49741956 257.52945061 85.1875 246.3125 C85.15052002 244.96285156 85.15052002 244.96285156 85.11279297 243.5859375 C84.75186302 231.73918522 84.0856819 220.02327551 82.1875 208.3125 C82.0436084 207.39581543 81.8997168 206.47913086 81.75146484 205.53466797 C78.94897803 188.14695569 74.2404881 171.83597727 68.1875 155.3125 C67.90229492 154.52746094 67.61708984 153.74242187 67.32324219 152.93359375 C62.82401052 140.69934246 57.33150414 128.33309777 49.8046875 117.6328125 C47.73731263 114.666579 45.81299606 111.61382173 43.875 108.5625 C29.2567322 85.71624457 12.777907 65.93160909 -8.6328125 49.08984375 C-11.20312212 46.99398197 -13.46889918 44.65610082 -15.8125 42.3125 C-17.07087489 41.39924902 -18.34240434 40.50391017 -19.625 39.625 C-21.2028125 38.4803125 -21.2028125 38.4803125 -22.8125 37.3125 C-22.8125 36.6525 -22.8125 35.9925 -22.8125 35.3125 C-23.51246094 35.06886719 -24.21242188 34.82523438 -24.93359375 34.57421875 C-28.26231846 33.11536111 -30.92576398 31.24830375 -33.875 29.125 C-44.27039942 21.63147154 -44.27039942 21.63147154 -55.8125 16.3125 C-56.4725 15.6525 -57.1325 14.9925 -57.8125 14.3125 C-59.3332704 13.56035002 -60.87807295 12.85582588 -62.4375 12.1875 C-63.25476563 11.83429688 -64.07203125 11.48109375 -64.9140625 11.1171875 C-65.54054688 10.85164063 -66.16703125 10.58609375 -66.8125 10.3125 C-67.125 8.0625 -67.125 8.0625 -66.8125 5.3125 C-50.84896385 -11.14989665 -19.8721034 -4.28417101 0 0 Z " fill="#000100" transform="translate(678.8125,107.6875)"/>
<path d="M0 0 C0.84175781 0.4228125 1.68351563 0.845625 2.55078125 1.28125 C4.6875 2.5 4.6875 2.5 6.6875 4.5 C6.8125 7.125 6.8125 7.125 6.6875 9.5 C6.130625 9.73074219 5.57375 9.96148437 5 10.19921875 C0.41416901 12.15904179 -3.78592018 14.30776076 -7.9609375 17.02734375 C-10.36673902 18.53396696 -12.82665916 19.92011283 -15.30688477 21.29980469 C-21.61878916 24.81555324 -27.46149969 28.61461515 -33.203125 33.03125 C-35.3125 34.5 -35.3125 34.5 -37.3125 34.5 C-37.3125 35.16 -37.3125 35.82 -37.3125 36.5 C-38.99363694 37.8337216 -40.73445478 39.09271116 -42.5 40.3125 C-46.48966524 43.14485777 -49.93543315 45.94975023 -53.3125 49.5 C-58.20283818 54.07255447 -63.17857192 58.43592155 -68.5 62.5 C-72.53673789 65.68160338 -75.52000749 69.01308088 -78.53515625 73.15625 C-80.4827008 75.72444062 -82.60755418 78.02504087 -84.8125 80.375 C-88.5920319 84.51843953 -91.58476324 88.79570737 -94.49609375 93.578125 C-96.51192725 96.82079911 -98.67746692 99.94221305 -100.875 103.0625 C-104.61358868 108.40289339 -108.02596596 113.87249898 -111.3125 119.5 C-112.3330241 121.16685603 -113.35386042 122.83352095 -114.375 124.5 C-120.08402889 134.06447697 -124.4451957 144.07075357 -128.3125 154.5 C-128.65861328 155.42425781 -129.00472656 156.34851563 -129.36132812 157.30078125 C-134.37607969 170.88857766 -138.2090172 184.3384782 -140.8125 198.5625 C-140.93633057 199.23868378 -141.06016113 199.91486755 -141.18774414 200.61154175 C-143.7203526 214.64983841 -144.70927744 228.50408212 -145.21289062 242.73828125 C-145.27451679 244.4468969 -145.34228719 246.15531811 -145.41992188 247.86328125 C-146.11795627 263.90382674 -143.65848118 279.67691554 -141.3125 295.5 C-141.1794043 296.4065332 -141.04630859 297.31306641 -140.90917969 298.24707031 C-139.31839776 308.81284226 -136.79562467 319.09532976 -133.90917969 329.37255859 C-133.3880491 331.2306322 -132.88397304 333.09347209 -132.3828125 334.95703125 C-126.54866466 355.47980795 -115.42867591 374.24234148 -104.45703125 392.3828125 C-103.3125 394.5 -103.3125 394.5 -103.3125 396.5 C-102.3225 396.83 -101.3325 397.16 -100.3125 397.5 C-98.48046875 399.65234375 -98.48046875 399.65234375 -96.5 402.4375 C-95.78585937 403.44167969 -95.07171875 404.44585938 -94.3359375 405.48046875 C-92.63009741 408.02605638 -91.10938969 410.57360041 -89.625 413.25 C-84.58339624 421.93664138 -75.83168733 433.7269087 -67.03125 438.8203125 C-63.17451021 441.20306841 -60.08602918 444.25704449 -56.8125 447.375 C-56.16152344 447.98730469 -55.51054687 448.59960938 -54.83984375 449.23046875 C-52.07522639 451.83870371 -49.35486043 454.45598088 -46.71875 457.1953125 C-44.0970006 459.70640365 -41.35796204 461.52985873 -38.3125 463.5 C-35.52643825 465.57121141 -32.80783286 467.72984326 -30.08007812 469.87695312 C-27.60974939 471.80222712 -25.1958254 473.56660242 -22.47265625 475.12109375 C-20.3125 476.5 -20.3125 476.5 -19.3125 479.5 C-20.28125 481.375 -20.28125 481.375 -21.8125 483.5 C-22.37453125 484.30953125 -22.9365625 485.1190625 -23.515625 485.953125 C-24.10859375 486.79359375 -24.7015625 487.6340625 -25.3125 488.5 C-48.45473958 521.52824484 -57.21869407 563.87817801 -50.3125 603.5 C-50.1271167 604.57024414 -50.1271167 604.57024414 -49.93798828 605.66210938 C-46.66502416 624.0224463 -41.0569355 641.32284908 -32.22070312 657.75683594 C-30.87002864 660.34925954 -29.70887662 663.02658193 -28.5 665.6875 C-25.7496943 671.27238261 -22.05562738 675.71480055 -17.91870117 680.31323242 C-14.3125 684.32504542 -14.3125 684.32504542 -14.3125 686.5 C-13.7040625 686.73847656 -13.095625 686.97695313 -12.46875 687.22265625 C-9.79948887 688.80390334 -9.18889685 690.18029478 -7.8125 692.9375 C-3.38552143 700.69879323 3.54080463 707.28236317 11.3515625 711.625 C15.33296848 713.86279259 17.66922322 716.11364068 20.6875 719.5 C20.6875 720.16 20.6875 720.82 20.6875 721.5 C5.55270386 721.97668649 -8.1746738 716.5335261 -21.3125 709.5 C-22.71242188 708.7575 -22.71242188 708.7575 -24.140625 708 C-41.82562891 697.95948165 -58.32916124 682.58519363 -69.3125 665.5 C-70.06384942 664.37936604 -70.81653255 663.25962553 -71.5703125 662.140625 C-76.42154628 654.85576568 -80.55862189 647.4172702 -84.3125 639.5 C-84.7986377 638.59137207 -85.28477539 637.68274414 -85.78564453 636.74658203 C-87.34495215 633.43099637 -88.22223742 630.40436892 -89.03125 626.8359375 C-89.32249756 625.55879883 -89.61374512 624.28166016 -89.91381836 622.96582031 C-90.21444837 621.60244892 -90.5139871 620.2388365 -90.8125 618.875 C-90.96590851 618.18192749 -91.11931702 617.48885498 -91.27737427 616.77478027 C-99.81582876 578.09479472 -99.91558656 540.62781428 -82.28125 504.14453125 C-81.24596973 501.31838308 -81.13024204 500.22593157 -82.3125 497.5 C-83.29270375 496.4805881 -84.29053008 495.47753644 -85.3125 494.5 C-85.3125 493.84 -85.3125 493.18 -85.3125 492.5 C-86.3025 492.17 -87.2925 491.84 -88.3125 491.5 C-89.8203125 490.00390625 -89.8203125 490.00390625 -91.4375 488.0625 C-94.22998815 484.77304362 -97.05397832 481.52282081 -99.9375 478.3125 C-100.65164063 477.51457031 -101.36578125 476.71664063 -102.1015625 475.89453125 C-103.61441211 474.25605631 -105.17792369 472.66333248 -106.78125 471.11328125 C-109.57138244 468.23272785 -111.89585614 465.15117175 -114.1875 461.875 C-114.61949707 461.26470947 -115.05149414 460.65441895 -115.49658203 460.02563477 C-118.73573055 455.41450553 -121.7959271 450.7066729 -124.7421875 445.90234375 C-126.27956413 443.44463197 -126.27956413 443.44463197 -128.2578125 441.19140625 C-130.34094708 438.46273757 -131.73127012 435.82271748 -133.20947266 432.74462891 C-134.40568171 430.3103779 -135.69462085 427.94517809 -137.01171875 425.57421875 C-147.55620114 406.58640104 -156.30014152 387.8056454 -163.359375 367.24365234 C-164.14640661 364.97811411 -164.963704 362.7311068 -165.8125 360.48828125 C-172.90161048 341.05968784 -174.87899527 320.2382164 -177.125 299.8125 C-177.23618164 298.83128174 -177.34736328 297.85006348 -177.46191406 296.83911133 C-180.7373195 267.57311933 -178.95209077 239.49888731 -174.25 210.49609375 C-173.4545747 205.54876587 -172.84341574 200.60616669 -172.3125 195.625 C-171.63993505 189.98489392 -170.40644791 184.97490122 -168.42480469 179.65771484 C-167.29923888 176.46235309 -166.39156518 173.26212002 -165.5078125 169.9921875 C-163.4519901 162.72294436 -160.87148722 155.75770463 -158.0625 148.75 C-157.57942383 147.53570312 -157.09634766 146.32140625 -156.59863281 145.0703125 C-150.97550227 131.02925493 -145.30470244 117.38154981 -137.3125 104.5 C-136.24774789 102.73051988 -135.18515463 100.95973844 -134.125 99.1875 C-133.63386719 98.37796875 -133.14273438 97.5684375 -132.63671875 96.734375 C-131.50620032 94.82683357 -130.46800411 92.89950783 -129.4375 90.9375 C-127.75934571 87.93374484 -125.64578034 85.58519793 -123.3125 83.0625 C-120.18329047 79.66143678 -118.12847912 76.53606827 -116.23828125 72.34765625 C-113.89654634 67.67406718 -109.96852275 64.15602275 -106.3125 60.5 C-102.50864669 56.27647273 -98.81256544 51.98008376 -95.3125 47.5 C-95.6425 46.84 -95.9725 46.18 -96.3125 45.5 C-102.01476101 45.27190956 -106.64098252 45.88881181 -112.0625 47.75 C-112.75786865 47.97816406 -113.4532373 48.20632812 -114.16967773 48.44140625 C-116.22102858 49.11693446 -118.26688375 49.80733718 -120.3125 50.5 C-121.36050781 50.84546875 -122.40851563 51.1909375 -123.48828125 51.546875 C-125.42761434 52.18719607 -127.36380922 52.83709405 -129.296875 53.49609375 C-131.37947265 54.18939375 -133.4744859 54.84609389 -135.578125 55.47265625 C-150.7044276 60.12049593 -166.38527687 66.35568484 -178.1640625 77.10546875 C-182.20427004 79.72793073 -186.70290567 79.13097109 -191.3125 78.5 C-188.7874519 72.13569748 -182.34703335 67.92339653 -177.3125 63.5 C-176.32894531 62.62988281 -175.34539062 61.75976562 -174.33203125 60.86328125 C-160.40731771 48.81200912 -145.35591157 38.09964166 -130.3125 27.5 C-129.36632812 26.82066406 -128.42015625 26.14132813 -127.4453125 25.44140625 C-117.33392433 18.22541558 -117.33392433 18.22541558 -112.37231445 17.03417969 C-108.19405641 15.95061579 -104.32924158 13.66903925 -100.47851562 11.734375 C-87.69620137 5.52548638 -73.95466957 2.13841285 -60.125 -0.8125 C-59.30554901 -0.98875916 -58.48609802 -1.16501831 -57.64181519 -1.34661865 C-39.11464235 -5.26100309 -17.54269796 -8.94868574 0 0 Z " fill="#000100" transform="translate(381.3125,108.5)"/>
<path d="M0 0 C0.98484375 -0.00128906 1.9696875 -0.00257813 2.984375 -0.00390625 C4.02078125 -0.00003906 5.0571875 0.00382813 6.125 0.0078125 C7.67960937 0.00201172 7.67960937 0.00201172 9.265625 -0.00390625 C10.25046875 -0.00261719 11.2353125 -0.00132812 12.25 0 C13.16007813 0.00112793 14.07015625 0.00225586 15.0078125 0.00341797 C17.125 0.1328125 17.125 0.1328125 18.125 1.1328125 C20.28109374 1.11384393 22.43718551 1.0945971 24.59326172 1.07373047 C37.03718327 1.36412864 49.03641483 5.78960624 60.09521484 11.15771484 C62.24328573 12.18963632 64.40902788 13.17409304 66.58203125 14.15234375 C84.19581465 22.139346 84.19581465 22.139346 90.03515625 28.07421875 C92.29160135 30.29692261 94.65073304 32.01295049 97.25 33.8203125 C113.77458626 45.81431683 125.2509303 61.3035154 133.125 80.1328125 C133.7666716 81.34336101 134.41278634 82.55156116 135.0625 83.7578125 C137.34542929 88.25422837 138.70571194 92.94831909 140.1171875 97.77734375 C141.06138451 100.92100743 142.13718334 103.98327667 143.25 107.0703125 C152.46767949 135.01367158 148.22832289 171.58594718 136.125 198.1328125 C134.90552852 200.28397457 133.61533766 202.33658591 132.234375 204.38671875 C130.86851164 206.53651074 130.00357803 208.83341769 129.03125 211.1796875 C121.42956366 227.5626322 106.36361061 240.33804422 93.125 252.1328125 C92.44050781 252.75671875 91.75601563 253.380625 91.05078125 254.0234375 C77.92515098 265.84449194 64.04914172 272.3775884 47.04101562 276.54199219 C45.06855415 277.08931191 45.06855415 277.08931191 43.14892578 278.14697266 C23.43889789 287.74758697 -11.78482385 283.97303721 -32.2265625 278.18359375 C-33.96555295 277.54963902 -35.69073533 276.87557668 -37.39453125 276.15234375 C-40.25653769 274.9759915 -43.14118132 274.19985332 -46.125 273.3828125 C-57.32762113 269.95941936 -67.02801024 264.57890762 -75.46875 256.43359375 C-78.08279123 253.934129 -80.81563237 251.65975965 -83.625 249.3828125 C-84.5428125 248.63644531 -85.460625 247.89007812 -86.40625 247.12109375 C-87.81641804 245.98537297 -89.2305559 244.85444966 -90.65625 243.73828125 C-94.95242694 240.3219065 -98.36894166 236.32437308 -101.875 232.1328125 C-102.96361328 230.85857422 -102.96361328 230.85857422 -104.07421875 229.55859375 C-110.95242561 221.37247659 -116.85863543 213.08641166 -120.875 203.1328125 C-121.82978508 201.31844085 -122.7885852 199.50617987 -123.75 197.6953125 C-129.39485323 186.46177374 -132.49618784 174.6062527 -133.875 162.1328125 C-133.98585938 161.25367188 -134.09671875 160.37453125 -134.2109375 159.46875 C-136.20750678 140.74416779 -136.88952672 119.10353767 -128.90625 101.625 C-127.60644752 98.48381068 -126.79928195 95.29509364 -125.9375 92.0078125 C-124.56371455 87.0102623 -122.97786409 83.13762282 -120.01953125 78.91015625 C-118.83433819 77.06966873 -118.18044969 75.39505786 -117.5 73.3203125 C-111.32447754 55.78319346 -96.42083224 42.06231394 -81.90234375 31.44140625 C-79.67183375 29.74046249 -77.63481501 28.03295995 -75.55859375 26.1640625 C-71.70047461 22.82655449 -67.52829905 20.50777446 -63 18.1953125 C-61.75706177 17.55408447 -61.75706177 17.55408447 -60.48901367 16.89990234 C-47.31831466 10.20854997 -34.33432123 5.23123848 -19.875 2.1328125 C-18.9984375 1.93429687 -18.121875 1.73578125 -17.21875 1.53125 C-14.79461744 1.11914747 -12.57993897 1.0669081 -10.125 1.1328125 C-8.70883013 1.17032693 -7.29089322 1.17961889 -5.875 1.1328125 C-4.22105883 -0.52112867 -2.27184587 0.00281567 0 0 Z M-8.125 15.2578125 C-9.14722656 15.37471436 -10.16945313 15.49161621 -11.22265625 15.61206055 C-24.04525515 17.34827909 -33.85264014 22.86276377 -43.91796875 30.703125 C-45.875 32.1328125 -45.875 32.1328125 -48.3515625 33.53125 C-51.11278846 35.28373087 -52.93220161 37.16051262 -55.0625 39.6328125 C-56.07376953 40.79296875 -56.07376953 40.79296875 -57.10546875 41.9765625 C-60.16952122 45.58830184 -60.16952122 45.58830184 -60.875 50.1328125 C-61.535 50.1328125 -62.195 50.1328125 -62.875 50.1328125 C-74.12312226 70.8706657 -79.86342601 90.65885986 -73.875 114.1328125 C-71.72809124 120.74028898 -69.03101295 126.949229 -65.875 133.1328125 C-65.215 133.1328125 -64.555 133.1328125 -63.875 133.1328125 C-63.75125 134.1846875 -63.75125 134.1846875 -63.625 135.2578125 C-62.69490995 138.8231577 -61.10813631 141.22296822 -58.875 144.1328125 C-58.215 144.1328125 -57.555 144.1328125 -56.875 144.1328125 C-56.38 146.1128125 -56.38 146.1128125 -55.875 148.1328125 C-55.215 148.1328125 -54.555 148.1328125 -53.875 148.1328125 C-53.606875 148.7721875 -53.33875 149.4115625 -53.0625 150.0703125 C-51.98832248 152.46412936 -51.98832248 152.46412936 -48.875 153.1328125 C-48.545 154.1228125 -48.215 155.1128125 -47.875 156.1328125 C-45.85991642 156.86605046 -45.85991642 156.86605046 -43.875 157.1328125 C-43.875 157.7928125 -43.875 158.4528125 -43.875 159.1328125 C-41.99132409 160.56090168 -40.0411573 161.90202641 -38.0625 163.1953125 C-36.98355469 163.90816406 -35.90460938 164.62101563 -34.79296875 165.35546875 C-31.96509899 167.22690917 -31.96509899 167.22690917 -28.875 168.1328125 C-27.885 167.8028125 -26.895 167.4728125 -25.875 167.1328125 C-25.545 167.7928125 -25.215 168.4528125 -24.875 169.1328125 C-22.60601922 170.06798027 -20.39188666 170.87909542 -18.0625 171.6328125 C-17.38759521 171.85348389 -16.71269043 172.07415527 -16.01733398 172.30151367 C1.35770823 177.79838988 20.54351184 177.37351185 37.125 169.1328125 C37.455 168.4728125 37.785 167.8128125 38.125 167.1328125 C38.67027344 167.36613281 39.21554687 167.59945312 39.77734375 167.83984375 C43.25654559 168.27402035 44.83493111 166.75695451 47.6875 164.8203125 C48.63753906 164.18480469 49.58757812 163.54929687 50.56640625 162.89453125 C51.41074219 162.31316406 52.25507812 161.73179687 53.125 161.1328125 C54.115 160.4728125 55.105 159.8128125 56.125 159.1328125 C56.125 158.4728125 56.125 157.8128125 56.125 157.1328125 C58.6 156.1428125 58.6 156.1428125 61.125 155.1328125 C61.125 154.4728125 61.125 153.8128125 61.125 153.1328125 C62.0840625 152.730625 62.0840625 152.730625 63.0625 152.3203125 C65.45631686 151.24613498 65.45631686 151.24613498 66.125 148.1328125 C66.785 148.1328125 67.445 148.1328125 68.125 148.1328125 C68.455 146.8128125 68.785 145.4928125 69.125 144.1328125 C69.785 144.1328125 70.445 144.1328125 71.125 144.1328125 C72.49319481 142.45073318 72.49319481 142.45073318 73.75 140.3203125 C74.19601562 139.61261719 74.64203125 138.90492188 75.1015625 138.17578125 C76.34894864 136.06660043 76.34894864 136.06660043 76.125 133.1328125 C76.785 133.1328125 77.445 133.1328125 78.125 133.1328125 C87.94406219 113.72379956 92.03720381 94.22763291 85.47460938 73.03222656 C82.78514978 65.02682409 79.62928549 57.30778054 75.125 50.1328125 C74.465 50.1328125 73.805 50.1328125 73.125 50.1328125 C72.99738281 49.29943359 72.99738281 49.29943359 72.8671875 48.44921875 C71.89538955 45.41618621 70.27040689 43.52366373 68.25 41.0703125 C67.55132813 40.21308594 66.85265625 39.35585938 66.1328125 38.47265625 C62.98286223 34.8017998 60.34582772 32.64035824 56.0703125 30.296875 C54.01244063 29.0654577 52.19406912 27.68076181 50.3125 26.1953125 C33.90758209 13.68577085 11.64769105 12.93830103 -8.125 15.2578125 Z M-75.875 43.1328125 C-76.596875 44.0403125 -77.31875 44.9478125 -78.0625 45.8828125 C-79.72253974 47.88230014 -81.19177754 49.38290003 -83.25 51.0078125 C-90.25586095 56.67922374 -96.1381155 64.51688651 -100.875 72.1328125 C-100.875 73.1228125 -100.875 74.1128125 -100.875 75.1328125 C-101.46539062 75.32617188 -102.05578125 75.51953125 -102.6640625 75.71875 C-105.79203629 77.71932688 -106.81750165 80.46410887 -108.25 83.7578125 C-108.54672607 84.41861816 -108.84345215 85.07942383 -109.14916992 85.76025391 C-123.286095 117.75177295 -126.06873628 154.74532629 -113.9375 187.9921875 C-109.79406244 198.68000803 -104.44708362 209.45261908 -96.875 218.1328125 C-96.215 218.1328125 -95.555 218.1328125 -94.875 218.1328125 C-94.38 220.1128125 -94.38 220.1128125 -93.875 222.1328125 C-93.215 222.1328125 -92.555 222.1328125 -91.875 222.1328125 C-91.545 223.1228125 -91.215 224.1128125 -90.875 225.1328125 C-90.215 225.1328125 -89.555 225.1328125 -88.875 225.1328125 C-88.6275 225.6896875 -88.38 226.2465625 -88.125 226.8203125 C-85.22619756 232.18309702 -80.7569481 238.17216313 -74.875 240.1328125 C-74.875 240.7928125 -74.875 241.4528125 -74.875 242.1328125 C-47.58336852 264.15219699 -11.05309312 272.06504303 23.2109375 268.70703125 C45.2920976 265.97084781 67.62708442 256.81052039 85.125 243.1328125 C85.785 242.8028125 86.445 242.4728125 87.125 242.1328125 C87.125 241.4728125 87.125 240.8128125 87.125 240.1328125 C88.115 239.8028125 89.105 239.4728125 90.125 239.1328125 C94.07696269 235.50127922 97.94352486 231.47317549 101.125 227.1328125 C101.125 226.4728125 101.125 225.8128125 101.125 225.1328125 C102.115 224.8028125 103.105 224.4728125 104.125 224.1328125 C104.125 223.4728125 104.125 222.8128125 104.125 222.1328125 C104.785 222.1328125 105.445 222.1328125 106.125 222.1328125 C106.455 220.8128125 106.785 219.4928125 107.125 218.1328125 C107.785 218.1328125 108.445 218.1328125 109.125 218.1328125 C130.14043768 193.06252896 133.88595105 162.60143383 133.125 131.1328125 C133.11098145 130.42576172 133.09696289 129.71871094 133.08251953 128.99023438 C132.75711276 115.90686923 129.15899571 104.17236254 124.1875 92.1953125 C123.70204712 91.02415894 123.70204712 91.02415894 123.20678711 89.8293457 C121.0071519 84.71905453 118.62220414 79.50003462 115.125 75.1328125 C114.465 75.1328125 113.805 75.1328125 113.125 75.1328125 C113.0321875 74.57851563 112.939375 74.02421875 112.84375 73.453125 C109.48191429 62.60024233 96.56592817 49.42676462 87.125 43.1328125 C87.8079783 47.84905456 89.61884636 51.86333968 91.5 56.1953125 C102.04918666 81.13511134 101.51028298 106.59920719 91.5546875 131.53515625 C89.90375623 135.68954888 88.49244801 139.8785298 87.125 144.1328125 C86.465 144.1328125 85.805 144.1328125 85.125 144.1328125 C83.75862347 145.85082532 83.75862347 145.85082532 82.5 148.0078125 C81.83097656 149.08675781 81.83097656 149.08675781 81.1484375 150.1875 C79.96980002 152.06146012 79.96980002 152.06146012 80.125 154.1328125 C79.465 154.1328125 78.805 154.1328125 78.125 154.1328125 C76.39733022 155.76175829 74.75909079 157.41339059 73.125 159.1328125 C71.92237234 160.38830291 70.71384911 161.63816806 69.5 162.8828125 C68.64535156 163.77226563 68.64535156 163.77226563 67.7734375 164.6796875 C66.125 166.1328125 66.125 166.1328125 63.125 167.1328125 C63.125 167.7928125 63.125 168.4528125 63.125 169.1328125 C61.805 169.4628125 60.485 169.7928125 59.125 170.1328125 C59.125 170.7928125 59.125 171.4528125 59.125 172.1328125 C58.42375 172.39320313 57.7225 172.65359375 57 172.921875 C53.88300395 174.23474018 51.05971535 175.82768796 48.125 177.5078125 C27.73941518 188.5624532 3.3307261 190.06289658 -18.875 184.1328125 C-19.89722656 183.86597656 -20.91945313 183.59914063 -21.97265625 183.32421875 C-29.30651903 181.15014876 -35.53889198 177.67427463 -42.0390625 173.7421875 C-44.62144269 171.96829365 -44.62144269 171.96829365 -46.875 172.1328125 C-46.875 171.4728125 -46.875 170.8128125 -46.875 170.1328125 C-48.855 169.6378125 -48.855 169.6378125 -50.875 169.1328125 C-50.875 168.4728125 -50.875 167.8128125 -50.875 167.1328125 C-52.5251819 166.10583759 -54.19543536 165.1109947 -55.875 164.1328125 C-57.49038989 162.81705138 -59.07458351 161.46204542 -60.625 160.0703125 C-61.40359375 159.37808594 -62.1821875 158.68585938 -62.984375 157.97265625 C-64.875 156.1328125 -64.875 156.1328125 -65.875 154.1328125 C-66.535 154.1328125 -67.195 154.1328125 -67.875 154.1328125 C-69.54166667 150.79947917 -71.20833333 147.46614583 -72.875 144.1328125 C-73.535 144.1328125 -74.195 144.1328125 -74.875 144.1328125 C-75.05023193 143.59043945 -75.22546387 143.04806641 -75.40600586 142.48925781 C-76.72206866 138.47175764 -78.09344396 134.49403623 -79.62890625 130.5546875 C-89.99831386 103.92512427 -89.02341175 78.31996719 -77.875 52.1328125 C-77.2975 51.05257812 -76.72 49.97234375 -76.125 48.859375 C-74.49727203 46.12796811 -74.49727203 46.12796811 -75.875 43.1328125 Z " fill="#000100" transform="translate(493.875,544.8671875)"/>
<path d="M0 0 C5.81449629 1.46746811 9.90266326 4.53736131 14.625 8.0625 C15.42188232 8.6495874 16.21876465 9.2366748 17.03979492 9.84155273 C18.63524511 11.01868268 20.22831908 12.19904097 21.81884766 13.3828125 C23.66386342 14.75077584 25.51960404 16.10000231 27.38671875 17.4375 C32.49704698 21.14914026 37.31020465 25.07369081 41.93359375 29.375 C42.49085144 29.89195938 43.04810913 30.40891876 43.62225342 30.94154358 C49.81214545 36.71414133 55.87259552 42.61594608 61.87646484 48.58129883 C63.12821518 49.82146795 64.38443543 51.0571412 65.64501953 52.28833008 C76.35346984 62.74919415 85.40656371 73.36398382 91.6875 87.125 C92.05488281 87.91632324 92.42226563 88.70764648 92.80078125 89.52294922 C95.39509294 95.27510971 97.57258545 101.11813957 99.5 107.125 C99.86484497 108.26026123 99.86484497 108.26026123 100.23706055 109.41845703 C106.68204933 130.74499781 104.88525116 159.1928451 97 180 C96.34 180.66 95.68 181.32 95 182 C93.68 182 92.36 182 91 182 C90.05635444 180.60568963 89.12339659 179.20256184 88.25488281 177.76025391 C85.76684278 174.27022109 82.21553871 171.82265582 78.875 169.1875 C77.34105385 167.95225001 75.80849553 166.71527456 74.27734375 165.4765625 C73.53983887 164.88133789 72.80233398 164.28611328 72.04248047 163.67285156 C68.6273601 160.87576756 65.37389616 157.9215211 62.12109375 154.9375 C60.11345871 153.10363816 58.06607803 151.32991725 56 149.5625 C52.02835487 146.11133256 48.35678118 142.39345094 44.6875 138.625 C42.57635335 136.56294978 40.44546717 134.63599091 38.2109375 132.71484375 C33.78630051 128.88036579 29.71550929 124.74709241 25.625 120.5625 C20.32320159 115.18619108 15.09053501 110.09610695 8.98046875 105.640625 C7 104 7 104 5.05859375 101.5625 C2.87815125 98.8483249 0.60711551 96.90064486 -2.125 94.75 C-5.8157187 91.80035031 -9.35993581 88.78679548 -12.8125 85.5625 C-20.15731336 78.86506603 -28.4106343 72.99569112 -37 68 C-36.4827961 63.41905116 -35.35681528 60.45551439 -32.8125 56.625 C-32.18472656 55.67625 -31.55695312 54.7275 -30.91015625 53.75 C-28.7700808 50.66899159 -26.54962887 47.66662181 -24.265625 44.69140625 C-22.66671247 42.55458796 -21.34783523 40.30255185 -20 38 C-19.57074219 37.401875 -19.14148438 36.80375 -18.69921875 36.1875 C-14.78236821 30.68164292 -12.21733907 25.03612389 -9.65625 18.796875 C-6.91110934 12.30277358 -3.40276915 6.16643953 0 0 Z " fill="#000100" transform="translate(786,510)"/>
<path d="M0 0 C1.40497506 2.38156753 2.62835782 4.69891091 3.8125 7.1875 C4.1636084 7.90421875 4.5147168 8.6209375 4.87646484 9.359375 C7.12937633 14.01081173 9.16220713 18.71990021 11.125 23.5 C13.10463245 28.22230381 15.20272288 32.06872273 18.4375 36.01953125 C20.29221397 38.37038121 21.85094862 40.83580952 23.4375 43.375 C26.31358525 47.9703451 29.35246646 52.40949003 32.51953125 56.80859375 C35.05558944 60.56249518 36 62.35123984 36 67 C34.453125 68.38671875 34.453125 68.38671875 32.25 69.6875 C23.34477482 75.25151824 15.22790322 81.61917638 7.515625 88.734375 C3.97502247 91.92311641 0.26714318 94.88883705 -3.45703125 97.859375 C-6.13165304 100.11082314 -8.54082831 102.51536352 -11 105 C-13.462985 107.32986043 -15.9529063 109.63072055 -18.4375 111.9375 C-24.51020908 117.59565145 -30.42626482 123.38112023 -36.26245117 129.28198242 C-39.74316698 132.78682449 -43.30619416 136.10874816 -47.08203125 139.296875 C-49.48061231 141.4267759 -51.69533771 143.70633322 -53.9375 146 C-57.64295122 149.75063965 -61.44619097 153.00914297 -65.66015625 156.1640625 C-69.34004405 159.05145359 -72.71300824 162.26249423 -76.14453125 165.4375 C-79.88957499 168.79830532 -83.81389689 171.90406329 -87.78515625 174.9921875 C-89.91971411 176.92721879 -90.9484677 178.35037625 -92 181 C-94.3125 181 -94.3125 181 -97 180 C-106.95428015 160.47429663 -107.62735683 128.56244552 -101 108 C-100.71793701 107.05833984 -100.71793701 107.05833984 -100.43017578 106.09765625 C-97.80408022 97.38996628 -94.34337517 89.21208668 -90.1875 81.125 C-89.62083618 80.00315308 -89.62083618 80.00315308 -89.04272461 78.85864258 C-82.2323512 66.09076793 -71.49667649 56.17908716 -61.34399414 46.08325195 C-59.06357434 43.81356928 -56.79406671 41.5333677 -54.52539062 39.25195312 C-47.34093135 32.05972968 -40.21975852 25.02267925 -32 19 C-30.87694458 18.15828247 -30.87694458 18.15828247 -29.73120117 17.29956055 C-4.45479048 -1.48493016 -4.45479048 -1.48493016 0 0 Z " fill="#000100" transform="translate(215,511)"/>
<path d="M0 0 C3.94311163 0.56071771 5.89439727 2.44218852 8.75 5.125 C9.63816406 5.94871094 10.52632812 6.77242187 11.44140625 7.62109375 C12.28574219 8.40613281 13.13007812 9.19117188 14 10 C15.22413646 11.06829157 16.4529579 12.13125063 17.6875 13.1875 C27.12404871 21.41324918 36.23984658 30.05984343 45 39 C45.804375 39.76828125 46.60875 40.5365625 47.4375 41.328125 C50.58331697 44.60821464 53.01891186 48.17501348 55.55273438 51.93530273 C55.94525391 52.51610596 56.33777344 53.09690918 56.7421875 53.6953125 C57.12600586 54.26411133 57.50982422 54.83291016 57.90527344 55.41894531 C58.83654107 56.76392505 59.82308213 58.07036003 60.8203125 59.3671875 C66.70394638 67.05696015 70.23425901 75.87956653 74.01464844 84.7265625 C74.81041244 86.56257697 75.65214459 88.37862689 76.5078125 90.1875 C89.8114907 118.97030064 87.61536349 152.4527734 81.125 182.625 C80.91955566 183.64557495 80.91955566 183.64557495 80.70996094 184.68676758 C79.59702036 189.39993873 77.63446401 191.86932308 74 195 C64.75837266 190.88099415 57.77550895 181.70900793 51.0534668 174.39233398 C47.41576114 170.45261126 43.70603879 166.77023494 39.5859375 163.328125 C37.23918939 161.36286796 35.13734983 159.18948031 33 157 C32.32066406 156.33097656 31.64132812 155.66195312 30.94140625 154.97265625 C24.35074255 148.47090538 18.34813856 141.67187263 12.5 134.5 C5.65739337 125.83011948 5.65739337 125.83011948 -2.3125 118.25 C-4.92738806 116.06079139 -5.84303883 115.09917603 -7 112 C-7.04345703 109.52075195 -7.04345703 109.52075195 -6.7578125 106.73828125 C-6.66064941 105.71049561 -6.56348633 104.68270996 -6.46337891 103.6237793 C-6.35171387 102.53105713 -6.24004883 101.43833496 -6.125 100.3125 C-4.04037292 76.83610789 -4.46868917 55.26717633 -16 34 C-17.12921875 32.69869141 -17.12921875 32.69869141 -18.28125 31.37109375 C-20 29 -20 29 -19.97265625 26.48046875 C-18.84063854 23.59359628 -17.43846347 21.68154676 -15.4375 19.3125 C-14.72207031 18.45398438 -14.00664063 17.59546875 -13.26953125 16.7109375 C-12.52058594 15.81632813 -11.77164063 14.92171875 -11 14 C-8.88170673 11.31608916 -6.77221204 8.62547393 -4.6640625 5.93359375 C-3 4 -3 4 -1 3 C-0.67 2.01 -0.34 1.02 0 0 Z " fill="#000100" transform="translate(739,586)"/>
<path d="M0 0 C0.495 1.485 0.495 1.485 1 3 C2.64037878 4.69254631 4.31219426 6.35474399 6 8 C7.92284804 10.12660246 9.77524265 12.30976534 11.625 14.5 C12.10195313 15.05558594 12.57890625 15.61117187 13.0703125 16.18359375 C20.10430276 24.48761003 20.10430276 24.48761003 19.859375 28.0390625 C18.85683821 30.32666919 17.62939484 32.29168718 16.25 34.375 C3.20010554 55.78058227 4.01393393 79.675193 6.46362305 103.62280273 C6.56070557 104.65091064 6.65778809 105.67901855 6.7578125 106.73828125 C6.8520752 107.65649658 6.94633789 108.57471191 7.04345703 109.52075195 C6.99521179 112.27316991 6.45876939 113.69091825 5 116 C3.3359375 117.60546875 3.3359375 117.60546875 1.375 119.1875 C-4.40651533 124.08921952 -9.27777917 129.62624134 -13.73828125 135.7421875 C-17.18745824 140.37587025 -21.07261236 144.51879387 -25.0625 148.6875 C-25.75666016 149.42033203 -26.45082031 150.15316406 -27.16601562 150.90820312 C-32.42976471 156.45188569 -37.79033818 161.83710037 -43.41796875 167.01147461 C-48.71938855 171.89028872 -53.8980328 176.72309312 -58.5234375 182.26171875 C-62.55291446 187.00541517 -67.0400479 191.24246053 -72 195 C-74.92306295 193.68966144 -77.00302675 192.52111321 -79 190 C-79.8102864 187.55722481 -80.4483874 185.25162674 -81 182.75 C-81.16661133 182.00838623 -81.33322266 181.26677246 -81.50488281 180.50268555 C-89.55948207 142.94407382 -86.74339806 108.03413507 -68.89746094 73.76123047 C-67.73385272 71.47769682 -66.69025475 69.14321695 -65.625 66.8125 C-62.9313771 61.37928794 -59.17505873 56.78996759 -55.40234375 52.078125 C-52.97788146 49.06399366 -52.97788146 49.06399366 -51.00390625 45.921875 C-48.90692035 42.86428153 -46.67917989 40.56069975 -44 38 C-42.76136072 36.75554552 -41.52595101 35.50787208 -40.29296875 34.2578125 C-38.9245318 32.88015605 -37.55604103 31.50255306 -36.1875 30.125 C-35.51396484 29.44308594 -34.84042969 28.76117187 -34.14648438 28.05859375 C-30.19989819 24.09312438 -26.15525891 20.31740176 -21.91723633 16.66552734 C-18.38734578 13.59906697 -14.99404427 10.38376512 -11.58203125 7.1875 C-3.8573212 0 -3.8573212 0 0 0 Z " fill="#000100" transform="translate(261,586)"/>
<path d="M0 0 C3.53093671 1.67329001 7.07722828 3.27767612 10.67797852 4.7956543 C19.6733262 8.6035124 27.51997336 12.56178009 35.09985352 18.84643555 C36.12208008 19.66885742 37.14430664 20.4912793 38.19750977 21.33862305 C44.09687834 26.15138226 49.68770696 31.24242577 55.09985352 36.59643555 C55.62756348 37.11488037 56.15527344 37.6333252 56.69897461 38.16748047 C66.09985352 47.64507055 66.09985352 47.64507055 66.09985352 51.84643555 C66.75985352 51.84643555 67.41985352 51.84643555 68.09985352 51.84643555 C81.78543599 65.96533461 84.48040132 94.19649971 85.09985352 112.84643555 C84.95057784 120.65991119 84.37184245 128.66198324 81.09985352 135.84643555 C77.96828025 135.22431497 75.75945687 134.15949479 73.09985352 132.40893555 C71.06063541 131.07468151 69.11710973 129.85460143 66.91235352 128.8112793 C65.09985352 127.84643555 65.09985352 127.84643555 64.09985352 125.84643555 C62.47624731 124.91835578 60.85015545 123.99438807 59.21264648 123.09106445 C55.15832047 120.70269445 51.43626755 117.83664375 47.66235352 115.03393555 C46.85475586 114.44290039 46.0471582 113.85186523 45.21508789 113.24291992 C40.62925247 109.85435338 36.28698883 106.31045098 32.03125 102.51806641 C28.93720957 99.84016288 25.66098366 97.43433562 22.34985352 95.03393555 C21.38112305 94.31947266 21.38112305 94.31947266 20.39282227 93.59057617 C17.89955616 91.77054311 15.55039633 90.06641534 12.77172852 88.7097168 C11.09985352 87.84643555 11.09985352 87.84643555 9.09985352 84.84643555 C7.42404997 83.89352765 5.74632229 82.94359503 4.05297852 82.0222168 C0.77039508 80.04610157 -2.27340312 77.64084338 -4.90014648 74.84643555 C-4.90014648 74.18643555 -4.90014648 73.52643555 -4.90014648 72.84643555 C-5.41061523 72.61827148 -5.92108398 72.39010742 -6.44702148 72.1550293 C-9.86065038 70.33406484 -12.98089967 68.11760731 -16.15014648 65.90893555 C-17.57979381 64.91929418 -19.00948256 63.92971264 -20.43920898 62.94018555 C-21.17300781 62.43100586 -21.90680664 61.92182617 -22.6628418 61.3972168 C-26.27726249 58.89189159 -29.90122483 56.40048807 -33.52514648 53.90893555 C-34.17515625 53.46106689 -34.82516602 53.01319824 -35.49487305 52.55175781 C-36.11587891 52.12435303 -36.73688477 51.69694824 -37.37670898 51.2565918 C-38.26084473 50.6380835 -38.26084473 50.6380835 -39.1628418 50.00708008 C-40.84068193 48.88616214 -42.60123413 47.8922137 -44.36108398 46.9050293 C-46.90014648 44.84643555 -46.90014648 44.84643555 -47.41186523 42.0612793 C-46.82644679 38.38342142 -45.89094851 34.93084564 -44.71264648 31.40893555 C-44.48706055 30.71010254 -44.26147461 30.01126953 -44.02905273 29.29125977 C-42.13277228 23.44571188 -40.134809 17.63383842 -38.15795898 11.81518555 C-37.1971171 8.88003163 -36.36699407 5.92652485 -35.57983398 2.94018555 C-35.36133789 2.11437988 -35.1428418 1.28857422 -34.91772461 0.43774414 C-34.49588762 -1.18132776 -34.08534133 -2.80339197 -33.68725586 -4.4284668 C-33.1844578 -6.36338713 -32.55250919 -8.26381699 -31.90014648 -10.15356445 C-22.76397041 -13.19895648 -8.2381614 -3.91743998 0 0 Z " fill="#000100" transform="translate(839.900146484375,452.153564453125)"/>
<path d="M0 0 C0.19110352 0.69971924 0.38220703 1.39943848 0.57910156 2.12036133 C1.46470349 5.35238208 2.35731269 8.58242938 3.25 11.8125 C3.55035156 12.91271484 3.85070312 14.01292969 4.16015625 15.14648438 C5.89451598 21.4012498 7.82556408 27.50644071 10.09863281 33.58618164 C11.23725545 36.63535878 12.26656785 39.71000572 13.25 42.8125 C13.58515625 43.85019531 13.9203125 44.88789063 14.265625 45.95703125 C15.69838162 51.89382595 15.69838162 51.89382595 15 55 C12.26031133 57.42221061 9.14423395 59.15314125 6 61 C4.45386877 62.02524729 2.91592368 63.06295461 1.38671875 64.11328125 C0.61900146 64.63510986 -0.14871582 65.15693848 -0.93969727 65.69458008 C-1.72272217 66.22849365 -2.50574707 66.76240723 -3.3125 67.3125 C-4.13484131 67.87283936 -4.95718262 68.43317871 -5.80444336 69.01049805 C-11.625657 73.00021612 -17.2869052 77.14418821 -22.84765625 81.48828125 C-25 83 -25 83 -27 83 C-27.495 84.485 -27.495 84.485 -28 86 C-30.14453125 87.97265625 -30.14453125 87.97265625 -32.8125 90.0625 C-34.12154297 91.10083984 -34.12154297 91.10083984 -35.45703125 92.16015625 C-37.60694018 93.71562032 -39.63087745 94.84370375 -42 96 C-42.66 96.66 -43.32 97.32 -44 98 C-45.13296149 98.89160378 -46.2809572 99.76420515 -47.4375 100.625 C-48.15292969 101.15867187 -48.86835938 101.69234375 -49.60546875 102.2421875 C-51.24564459 103.44623176 -52.89458474 104.63840198 -54.55078125 105.8203125 C-59.46959483 109.33680152 -64.20319656 112.95924022 -68.8125 116.875 C-73.18959003 120.56816971 -77.65576944 124.04156481 -82.3125 127.375 C-83.15615112 127.98190674 -83.15615112 127.98190674 -84.0168457 128.60107422 C-86.86785778 130.61587334 -89.74583301 132.45817054 -92.79296875 134.1640625 C-95.97360679 135.79870121 -95.97360679 135.79870121 -98 138 C-100.5 139.5 -100.5 139.5 -103 141 C-104.79795625 142.31981843 -106.58177628 143.65434878 -108.3515625 145.01171875 C-110 146 -110 146 -113 146 C-121.29011127 122.9023944 -115.94392448 92.79510832 -106.02685547 70.84619141 C-104.35240661 67.63324239 -102.5275789 64.60760778 -100 62 C-99.34 62 -98.68 62 -98 62 C-97.77441406 61.29359375 -97.54882812 60.5871875 -97.31640625 59.859375 C-95.73098651 56.41567395 -93.52372492 53.95824576 -90.9375 51.25 C-90.44580322 50.72631836 -89.95410645 50.20263672 -89.44750977 49.66308594 C-87.97336308 48.10051429 -86.48819344 46.54918498 -85 45 C-84.21625 44.175 -83.4325 43.35 -82.625 42.5 C-77.44170576 37.16861164 -71.91923561 32.49269056 -66 28 C-65.28972656 27.42636719 -64.57945313 26.85273438 -63.84765625 26.26171875 C-56.12383546 20.35686454 -47.20243411 16.85570361 -38.33837891 13.02392578 C-35.32072251 11.70255901 -32.34876885 10.29198007 -29.375 8.875 C-24.13965806 6.46130339 -18.84535993 4.21928684 -13.5 2.0625 C-12.35023682 1.58369385 -12.35023682 1.58369385 -11.17724609 1.09521484 C-10.44844238 0.80727051 -9.71963867 0.51932617 -8.96875 0.22265625 C-8.00098633 -0.16780884 -8.00098633 -0.16780884 -7.01367188 -0.56616211 C-4.44385435 -1.11981945 -2.52232444 -0.64562099 0 0 Z " fill="#000100" transform="translate(192,442)"/>
<path d="M0 0 C5.11398233 -0.16658058 9.7185923 0.39657851 14.671875 1.57421875 C15.74547272 1.81992867 15.74547272 1.81992867 16.84075928 2.07060242 C19.14595001 2.60091484 21.44812032 3.14300726 23.75 3.6875 C25.34309249 4.06138822 26.93619148 4.43524878 28.52929688 4.80908203 C31.64127464 5.54134027 34.75167578 6.27990798 37.86132812 7.02197266 C41.18693931 7.81310835 44.5197464 8.56295863 47.859375 9.29296875 C64.47366352 13.06459839 78.91555824 21.18489111 92 32 C93.0828125 32.82177734 93.0828125 32.82177734 94.1875 33.66015625 C100.51591028 38.69074802 104.71482623 45.24985737 109 52 C109.64751221 53.00377686 109.64751221 53.00377686 110.30810547 54.02783203 C121.38961002 71.34846919 126.53985375 90.30150078 125 111 C124.67 111.66 124.34 112.32 124 113 C116.83562526 112.59589896 111.54882928 110.20158654 105.1875 107 C103.14726454 105.99973658 101.10689786 104.99974078 99.06640625 104 C98.05078613 103.49726563 97.03516602 102.99453125 95.98876953 102.4765625 C91.55024157 100.28376581 87.09163519 98.13482534 82.625 96 C81.88403076 95.6390625 81.14306152 95.278125 80.37963867 94.90625 C76.76799279 93.17639489 73.20799131 91.69049353 69.390625 90.47265625 C65.37659402 89.18820089 61.8364613 87.45313488 58.125 85.4375 C47.5606145 79.90989854 36.27549951 76.15384248 25.07763672 72.13232422 C22.20030213 71.07369517 19.35638126 69.95734348 16.515625 68.8046875 C13.25337657 67.48102971 10.02314277 66.3120294 6.625 65.375 C0.37963604 63.64582757 0.37963604 63.64582757 -2 62 C-3.28370826 58.33582303 -2.90550328 55.49213904 -2.125 51.75 C0.9174874 34.72851644 0.118772 17.21828589 0 0 Z " fill="#000100" transform="translate(813,365)"/>
<path d="M0 0 C-0.00785522 1.13876587 -0.00785522 1.13876587 -0.01586914 2.30053711 C-0.12610261 20.74301432 -0.13149546 38.86301222 2.6953125 57.12109375 C3 60 3 60 2 62 C-0.08203125 62.9296875 -0.08203125 62.9296875 -2.8125 63.875 C-3.81023437 64.22433594 -4.80796875 64.57367188 -5.8359375 64.93359375 C-8.86384343 65.95411019 -11.89949188 66.94754221 -14.9375 67.9375 C-18.90536785 69.24761635 -22.760407 70.68944412 -26.60546875 72.32421875 C-30.76834905 74.07618188 -34.94318906 75.78197003 -39.1484375 77.4296875 C-49.39204653 81.44837775 -59.51583512 85.43721105 -69.23046875 90.625 C-72 92 -72 92 -74.82324219 92.92285156 C-77.88808381 93.9620524 -80.68976734 95.19446851 -83.59765625 96.609375 C-85.16205444 97.3667395 -85.16205444 97.3667395 -86.75805664 98.1394043 C-87.84852295 98.67090088 -88.93898926 99.20239746 -90.0625 99.75 C-92.3123243 100.83499983 -94.56232251 101.91963909 -96.8125 103.00390625 C-100.29724272 104.68816366 -103.77746236 106.38059518 -107.25 108.08984375 C-112.9471724 110.8376545 -117.64364551 112.7507312 -124 113 C-129.23453717 102.53092566 -123.57689316 83.40047654 -120.09448242 72.59008789 C-118.10947962 66.84590146 -115.38802716 62.00730484 -112 57 C-111.4534375 56.10925781 -110.906875 55.21851563 -110.34375 54.30078125 C-99.79031102 37.10347273 -86.71865067 26.23991688 -69 17 C-68.14664063 16.52949219 -67.29328125 16.05898438 -66.4140625 15.57421875 C-58.18859279 11.38364033 -49.21983264 9.72495532 -40.27392578 7.74169922 C-36.57917702 6.90466367 -32.89682898 6.01992838 -29.21484375 5.12890625 C-27.18772116 4.64200721 -25.16038876 4.15599286 -23.13296509 3.67034912 C-21.80508727 3.35103847 -20.47774284 3.02950061 -19.15097046 2.70562744 C-17.27173142 2.24806069 -15.38979983 1.80159697 -13.5078125 1.35546875 C-12.42129395 1.09403076 -11.33477539 0.83259277 -10.21533203 0.56323242 C-6.75243634 -0.04336594 -3.50865704 -0.09609345 0 0 Z " fill="#000100" transform="translate(187,365)"/>
<path d="M0 0 C-0.268125 1.0725 -0.53625 2.145 -0.8125 3.25 C-1.08791626 4.3622998 -1.08791626 4.3622998 -1.36889648 5.49707031 C-1.79247081 7.17694806 -2.22968973 8.85343961 -2.67993164 10.52636719 C-4.71718862 18.25581962 -6.10738767 26.02543777 -7.30761719 33.91796875 C-7.62478864 35.99861349 -7.95239605 38.07742323 -8.28125 40.15625 C-9.39467257 47.30878668 -10.2963209 54.40689362 -10.66943359 61.64453125 C-11 64 -11 64 -13 67 C-15.11279297 67.55249023 -15.11279297 67.55249023 -17.7421875 67.80859375 C-19.20253418 67.96606079 -19.20253418 67.96606079 -20.69238281 68.12670898 C-21.74264648 68.22927002 -22.79291016 68.33183105 -23.875 68.4375 C-34.24504662 69.58809608 -44.33368687 71.29471862 -54.52929688 73.47949219 C-57.10402572 74.0219153 -59.68321105 74.53455117 -62.265625 75.0390625 C-63.14186523 75.21058838 -64.01810547 75.38211426 -64.92089844 75.55883789 C-66.56449189 75.87980848 -68.20834588 76.19944981 -69.85253906 76.51733398 C-75.21811104 77.57782484 -80.50914524 78.85417134 -85.81005859 80.19946289 C-91.37824208 81.59683574 -96.97011668 82.89104021 -102.5625 84.1875 C-103.72330078 84.46013672 -104.88410156 84.73277344 -106.08007812 85.01367188 C-107.74393555 85.39942383 -107.74393555 85.39942383 -109.44140625 85.79296875 C-110.43857666 86.0252417 -111.43574707 86.25751465 -112.46313477 86.49682617 C-115 87 -115 87 -118 87 C-120.70104534 81.59790932 -117.57468754 74.03208317 -115.8125 68.625 C-112.57730121 59.11716285 -108.11434129 50.96270889 -101.77734375 43.18359375 C-100.58927727 41.72396921 -99.43520911 40.23602531 -98.31640625 38.72265625 C-84.38047716 19.89466891 -64.15263018 9.7123585 -41.63818359 5.49707031 C-38.90724973 4.98252457 -36.1821688 4.44279767 -33.45703125 3.8984375 C-31.61735297 3.53561832 -29.7775127 3.17361937 -27.9375 2.8125 C-27.09396973 2.64548584 -26.25043945 2.47847168 -25.38134766 2.30639648 C-16.92693155 0.68861724 -8.6079032 -0.15940561 0 0 Z " fill="#000100" transform="translate(199,285)"/>
<path d="M0 0 C11.59452021 0.03180938 22.71808203 1.68599235 34.0625 3.9375 C34.73362823 4.07069641 35.40475647 4.20389282 36.09622192 4.34112549 C40.40298922 5.20172968 44.70164398 6.09853353 49 7 C49.88018799 7.17112305 50.76037598 7.34224609 51.66723633 7.51855469 C56.66796811 8.52562063 61.01811029 10.05976782 65.5625 12.375 C66.23869385 12.71805176 66.9148877 13.06110352 67.61157227 13.41455078 C81.85927421 20.93723215 94.41163381 31.25861409 103 45 C103.79857422 46.08861328 103.79857422 46.08861328 104.61328125 47.19921875 C112.27610401 57.6515059 119.81746139 71.67347832 119 85 C118.67 85.66 118.34 86.32 118 87 C109.54045992 85.52575929 101.14483165 83.80399574 92.75 82 C91.5228125 81.73960937 90.295625 81.47921875 89.03125 81.2109375 C83.2855802 79.97972254 77.63534459 78.65745429 72 77 C67.76648183 76.06719091 63.50957767 75.25803145 59.25292969 74.43847656 C56.88759197 73.97812258 54.52589778 73.50141684 52.1640625 73.0234375 C41.57579387 70.91267441 31.0327415 69.22995862 20.28710938 68.12695312 C18.90168945 67.96936523 18.90168945 67.96936523 17.48828125 67.80859375 C16.66884033 67.72407959 15.84939941 67.63956543 15.00512695 67.55249023 C13 67 13 67 11 64 C10.5769043 61.70117188 10.5769043 61.70117188 10.32421875 58.96875 C10.22109375 57.94322021 10.11796875 56.91769043 10.01171875 55.86108398 C9.85123047 54.19734741 9.85123047 54.19734741 9.6875 52.5 C8.65379771 42.73549974 7.28572677 33.09340438 5.5 23.4375 C5.29850342 22.32761719 5.09700684 21.21773438 4.8894043 20.07421875 C3.82256505 14.45521799 2.53360474 9.10214873 0.56835938 3.72680664 C0 2 0 2 0 0 Z " fill="#000100" transform="translate(801,285)"/>
<path d="M0 0 C4.17614996 0.06120939 7.98785583 0.83818689 11.97265625 2.0546875 C12.68010986 2.26593262 13.38756348 2.47717773 14.11645508 2.69482422 C26.63524864 6.63377176 38.69301307 12.3120046 50.41015625 18.1796875 C51.40015625 18.5096875 52.39015625 18.8396875 53.41015625 19.1796875 C53.41015625 19.8396875 53.41015625 20.4996875 53.41015625 21.1796875 C53.99023438 21.28667969 54.5703125 21.39367187 55.16796875 21.50390625 C63.32935084 23.96369562 70.77639606 32.87107857 77.17578125 38.41015625 C79.12977606 40.09972646 81.09590332 41.71862952 83.12890625 43.31640625 C85.22951933 45.03214673 86.91721428 46.73604426 88.66015625 48.8046875 C91.38151833 52.00139667 94.18249486 55.09957138 97.03515625 58.1796875 C100.73045072 62.29390706 103.77001906 66.32940289 106.41015625 71.1796875 C106.96058594 72.15421875 107.51101563 73.12875 108.078125 74.1328125 C108.92310547 75.70289063 108.92310547 75.70289063 109.78515625 77.3046875 C110.57019531 78.76261719 110.57019531 78.76261719 111.37109375 80.25 C112.58651391 83.67693655 112.28894684 85.69554129 111.41015625 89.1796875 C105.15649554 88.55432143 99.13907589 87.28776169 93.00390625 85.9375 C88.85899206 85.06346375 84.70463575 84.35708446 80.51953125 83.70703125 C78.8443626 83.42292601 77.16991327 83.12307959 75.51611328 82.73339844 C66.40067549 80.653846 57.08517472 80.23362159 47.78515625 79.5546875 C45.99995743 79.41983319 44.21480064 79.28442122 42.4296875 79.1484375 C38.09030192 78.81908594 33.75041629 78.49729855 29.41015625 78.1796875 C28.75425519 76.77499601 28.10601763 75.36672484 27.4609375 73.95703125 C26.9182019 72.7812854 26.9182019 72.7812854 26.36450195 71.58178711 C25.44545312 69.26853015 24.95915439 67.19679737 24.59765625 64.7421875 C21.58092884 47.72678638 12.19172324 31.19677404 3.01171875 16.82421875 C1.41015625 14.1796875 1.41015625 14.1796875 0.41015625 11.1796875 C-0.24984375 11.1796875 -0.90984375 11.1796875 -1.58984375 11.1796875 C-4.02230095 8.7472303 -4.56751884 7.46433016 -4.83984375 3.9921875 C-4.46825096 -0.18823139 -4.34573413 0.21752314 0 0 Z " fill="#000100" transform="translate(767.58984375,191.8203125)"/>
<path d="M0 0 C1 1 1 1 1.25 3.8125 C0.97767509 7.28464266 0.4324572 8.5675428 -2 11 C-2.66 11 -3.32 11 -4 11 C-4.27166992 11.56050049 -4.54333984 12.12100098 -4.82324219 12.69848633 C-6.06926118 15.13546165 -7.42968583 17.47145161 -8.828125 19.82421875 C-14.8484606 30.09741962 -20.31807975 40.00739873 -23.8515625 51.40625 C-25 55 -25 55 -26.5859375 58.65234375 C-28.12346909 62.29230113 -28.77236664 65.59948143 -29.375 69.47265625 C-30.20118059 72.813524 -31.05489495 75.12404046 -33 78 C-35.94525066 78.73899233 -38.16865784 79.03965683 -41.1484375 79.13671875 C-41.95681061 79.18770218 -42.76518372 79.23868561 -43.59805298 79.29121399 C-46.18964739 79.45051915 -48.78115456 79.57108787 -51.375 79.6875 C-54.75878791 79.86371889 -58.14128248 80.0565965 -61.5234375 80.26171875 C-62.34642838 80.31061752 -63.16941925 80.3595163 -64.01734924 80.40989685 C-69.91058425 80.80715333 -75.45372465 81.79428782 -81.1796875 83.2800293 C-85.34808301 84.34413926 -89.55797423 84.95368132 -93.8125 85.5625 C-98.37862133 86.22234412 -102.8583715 86.91581639 -107.32421875 88.08984375 C-111 89 -111 89 -115 89 C-116.46246984 83.66773637 -115.33650376 80.30447166 -112.875 75.5625 C-112.5231665 74.87091797 -112.17133301 74.17933594 -111.80883789 73.46679688 C-107.75236009 65.92416304 -102.24268324 59.78177643 -96.43017578 53.55371094 C-94.66779761 51.63910276 -93.02491554 49.63670424 -91.375 47.625 C-87.93378584 43.69096998 -83.92335699 40.54406543 -79.83984375 37.30078125 C-77.04842092 35.0392296 -74.39632147 32.67881559 -71.75 30.25 C-61.56042032 21 -61.56042032 21 -57 21 C-57 20.34 -57 19.68 -57 19 C-55.989375 18.649375 -54.97875 18.29875 -53.9375 17.9375 C-49.75671414 16.37341167 -45.72473493 14.52266777 -41.6875 12.625 C-40.70511353 12.16504639 -40.70511353 12.16504639 -39.70288086 11.69580078 C-36.8271336 10.3453137 -33.96196284 8.98121304 -31.11328125 7.57421875 C-21.64361519 3.00216772 -10.64977633 -1.06497763 0 0 Z " fill="#000100" transform="translate(236,192)"/>
</svg>
